<svg xmlns="http://www.w3.org/2000/svg" viewBox="0 0 64 64"><g id="_16-city" data-name="16-city"><path d="M58,20a7.987,7.987,0,0,1-5.32,7.53L50,32l-2.68-4.47A8,8,0,1,1,58,20Zm-5,0a3,3,0,1,0-3,3A3,3,0,0,0,53,20Z" style="fill:#ff936b"/><path d="M32,14a12.992,12.992,0,0,1-9.58,12.53L19,32l-3.42-5.47A12.995,12.995,0,1,1,32,14Zm-8,0a5,5,0,1,0-5,5A5,5,0,0,0,24,14Z" style="fill:#65b1fc"/><polygon points="13 46 13 51 8 49 3 51 3 46 8 44 13 46" style="fill:#e3b79d"/><polygon points="13 54 13 59 3 59 3 54 8 52 13 54" style="fill:#e3b79d"/><polygon points="13 51 13 54 8 52 3 54 3 51 8 49 13 51" style="fill:#ff7045"/><polygon points="13 43 13 46 8 44 3 46 3 43 8 41 13 43" style="fill:#ff936b"/><polygon points="23 54 18 52 13 54 13 51 18 49 23 51 23 53 23 54" style="fill:#ff936b"/><polygon points="61 47 61 59 49 59 49 54 49 51 49 47 61 47" style="fill:#f7f7f7"/><polygon points="52 47 52 59 49 59 49 54 49 51 49 47 52 47" style="fill:#cfcfcf"/><polygon points="61 43 61 47 49 47 49 43 55 43 59 43 61 43" style="fill:#9c9c9c"/><polygon points="23 54 23 59 13 59 13 54 18 52 23 54" style="fill:#b2876d"/><polygon points="49 54 49 59 39 59 39 54 44 52 49 54" style="fill:#b2876d"/><polygon points="28 49 28 53 23 53 23 51 23 49 28 49" style="fill:#65b1fc"/><polygon points="39 51 39 53 34 53 34 49 39 49 39 51" style="fill:#65b1fc"/><rect x="28" y="45" width="6" height="4" style="fill:#65b1fc"/><rect x="34" y="41" width="5" height="4" style="fill:#65b1fc"/><rect x="23" y="41" width="5" height="4" style="fill:#65b1fc"/><rect x="28" y="37" width="6" height="4" style="fill:#65b1fc"/><rect x="28" y="49" width="6" height="4" style="fill:#a3d4ff"/><rect x="34" y="45" width="5" height="4" style="fill:#a3d4ff"/><rect x="23" y="45" width="5" height="4" style="fill:#a3d4ff"/><rect x="28" y="41" width="6" height="4" style="fill:#a3d4ff"/><rect x="34" y="37" width="5" height="4" style="fill:#a3d4ff"/><rect x="23" y="37" width="5" height="4" style="fill:#a3d4ff"/><polygon points="39 33 39 37 34 37 28 37 23 37 23 33 39 33" style="fill:#f7f7f7"/><polygon points="39 54 39 59 23 59 23 54 23 53 28 53 34 53 39 53 39 54" style="fill:#f7f7f7"/><polygon points="63 59 63 63 1 63 1 59 3 59 13 59 23 59 39 59 49 59 61 59 63 59" style="fill:#966857"/><path d="M63,58H62V43a1,1,0,0,0-1-1H60V40H58v2H56V37H54v5H49a1,1,0,0,0-1,1v6.523l-3.629-1.452a1,1,0,0,0-.742,0L40,49.523V33a1,1,0,0,0-1-1H23a1,1,0,0,0-1,1V49.523l-3.629-1.452a1,1,0,0,0-.742,0L14,49.523V39H12v2.523l-3-1.2V37H7v3.323L2.629,42.071A1,1,0,0,0,2,43V58H1a1,1,0,0,0-1,1v4a1,1,0,0,0,1,1H63a1,1,0,0,0,1-1V59A1,1,0,0,0,63,58ZM38,58H24V54H38ZM4,46.677l4-1.6,4,1.6v2.846L8.371,48.071a1,1,0,0,0-.742,0L4,49.523Zm4,3.4,4,1.6v.846L8.371,51.071a1,1,0,0,0-.742,0L4,52.523v-.846Zm-4,4.6,4-1.6,4,1.6V58H4Zm10,0,4-1.6,4,1.6V58H14ZM38,48H35V46h3Zm0,3v1H35V50h3ZM24,42h3v2H24Zm5,0h4v2H29Zm-5,4h3v2H24Zm5,0h4v2H29Zm4,4v2H29V50Zm5-6H35V42h3Zm0-4H35V38h3Zm-5,0H29V38h4Zm-6,0H24V38h3ZM24,51V50h3v2H24Zm16,3.677,4-1.6,4,1.6V58H40ZM50,51V48H60V58H50Zm10-7v2H50V44ZM44,50.077l4,1.6v.846l-3.629-1.452a1,1,0,0,0-.742,0L40,52.523v-.846ZM24,34H38v2H24ZM18,50.077l4,1.6v.846l-3.629-1.452a1,1,0,0,0-.742,0L14,52.523v-.846Zm-10-8,4,1.6v.846L8.371,43.071a1,1,0,0,0-.742,0L4,44.523v-.846ZM62,62H2V60H62Z"/><path d="M19,20a6,6,0,1,0-6-6A6.006,6.006,0,0,0,19,20Zm0-10a4,4,0,1,1-4,4A4,4,0,0,1,19,10Z"/><path d="M46.638,28.341l2.505,4.174a1,1,0,0,0,1.714,0l2.505-4.174a9,9,0,1,0-6.724,0ZM50,13a7,7,0,0,1,2.347,13.587,1,1,0,0,0-.522.428L50,30.057l-1.825-3.042a1,1,0,0,0-.522-.428A7,7,0,0,1,50,13Z"/><path d="M50,24a4,4,0,1,0-4-4A4,4,0,0,0,50,24Zm0-6a2,2,0,1,1-2,2A2,2,0,0,1,50,18Z"/><path d="M14.937,27.386l3.215,5.144a1,1,0,0,0,1.7,0l3.214-5.144a14,14,0,1,0-8.125,0ZM19,2a11.993,11.993,0,0,1,3.155,23.566A1,1,0,0,0,21.57,26L19,30.113,16.43,26a1,1,0,0,0-.585-.435A11.993,11.993,0,0,1,19,2Z"/></g></svg>