<?xml version="1.0" encoding="utf-8"?>
<svg xmlns="http://www.w3.org/2000/svg" height="512pt" version="1.1" viewBox="0 0 512 512" width="512pt">
<path d="M 0.00 0.00 L 512.00 0.00 L 512.00 512.00 L 0.00 512.00 L 0.00 0.00 Z" fill="transparent" opacity="1.00" stroke="transparent" stroke-width="0.25"/>
<path d="M 331.62 35.78 C 332.21 35.43 333.38 34.73 333.97 34.38 C 338.40 35.69 334.93 40.00 335.49 43.07 C 335.65 57.99 335.33 72.93 335.66 87.85 C 334.66 87.62 333.67 87.40 332.67 87.16 C 332.56 71.26 332.69 55.36 332.60 39.46 C 332.25 39.13 331.56 38.45 331.22 38.11 C 331.32 37.53 331.52 36.36 331.62 35.78 Z" fill="#29343a" opacity="1.00" stroke="#29343a" stroke-width="0.25"/>
<path d="M 224.99 73.46 C 241.95 72.81 258.97 72.31 275.92 73.38 C 284.02 73.78 292.54 72.35 300.20 75.69 C 307.59 79.30 312.61 86.89 312.97 95.12 C 313.83 108.44 313.87 121.85 313.08 135.17 C 312.37 144.80 304.46 153.29 294.86 154.44 C 285.59 155.31 276.26 154.48 266.99 155.14 C 248.32 155.52 229.65 155.09 210.98 155.15 C 203.40 155.22 195.41 152.25 191.20 145.64 C 187.46 140.95 187.34 134.77 186.79 129.08 C 186.27 116.86 186.29 104.58 187.73 92.42 C 189.12 83.99 195.76 76.75 204.04 74.66 C 210.92 73.18 218.01 73.72 224.99 73.46 Z" fill="#29343a" opacity="1.00" stroke="#29343a" stroke-width="0.25"/>
<path d="M 316.25 96.07 C 316.73 91.28 318.47 86.14 322.84 83.57 C 323.76 83.63 325.60 83.75 326.51 83.81 C 324.87 85.01 323.15 86.13 321.57 87.42 C 318.78 89.60 319.35 94.27 316.25 96.07 Z" fill="#abaaab" opacity="1.00" stroke="#abaaab" stroke-width="0.25"/>
<path d="M 327.80 101.97 C 328.35 97.46 329.78 92.52 333.77 89.87 C 332.13 91.73 330.44 93.61 329.47 95.92 C 327.21 105.45 327.09 115.43 328.59 125.08 C 329.22 128.36 330.83 131.33 332.53 134.17 C 329.08 129.91 327.58 124.38 327.56 118.97 C 327.09 113.30 327.42 107.62 327.80 101.97 Z" fill="#29343a" opacity="1.00" stroke="#29343a" stroke-width="0.25"/>
<path d="M 276.99 92.94 C 283.72 91.84 290.40 98.10 289.33 104.96 C 288.80 113.17 277.76 117.84 271.54 112.45 C 266.96 109.31 266.00 102.52 268.97 97.97 C 270.69 95.16 273.79 93.46 276.99 92.94 Z" fill="#fcfcfc" opacity="1.00" stroke="#fcfcfc" stroke-width="0.25"/>
<path d="M 212.71 95.69 C 217.52 92.63 225.03 94.17 227.53 99.51 C 229.72 103.32 228.71 108.01 226.35 111.48 C 222.55 115.38 215.82 116.25 211.57 112.59 C 205.98 108.56 206.86 99.04 212.71 95.69 Z" fill="#fcfcfc" opacity="1.00" stroke="#fcfcfc" stroke-width="0.25"/>
<path d="M 338.96 97.66 C 340.72 97.29 343.32 96.48 344.32 98.59 C 347.26 103.11 347.36 108.78 347.41 114.00 C 347.18 118.42 346.74 123.28 343.88 126.87 C 341.55 128.74 338.17 126.97 337.66 124.21 C 335.11 116.38 335.38 107.73 337.74 99.88 C 338.05 99.33 338.66 98.22 338.96 97.66 Z" fill="#29343a" opacity="1.00" stroke="#29343a" stroke-width="0.25"/>
<path d="M 233.34 120.96 C 235.07 123.74 236.24 126.99 238.89 129.08 C 244.67 134.28 255.01 134.40 259.95 127.99 C 261.91 126.08 262.35 123.31 263.52 120.95 C 263.93 127.51 258.37 133.19 252.06 134.05 C 243.69 135.96 233.69 129.99 233.34 120.96 Z" fill="#fcfcfc" opacity="1.00" stroke="#fcfcfc" stroke-width="0.25"/>
<path d="M 238.18 177.57 C 235.94 173.59 236.13 168.88 236.40 164.48 C 249.40 164.55 262.41 164.51 275.41 164.49 C 275.60 169.31 275.19 174.36 272.63 178.59 C 269.27 184.46 262.68 187.99 256.02 188.35 C 256.59 192.24 255.60 196.10 255.61 199.99 C 255.65 211.36 255.69 222.74 255.51 234.12 C 255.45 219.49 254.92 204.82 255.86 190.21 C 254.71 189.20 253.67 187.77 251.98 187.75 C 246.14 186.83 240.70 182.98 238.18 177.57 Z" fill="#29343a" opacity="1.00" stroke="#29343a" stroke-width="0.25"/>
<path d="M 191.76 190.73 C 195.64 188.26 200.83 188.21 204.71 190.70 C 200.69 198.82 201.49 208.22 201.33 217.02 C 193.11 228.73 186.23 241.32 178.65 253.44 C 175.77 257.73 174.30 263.82 168.92 265.70 C 162.73 268.21 155.40 264.14 153.35 258.01 C 152.17 254.83 152.52 251.20 154.20 248.28 C 164.83 231.77 175.23 215.10 185.73 198.51 C 187.60 195.82 188.86 192.50 191.76 190.73 Z" fill="#29343a" opacity="1.00" stroke="#29343a" stroke-width="0.25"/>
<path d="M 310.56 192.78 C 315.50 186.68 326.72 187.68 329.99 194.97 C 339.15 212.44 348.26 229.95 357.29 247.49 C 360.82 254.47 354.75 263.87 347.01 263.84 C 343.64 264.31 340.52 263.01 337.66 261.40 C 334.72 258.70 333.20 254.96 331.51 251.44 C 325.45 240.12 319.85 228.55 313.71 217.27 C 312.42 213.81 309.24 210.95 309.45 207.06 C 309.56 202.29 309.05 197.39 310.56 192.78 Z" fill="#29343a" opacity="1.00" stroke="#29343a" stroke-width="0.25"/>
<path d="M 328.43 200.83 C 328.83 205.16 326.84 209.75 322.92 211.85 C 320.01 213.43 316.60 212.28 313.63 211.50 C 316.87 211.48 320.53 212.45 323.35 210.31 C 326.57 208.22 327.55 204.32 328.43 200.83 Z" fill="#fcfcfc" opacity="1.00" stroke="#fcfcfc" stroke-width="0.25"/>
<path d="M 187.68 201.93 C 188.25 205.80 189.49 209.87 192.88 212.20 C 194.93 213.20 197.26 213.27 199.46 213.72 C 196.62 213.54 193.28 214.15 191.02 211.97 C 187.99 209.63 187.44 205.50 187.68 201.93 Z" fill="#fcfcfc" opacity="1.00" stroke="#fcfcfc" stroke-width="0.25"/>
<path d="M 340.36 245.60 C 344.09 243.67 348.82 243.86 352.29 246.29 C 346.41 243.58 338.24 245.48 336.07 252.10 C 336.27 249.27 338.50 247.46 340.36 245.60 Z" fill="#fcfcfc" opacity="1.00" stroke="#fcfcfc" stroke-width="0.25"/>
<path d="M 158.97 247.26 C 162.70 246.01 167.56 245.27 170.61 248.36 C 172.84 250.29 173.81 253.22 173.79 256.11 C 172.83 253.40 172.05 250.34 169.56 248.59 C 166.54 246.12 162.51 247.33 158.97 247.26 Z" fill="#fcfcfc" opacity="1.00" stroke="#fcfcfc" stroke-width="0.25"/>
<path d="M 225.07 255.02 C 237.32 251.22 250.31 250.77 263.05 250.74 C 271.39 251.36 279.80 251.86 287.95 253.89 C 290.03 254.46 292.03 255.31 294.11 255.91 C 295.23 257.79 296.39 259.78 296.25 262.06 C 296.49 265.48 294.28 268.26 292.98 271.23 C 269.96 271.38 246.95 271.27 223.94 271.28 C 222.44 268.31 219.88 265.53 220.33 261.97 C 220.10 258.85 221.93 255.78 225.07 255.02 Z" fill="#29343a" opacity="1.00" stroke="#29343a" stroke-width="0.25"/>
<path d="M 149.16 275.12 C 152.65 277.70 156.67 279.64 160.98 280.31 C 163.41 280.64 166.01 280.19 168.25 281.39 C 161.78 282.23 155.09 281.00 149.71 277.21 C 149.57 276.69 149.30 275.64 149.16 275.12 Z" fill="#abaaab" opacity="1.00" stroke="#abaaab" stroke-width="0.25"/>
<path d="M 259.52 281.88 C 260.45 282.65 260.59 283.84 260.58 284.98 C 260.46 291.32 261.92 297.58 260.38 303.85 C 260.13 303.83 259.63 303.78 259.38 303.76 C 259.46 296.46 259.25 289.17 259.52 281.88 Z" fill="#abaaab" opacity="1.00" stroke="#abaaab" stroke-width="0.25"/>
<path d="M 215.80 291.82 C 223.14 286.75 234.23 290.24 238.10 298.04 C 239.98 302.55 238.64 307.83 234.57 310.60 C 230.56 329.09 226.35 347.54 222.44 366.05 C 221.86 369.37 219.73 372.02 217.46 374.38 C 213.13 377.02 207.44 377.78 202.90 375.23 C 199.92 373.81 198.05 370.97 196.52 368.16 C 196.49 366.12 196.37 364.06 196.80 362.05 C 201.13 341.68 205.63 321.35 210.00 301.00 C 210.40 297.20 212.47 293.74 215.80 291.82 Z" fill="#29343a" opacity="1.00" stroke="#29343a" stroke-width="0.25"/>
<path d="M 287.82 290.62 C 295.32 287.45 306.57 291.14 307.45 300.11 C 311.39 319.39 315.16 338.71 319.15 357.99 C 320.43 363.36 322.06 369.67 318.41 374.50 C 314.31 380.90 304.57 382.24 298.97 377.03 C 295.54 374.38 295.31 369.73 294.41 365.85 C 290.69 347.57 287.09 329.26 283.41 310.97 C 281.58 308.92 279.24 307.05 278.91 304.09 C 278.07 298.05 282.79 293.13 287.82 290.62 Z" fill="#29343a" opacity="1.00" stroke="#29343a" stroke-width="0.25"/>
<path d="M 289.82 309.06 C 288.47 302.36 295.62 296.65 301.94 298.19 C 295.73 297.79 290.33 303.00 289.82 309.06 Z" fill="#fcfcfc" opacity="1.00" stroke="#fcfcfc" stroke-width="0.25"/>
<path d="M 215.96 299.06 C 222.04 297.41 229.35 302.30 228.35 309.01 C 227.47 303.06 222.00 298.56 215.96 299.06 Z" fill="#fcfcfc" opacity="1.00" stroke="#fcfcfc" stroke-width="0.25"/>
<path d="M 128.72 323.48 C 129.73 318.31 133.12 314.07 136.62 310.31 C 146.27 311.84 155.78 314.24 165.45 315.61 C 168.85 318.06 171.64 321.63 171.99 325.94 C 172.41 329.63 171.98 334.84 168.00 336.46 C 166.13 337.46 164.25 336.26 162.57 335.48 C 161.38 332.61 161.55 329.48 161.42 326.45 C 159.47 323.54 155.82 322.53 152.55 323.68 C 149.93 325.20 147.57 327.87 147.55 331.04 C 147.01 335.95 150.44 340.13 153.89 343.17 C 156.49 345.56 160.47 347.03 161.25 350.87 C 162.03 354.98 158.16 359.20 153.94 358.05 C 145.97 355.37 138.61 350.39 133.55 343.62 C 129.17 338.00 127.15 330.49 128.72 323.48 Z" fill="#29343a" opacity="1.00" stroke="#29343a" stroke-width="0.25"/>
<path d="M 364.87 317.87 C 367.54 317.79 370.32 317.09 372.96 317.76 C 377.51 321.75 380.15 327.91 379.56 333.97 C 379.13 342.29 373.23 349.05 366.77 353.70 C 360.51 357.78 353.45 360.99 345.95 361.75 C 342.25 362.27 338.82 358.54 339.84 354.87 C 340.33 351.41 344.07 350.27 346.70 348.80 C 351.97 346.55 358.32 344.00 360.09 337.95 C 362.21 331.96 355.37 324.62 349.38 327.64 C 345.40 329.36 347.59 334.83 344.53 337.33 C 342.00 340.03 337.07 338.35 335.94 335.04 C 333.95 329.71 335.65 322.80 340.67 319.75 C 348.70 318.85 356.81 318.62 364.87 317.87 Z" fill="#29343a" opacity="1.00" stroke="#29343a" stroke-width="0.25"/>
<path d="M 199.86 363.76 C 203.25 361.29 207.74 359.39 211.85 361.26 C 215.83 362.45 219.33 366.70 217.71 370.95 C 218.58 367.92 216.52 365.42 214.38 363.60 C 209.87 360.79 204.43 361.49 199.86 363.76 Z" fill="#fcfcfc" opacity="1.00" stroke="#fcfcfc" stroke-width="0.25"/>
<path d="M 304.22 361.30 C 308.95 359.30 315.02 360.18 318.10 364.56 C 314.72 361.52 309.72 360.32 305.47 362.16 C 302.27 363.40 300.49 366.47 298.59 369.12 C 299.67 366.01 301.36 363.07 304.22 361.30 Z" fill="#fcfcfc" opacity="1.00" stroke="#fcfcfc" stroke-width="0.25"/>
<path d="M 187.25 431.14 C 192.59 429.50 198.44 430.07 204.01 429.90 C 205.57 429.73 207.00 430.54 208.45 430.97 C 201.44 431.86 194.28 431.69 187.25 431.14 Z" fill="#abaaab" opacity="1.00" stroke="#abaaab" stroke-width="0.25"/>
<path d="M 307.69 432.59 C 313.74 430.88 319.92 432.50 326.03 431.66 C 329.17 432.03 332.66 431.62 335.50 433.21 C 326.64 433.90 317.71 433.67 308.84 433.33 C 308.55 433.15 307.98 432.78 307.69 432.59 Z" fill="#abaaab" opacity="1.00" stroke="#abaaab" stroke-width="0.25"/>
<path d="M 185.93 437.95 C 188.25 437.40 190.63 437.21 192.99 436.88 C 200.16 437.15 206.72 441.73 209.82 448.13 C 210.45 449.61 210.78 451.25 211.67 452.63 C 216.32 448.32 221.88 444.78 227.98 442.96 C 232.19 441.51 236.31 445.16 237.38 449.05 C 239.18 455.96 237.68 463.06 236.90 470.00 C 236.49 471.74 236.75 473.79 235.75 475.33 C 235.53 475.49 235.10 475.80 234.88 475.95 C 233.47 476.94 231.65 476.70 230.03 476.78 C 203.40 476.59 176.76 476.89 150.13 476.60 C 149.29 475.20 148.22 475.74 147.24 476.43 L 147.11 476.12 C 146.82 467.48 152.44 460.08 158.34 454.35 C 166.39 447.23 175.71 441.36 185.93 437.95 Z" fill="#fe6955" opacity="1.00" stroke="#fe6955" stroke-width="0.25"/>
<path d="M 321.10 438.01 C 326.13 435.98 332.01 435.83 337.02 437.99 C 345.92 441.40 352.94 448.16 359.63 454.72 C 364.66 460.09 370.36 466.39 370.08 474.20 L 369.72 474.50 C 367.26 477.32 363.33 476.70 359.99 476.73 C 335.94 476.64 311.88 476.85 287.84 476.65 C 286.32 468.51 284.81 460.18 285.73 451.89 C 286.21 447.73 288.97 442.41 293.98 443.47 C 299.76 445.10 304.64 449.03 309.15 452.88 C 310.49 446.39 314.94 440.58 321.10 438.01 Z" fill="#fe6955" opacity="1.00" stroke="#fe6955" stroke-width="0.25"/>
<path d="M 181.25 442.37 C 181.35 441.94 181.57 441.09 181.67 440.67 C 185.64 440.13 189.91 440.41 193.19 442.96 C 193.35 443.68 193.66 445.12 193.82 445.84 C 189.70 444.45 185.58 442.97 181.25 442.37 Z" fill="#29343a" opacity="1.00" stroke="#29343a" stroke-width="0.25"/>
<path d="M 325.24 448.08 C 325.33 445.11 328.54 443.94 331.02 443.55 C 334.13 443.34 337.73 442.81 340.26 445.09 C 335.22 445.95 330.25 447.12 325.24 448.08 Z" fill="#29343a" opacity="1.00" stroke="#29343a" stroke-width="0.25"/>
<path d="M 175.00 446.27 C 178.86 442.20 185.18 445.25 188.36 448.80 C 188.52 449.77 188.69 450.74 188.86 451.72 C 184.95 448.28 179.42 448.55 175.00 446.27 Z" fill="#29343a" opacity="1.00" stroke="#29343a" stroke-width="0.25"/>
<path d="M 330.26 453.17 C 333.69 448.47 340.00 447.59 345.37 448.63 C 345.46 449.05 345.64 449.90 345.72 450.33 C 341.82 451.15 337.79 451.53 334.06 453.02 C 332.85 453.62 331.52 453.27 330.26 453.17 Z" fill="#29343a" opacity="1.00" stroke="#29343a" stroke-width="0.25"/>
<path d="M 359.99 476.73 C 363.33 476.70 367.26 477.32 369.72 474.50 C 370.27 476.23 372.32 476.86 373.97 476.77 C 386.01 476.79 398.06 476.77 410.10 476.85 C 412.10 476.83 414.06 477.22 416.03 477.55 C 401.37 476.97 386.67 477.63 372.00 477.41 C 285.28 477.53 198.55 477.42 111.84 477.40 C 116.14 476.52 120.55 476.91 124.91 476.81 C 132.15 476.86 139.40 476.63 146.64 476.89 L 146.98 475.82 L 147.11 476.12 L 147.24 476.43 C 148.22 475.74 149.29 475.20 150.13 476.60 C 176.76 476.89 203.40 476.59 230.03 476.78 C 231.65 476.70 233.47 476.94 234.88 475.95 C 235.10 475.80 235.53 475.49 235.75 475.33 L 236.13 475.73 C 237.25 477.17 239.49 476.37 241.07 476.63 C 256.66 476.66 272.25 476.59 287.84 476.65 C 311.88 476.85 335.94 476.64 359.99 476.73 Z" fill="#29343a" opacity="1.00" stroke="#29343a" stroke-width="0.25"/>
</svg>