<svg width="1024" height="144" viewBox="0 0 1024 144" fill="none" xmlns="http://www.w3.org/2000/svg" preserveAspectRatio="none" style="width:100%;height:auto;"><path d="M0 144C0 144 10.5 130.9 52 130.9C93.5 130.9 112.5 144 112.5 144H154.5C154.5 144 166 118 244.5 118C323 118 342.5 144 342.5 144H365.5C365.5 144 388.5 125.5 443.5 125.5C498.5 125.5 517.5 144 517.5 144H539C539 144 560 126.5 615 126.5C670 126.5 693 144 693 144H726C726 144 746 127 801 127C856 127 870 144 870 144H912C912 144 924 130.9 972.5 130.9C1021 130.9 1024 144 1024 144H0Z" fill="#6EDADF"/></svg>
