<svg xmlns="http://www.w3.org/2000/svg" xmlns:xlink="http://www.w3.org/1999/xlink" width="1080" zoomAndPan="magnify" viewBox="0 0 810 809.999993" height="1080" preserveAspectRatio="xMidYMid meet" version="1.2"><defs><clipPath id="4598ac2828"><path d="M 340 374 L 711.75 374 L 711.75 626 L 340 626 Z M 340 374 "/></clipPath></defs><g id="bbbe1721b2"><path style=" stroke:none;fill-rule:nonzero;fill:#5e17eb;fill-opacity:1;" d="M 417.746094 87.507812 C 407.183594 94.046875 381.027344 128 361.40625 160.699219 C 324.433594 222.574219 285.199219 303.8125 243.949219 404.671875 C 212.507812 481.386719 199.429688 518.609375 201.441406 526.660156 C 203.707031 535.714844 209.992188 540.492188 219.046875 540.492188 C 228.605469 540.492188 235.398438 534.203125 250.738281 510.308594 C 264.320312 488.929688 314.875 387.570312 339.523438 331.730469 C 350.339844 307.585938 370.964844 263.824219 385.300781 234.898438 L 411.710938 182.078125 L 410.203125 200.941406 C 409.449219 211.253906 404.917969 245.460938 400.140625 276.902344 C 387.0625 363.421875 388.066406 379.019531 407.433594 384.046875 C 423.027344 388.070312 426.550781 386.058594 492.449219 336.761719 C 530.425781 308.089844 567.398438 281.429688 600.097656 258.539062 C 618.710938 245.710938 623.488281 237.414062 617.953125 227.601562 C 613.429688 218.800781 602.109375 215.277344 589.535156 218.800781 C 575.953125 222.320312 522.378906 249.484375 504.769531 261.304688 C 497.226562 266.589844 479.367188 280.421875 465.285156 292.496094 C 450.945312 304.316406 439.378906 312.867188 439.378906 311.609375 C 439.378906 310.351562 441.640625 294.257812 444.15625 275.894531 C 452.707031 218.296875 454.972656 186.101562 453.964844 141.082031 L 453.210938 97.316406 L 444.910156 90.023438 C 435.351562 81.472656 428.5625 80.96875 417.746094 87.507812 Z M 417.746094 87.507812 "/><path style=" stroke:none;fill-rule:nonzero;fill:#5e17eb;fill-opacity:1;" d="M 95.550781 163.71875 C 82.726562 179.5625 81.214844 198.175781 87.253906 253.761719 C 89.769531 278.15625 90.773438 312.113281 90.273438 375.242188 C 89.769531 475.347656 90.523438 481.132812 105.363281 479.625 C 116.679688 478.617188 122.464844 469.058594 132.273438 435.609375 C 144.347656 394.109375 150.886719 345.5625 151.140625 295.261719 C 151.390625 243.953125 146.613281 214.773438 134.035156 191.886719 C 122.464844 171.011719 101.839844 155.921875 95.550781 163.71875 Z M 95.550781 163.71875 "/><g clip-rule="nonzero" clip-path="url(#4598ac2828)"><path style=" stroke:none;fill-rule:nonzero;fill:#5e17eb;fill-opacity:1;" d="M 682.597656 377.003906 C 651.660156 382.289062 622.734375 395.367188 525.648438 448.183594 C 447.679688 490.691406 423.28125 508.296875 379.011719 554.578125 C 342.796875 592.554688 333.738281 610.917969 346.316406 622.234375 C 353.105469 628.273438 359.898438 626.007812 384.546875 609.15625 C 431.078125 577.464844 464.53125 555.582031 489.679688 541.246094 C 504.269531 532.949219 528.667969 519.113281 543.757812 510.308594 C 582.492188 488.175781 669.515625 429.070312 684.355469 415.234375 C 697.183594 402.910156 711.019531 383.542969 711.019531 377.757812 C 711.019531 373.988281 701.710938 373.988281 682.597656 377.003906 Z M 682.597656 377.003906 "/></g><path style=" stroke:none;fill-rule:nonzero;fill:#5e17eb;fill-opacity:1;" d="M 504.773438 657.449219 C 502.761719 657.949219 490.9375 659.710938 478.363281 661.21875 C 450.195312 664.992188 416.238281 674.550781 402.65625 682.597656 C 379.765625 695.929688 369.707031 717.058594 381.277344 727.621094 C 390.078125 735.671875 624.746094 733.40625 641.09375 725.105469 C 657.945312 716.304688 660.460938 699.199219 646.878906 684.109375 C 636.316406 672.539062 619.714844 664.992188 597.582031 661.472656 C 580.980469 658.707031 511.3125 655.6875 504.769531 657.449219 Z M 504.773438 657.449219 "/></g></svg>