<?xml version="1.0" encoding="UTF-8"?>
<svg id="Layer_1" data-name="Layer 1" xmlns="http://www.w3.org/2000/svg" viewBox="0 0 1487.77 1217.38">
  <defs>
    <style>
      .cls-1 {
        fill: #3a3d3e;
      }

      .cls-2 {
        fill: #e4c724;
      }

      .cls-3 {
        fill: #2aaadf;
      }

      .cls-4 {
        fill: #dc1d83;
      }

      .cls-5 {
        fill: #aaa2a1;
      }

      .cls-6 {
        fill: #dbbb29;
      }

      .cls-7 {
        fill: #477eaf;
      }

      .cls-8 {
        fill: #ea4058;
      }

      .cls-9 {
        fill: #a95650;
      }

      .cls-10 {
        fill: #2f3d4a;
      }

      .cls-11 {
        fill: #27292a;
      }

      .cls-12 {
        fill: #a470ad;
      }

      .cls-13 {
        fill: #474749;
      }

      .cls-14 {
        fill: #fefdfd;
      }

      .cls-15 {
        fill: #3f98c9;
      }

      .cls-16 {
        fill: #f5904b;
      }

      .cls-17 {
        fill: #77c3ad;
      }

      .cls-18 {
        fill: #f3b451;
      }

      .cls-19 {
        fill: #854195;
      }

      .cls-20 {
        fill: #305681;
      }

      .cls-21 {
        fill: #e1278c;
      }

      .cls-22 {
        fill: #d48db7;
      }

      .cls-23 {
        fill: #3ab8e1;
      }

      .cls-24 {
        fill: #e76967;
      }

      .cls-25 {
        fill: #e0ccc8;
      }
    </style>
  </defs>
  <path class="cls-3" d="M174.1,500.34l13.39-15.8c-12.36-6.3-25.44-11.12-39.03-14.12.46-40.06,8.95-79.34,20.78-117.38,90.97,19.95,157.27-82.26,102.35-157.5,29.01-27.14,61.9-50.44,97.93-67.36,8.26,9.24,14.84,18.29,25.05,25.72,61.73,44.95,147.24,9.25,159.25-65.54,39.91-.9,79.88,8.95,118.24,20-1.47,7.76-4.47,34.18-.66,40.22,2.09,3.31,14.02-3.71,17.7-3.71,1.13,7.11,4.18,17.96,7.3,24.35l-15.83,6.1c11.76,24.7,37.93,45.9,64.53,52.33l-93.75,63.3c-156.97-85.6-348.58,43-321.42,220.35l-94.96,63.3c.76-15.46-3.85-35.7-10.74-49.52-1.7-3.42-13.9-22.99-16.64-22.3l-12.8,15.83c-3.96-4.92-15.94-15.29-20.7-18.26Z"/>
  <path class="cls-6" d="M914.34,485.73l24.4,5.56c-.51,39.77-8.53,79-20.61,116.67-10.69.56-22.43-1.39-33.6-.47-75.6,6.2-115.33,98.89-68.89,158.68-28.62,27.68-61.98,50.66-97.98,67.75-2.54-.07-6.33-7.47-8.45-9.77-42.44-46.07-111.95-49.02-153.43,0-12.66,14.95-18.49,31.24-23.31,49.98-39.72-.53-79.07-8.02-116.57-20.61-1.95-1.37,1.78-17.83,1.82-21.44.03-3.15-1.06-5.32-1.32-7.91l497.95-338.43Z"/>
  <path class="cls-11" d="M662.31,809.56l.05,2.39c.75.31,1.86-.15,2.38.04,11.24,4.17,7.32,12.69,8.63,22.45.98,7.28,5.04,4.03,9.29,5.91.39.17.55,1.63,1.25,2.01,6.52,3.53,12.68,7.62,19.26,11.05,7.15-1.68,12.85-6.93,20-8.56l1.81,1.21.62-1.21c.5.15,1.34-.26,2.06.34.98,3.57,14.64,16.29,14.99,17.57,3.13,11.36-13.77,17.72-13.42,23.97.12,2.13,4.94,11.97,6.02,16.03,1.4,5.28,2.01,10.77,2.69,16.18,22.39,4.61,27.76,7.42,21.42,30.88-4.05,14.98-21.39,3.95-27.02,10.71-1.45,1.75-4.65,10.88-6.53,14.17-1.69,2.97-8.49,11.31-8.77,13.25-1.12,7.71,10.8,15.02,8.04,23.73-1.21,3.81-15.86,15.14-19.65,15.72-10.59,1.62-17.36-13.92-22.74-13.16-3.27.46-11.64,4.61-16.22,5.82-5.29,1.4-10.73,2.5-16.22,2.65-2.35,7.97-3.22,23.75-14.09,24.01-2.51.06-17.7-2.24-19.82-3.13-9.56-3.99-2.14-21.81-7.22-25.96-2.61-2.13-13-6.08-17.03-8.23s-7.61-5.79-12.05-7.55c-8.92,2.39-17.75,13.41-26.92,5.74-1.96-1.64-12.02-15.33-12.32-17.54-1.06-7.84,14.46-18.35,14.18-21.41-4.38-10.23-8.37-21.02-8.49-32.33-5.97-3.26-20.42-3.61-23.26-10.21-1.69-3.91.21-20.08,2.22-23.94,3.92-7.55,18.37-5.08,25.92-6.35,3.17-11.02,9.74-20.38,16.05-29.72-9.62-18.73-14.34-24.31,6.14-36.35,13.49-7.93,16.45,5.23,27.06,11.26,9.83-5.58,21.09-7.21,31.99-9.44,3.56-4.16,4.32-19.25,9.01-21.43,4.28-1.99,15.67-1.08,20.71-.6ZM658.56,831.36c1.18-.79,2.77-11.17-.64-11.97-11.44-1.56-6.06,16.45.64,11.97ZM624.57,841.22c-10.53.77-20.95,8.86-31.71,5.54-4.37-1.35-10.08-12.74-14.56-3.77.7,3.96,5.14,8.9,9.2,9.15s15.8-1.61,20.29-2.74c3.49-.88,11.07-3.64,14.36-5.18,1.82-.85,3.01.19,2.42-2.99ZM697.62,859.46c-1.42-4.23-21.01-15.03-23.13-13.37,1.04,4.61,5.87,4.4,9.76,6.67,4.3,2.5,8.3,6.64,13.37,6.7ZM605.09,864.34c-54.6,30.44-42.53,111.83,14.66,129.61,56.84,17.67,113.23-34.38,91.27-91.87-16.38-42.87-65.9-60.06-105.92-37.74ZM720.46,857.25c-13.81,3.48-2.54,16.94,6.28,3.87-.45-3.18-3.27-4.63-6.28-3.87ZM566.13,889.91c-1.62-1.75-8.6,10.44-10.52,11.99-3.04,2.45-12.1,4.6-12.49,5.16-3.15,4.55,5.99,10.47,11.44,5.96,1.83-1.51,12.5-22.1,11.57-23.11ZM743.84,931.36l-10.92-6.75-6.07-12.79c-1.43,5.48,5.77,22.67,10.59,24.12,3.77,1.13,7.29-.01,6.39-4.58ZM563.68,951.99c-2.1-.05-2.62-.67-2.35,1.73.47,4.25,2.73,9.15,3.46,13.61,1.32,8.06-3.35,18.25,9.87,16.3l-10.98-31.64ZM713.44,972.69c-1.79-2.19-2.71,1.77-3.16,2.28-2.81,3.18-11.73,15.11-13.24,18.46-3.2,7.07,7.75,9.04,9.79,6.11,1.25-1.79.28-9.25.83-12.56.58-3.53,7.15-12.63,5.79-14.29ZM639.18,1010.43c-2.53-2.31-6.72-.86-10.06-1.5s-8.54-2.71-11.83-4c-9.68-3.8-18.53-10.68-28.02-13.97-2.2,2,7.67,7.94,8.92,8.72,6.22,3.89,14.6,6.23,20.22,10.22,7.31,5.19,8.82,14.52,19.24,9.39.33-.16,6-3.98,5.19-5.21,6.48-1.94,14.92-2.88,20.71-5.52,1.85-.84,3,.15,2.41-3-8.88,1.88-17.8,3.43-26.78,4.87Z"/>
  <path class="cls-11" d="M1014.78,846.08c8.33.71,23.28,4.36,30.66,8.3,27.42,14.65,25.33,64.46-6.91,71.43,14.45,5.36,24.78,11.44,28.64,27.36,7.09,29.17-8.78,53.14-37.39,60.08-18.3,4.44-65.53,5.54-84.46,3.32-1.77-.21-3.13-.15-4.2-1.89v-168.61c23.86,1.49,50.07-2,73.66,0ZM977.64,913.03h31.05c.54,0,8.92-2.84,9.99-3.41,9.42-4.99,10.78-22.3,2.75-28.81-2.13-1.72-12.82-5.52-15.17-5.52h-28.61v37.74ZM977.64,986.08h31.05c1.15,0,9.69-2.63,11.2-3.41,13.16-6.72,15.16-28.87,2.01-36.59-1.04-.61-9.05-3.83-9.56-3.83h-34.7v43.83Z"/>
  <path class="cls-11" d="M850.42,846.08c48.45,4.48,69.08,48.19,36.55,85.25l-16.35,11.4,48.58,73.79h-38.35l-40.79-65.74h-19.48v63.91l-1.83,1.83h-34.7v-170.43c21.39,1.45,45.26-1.95,66.35,0ZM840.68,875.3c-6.35-.67-13.62.49-20.09,0v46.26h18.87c2.05,0,11.01-2.62,13.42-3.63,11.58-4.86,15.11-17.97,10.91-29.22-3.12-8.38-14.8-12.54-23.11-13.41Z"/>
  <path class="cls-4" d="M913.12,461.39l-13.37,15.22,14.59,9.13-497.95,338.43c-.41-4.05-.47-8.16-1.23-12.18l-21.91,7.31c-.74-3.8-7.73-22.1-9.74-25.56,195.1-70.21,372.43-194.05,508.91-349.39,3.76,4.2,15.92,14.24,20.7,17.04Z"/>
  <path class="cls-24" d="M383.51,793.73c2.01,3.46,9,21.77,9.74,25.56,20.51,104.64-138.45,133.1-158.27,32.87-1.46-7.39-2.02-19.32-1.22-26.78,8.03-74.28,112.24-96.39,149.75-31.65ZM278.81,792.51c-14.87,2.58-15.28,21.29,0,23.13.26,5.02-.56,9,3.14,13.29,4,4.63,7.94,2.72,12.68,4.97-3.16,1.17-5.63,3.15-7.3,6.09-8.62.21-19.36-2.59-19.58,9.14-.05,2.95,1.27,5.3,1.31,6.68.14,4.47.82,14.62,0,18.26-.33,1.46-2.89,3.39-3.42,5.75-3.29,14.59,16.71,15.34,17.8,3.08.21-2.34-3.27-8.35-4.64-8.83v-15.83c2.43.1,4.88-.07,7.3,0,1.51,6.23,4.3,10.23,8.52,14.61,3.04,3.15,5.38,5.61,9.74,7.3.94,21.24,24.46,21.56,24.35,0,5.41-2.12,6.1-3.64,9.74-7.3s8.77-9.48,9.74-14.61c2.03-.04,4.06.05,6.09,0v15.83c-.27.09-3.24,3.97-3.39,4.51-5.31,18.17,21.5,15.24,17.52,1.55-.22-.76-4.04-5.94-4.39-6.06.45-5.45-.64-11.74,0-17.04.24-1.98,2.68-3.83,2.52-7.89-.4-10.6-11.94-9.49-19.57-9.16-.58-1.09-6.82-5.45-8.52-6.09,5.27-2.42,9.23-.06,13.41-5.46,3.43-4.43,2.22-7.72,2.42-12.8,14.78.54,16.37-21.25,1.22-21.91-.01-.44-1.52-7.75-1.78-8.57-2.17-6.82-10.66-15.86-17.66-17.64-5.68-1.44-28.27-1.31-34.74-.58-13.53,1.52-21.63,12.76-22.52,25.57Z"/>
  <path class="cls-2" d="M174.1,500.34c4.76,2.97,16.73,13.34,20.7,18.26,49.31,61.21-7.41,149.77-84.01,130.26-8.97-2.28-16.6-5.97-24.35-10.96-56.82-36.55-43.35-126.18,21.65-144.53,18.41-5.2,49.44-3.39,66.01,6.96ZM90.09,507.65c-1.59.58-3.32.45-4.26,2.42-3.07,6.4-1.3,21.18-1.78,28.67-1.51,23.47-5.75,53.19-4.92,76.04.09,2.45-.54,4.54,1.12,6.79.53.72,10.47,6.82,12.27,7.82,2.81,1.56,4.12,3.55,7.93,3.73,17.67.84,12.21-10.12,11.55-21.99,3.25-1.98,5.04,1.4,7.8,1.25s4.99-3.24,6.2-3.29c1.42-.06,3.21,2.54,5.83,1.88,2.36-.59,3.53-4.11,4.52-4.72,1.75-1.08,8.9-1.71,10.96-1.22,1.47.35,4.7,5.52,7.3,0,.36.13.87-.14,1.22,0,.93.37,3.51,1.09,3.65,1.22.23.19.03,1.91.67,2.39,3.23,2.44,26.85,8.07,30.99,7.35,1.55-.27,4.96-2.04,4.61-3.96l-10.62-86.64c-2.14.07-4.67-3.06-4.95-3.14-7.56-2.09-14.65,4.05-12.17,12.17-3.85-.7-16.98-3-19.46-1.83-.77.36-.99,1.72-1.23,1.83-4.17,2.04-6.56-.46-10.96,0-1.1-5.05-6.66-9.05-9.74-3.65h-1.22c-1.95-4.3-7.56-5.55-9.74-1.22h-1.22c-1.94-3.88-4.48-4.02-8.52-3.65-.47-5.44.28-11.3-2.31-16.56-4.39-2.59-8.87-3.39-13.51-1.7Z"/>
  <path class="cls-23" d="M976.43,312.87c5.05,1.32,19.82,8.06,24.35,10.96,27.75,17.78,40.48,54.62,33.27,86.22-12.04,52.79-74.12,78.81-120.93,51.34-4.78-2.8-16.94-12.85-20.7-17.04-53.61-59.82,7.71-151.5,84.01-131.48ZM924.08,323.82c.35,2.04,6.05,1.32,7.9,1.2,7.77-.51,15.8-4.03,23.76-3.63,1.18,1.97,1.4,7.29,1.22,9.74-14.04,1.74-41.45-6.63-44.75,13.08-.8,4.78.72,12.77-.29,16.14-.06.18-1.96.54-2.42,3.01-.65,3.48-.48,22.44,1.22,24.36.54.61,2.27.42,2.42.63,1.1,1.59-.82,23.82,0,28-1.4.04-8.52,7.84-8.52,9.13v19.48l1.83,1.83h96.18c3.08-4.98,2.58-16.69.61-21.91-1.45-3.85-5.5-6.2-6.06-9.15-.47-2.43-.54-25.67-.02-27.37,3.57-11.89,3.56-16.28,0-28-1.02-3.34.51-11.37-.29-16.14-2.78-16.59-19.91-13.08-32.58-13.08h-2.43c3.67-24.39-22.97-9.72-35.72-10.76l-2.02,3.45Z"/>
  <polygon class="cls-11" points="1294.19 846.08 1294.19 874.69 1292.37 876.51 1247.93 876.51 1247.93 1014.69 1246.1 1016.51 1211.4 1016.51 1211.4 876.51 1165.75 876.51 1163.92 874.69 1163.92 846.08 1294.19 846.08"/>
  <path class="cls-21" d="M848.59,110.78c2.63,10.5,3.05,14.92,2.43,25.56-4.86,84.01-119.18,105.29-154.62,32.87-3.13-6.39-6.17-17.24-7.3-24.35-16.5-103.77,135.36-130.56,159.49-34.09ZM742.67,81.56c-31.43-1.43-45.69,18.18-26.78,45.04-6.5,9.73-13.79,29.22-2.43,37.74-2.31,9.64,8.85,15.96,14.61,8.52,4.16,1.81,10.03,1.53,14.61,1.22,6.81,10.62,11.06,18.36,24.35,20.7.29.05.95,1.13,1.95,1.2,11.39.77,23.47-11.95,27.27-21.9,32.35,1.98,44.68-18.29,28-46.26,2.19-3.35,6.69-13.82,7.2-17.75,3.12-23.96-15.37-29.38-35.2-28.51-4.23-11.21-13.8-22.2-26.78-21.91-13.54.3-20.96,11.13-26.78,21.91Z"/>
  <path class="cls-4" d="M233.76,825.38c-.81,7.46-.25,19.39,1.22,26.78-65.71,3.02-147.17-13.54-166.18-86.44-7.15-27.42-4.53-51.98,1.82-79.12l32.87-21.91c-36.22,100.83,9.29,158.41,112.56,161.97,5.87.2,12,.39,17.71-1.28Z"/>
  <path class="cls-4" d="M1000.78,323.82c-4.53-2.9-19.3-9.63-24.35-10.96,26.1-59.34,33.32-133.45-36.09-164.17-19.92-8.82-38.7-11-60.09-12.35l31.65-23.13c43.11,6.73,83.43,26.64,101.26,68.57,19.74,46.43,4.76,97.38-12.39,142.04Z"/>
  <polygon class="cls-11" points="1138.35 846.08 1138.35 1016.51 1103.66 1016.51 1101.83 1014.69 1101.83 846.08 1138.35 846.08"/>
  <path class="cls-15" d="M1173.66,815.64l-1.22-1.22h1.22c-.05.4.04.81,0,1.22Z"/>
  <path class="cls-15" d="M1110.35,698.78v15.83h55.4c2.46,0,5.18,4,5.54,6.64.7,5.1.81,28.21-.09,32.9-.3,1.59-3.44,5.5-4.23,5.5h-56.61v17.04h65.14c.91,0,2.76,2.96,3.01,4.29.66,3.44.37,35.17-.57,37.1-.5,1.02-1.6,1.86-2.69,2.18l-110.52.22c-4.26-.72-5.04-5.54-5.51-9.1,2.99-48.11-3.98-101.02-.05-148.57.53-6.45,1.66-10.53,9.12-10.36l103.28.31c2.17,1.02,4.04,2.84,4.49,5.25.99,5.29.74,27.02.05,32.86-.23,1.99-.49,3.88-1.84,5.47-.61.57-5.52,2.42-6.1,2.42h-57.83ZM1066.52,658.6l-2.46.73.03,156.31,1.84-.84-.02,2.06,103.59.07c1.98-.16,2.53.33,4.15-1.29,3.08-3.08.22-28.13,1.2-34.09l-1.2,1.22h-69.4v-29.22h60.87v-32.87h-60.87v-28h65.74v-34.09h-103.49Z"/>
  <path class="cls-9" d="M898.81,704.57c-2.53-2.21.63-10.16-7.15-14.16-8.23-4.22-20.84,3.3-16.88,11.98,3.12,6.84,26.15,10.63,33.79,13.71,67.43,27.16,30.17,123.15-42.92,102.57-21.61-6.08-37.39-24.86-38.95-47.49-.37-5.35-.95-9.56,5.4-10.38,4.77-.61,35.32-.73,38.77.3,3.9,1.16,2.97,6.92,5.16,10.66,8.15,13.9,35.08-2.19,9.9-13.55-25.71-11.61-54.39-13.87-58.95-49.4-8.78-68.32,93.37-89.04,113.26-26.81,1.49,4.66,5.51,19.86,1.4,22.77-3.05,2.16-40.21,2.09-42.83-.2ZM938.69,699.99c-3.01-26.98-17.46-46.94-45.8-49.77-36.26-3.61-67.73,24.96-59.83,62.26,3.65,17.2,17.29,26.68,32.6,33.14,11.5,4.85,42.23,9.27,35.02,27.76-6.26,16.05-32.66,9.11-31.39-7.66h-37.74c1.69,75.8,121.97,60.9,105.61-12.47-7.55-33.86-37.27-29.49-59.41-41.64-29.52-16.2,21.48-46.8,24.41-11.63h36.52Z"/>
  <path class="cls-18" d="M1260.1,768.17c-.18-.37-2.57-1.38-2.68-2.75l-16.8-34.99v42c0,1.34-4.98,3.91-6.77,4.19-6.83,1.08-29.33.92-36.48.09-5.01-.58-7.6-2.62-7.91-7.91l.56-157.78c.57-3.02,3.55-3.27,6.14-3.55,4.8-.51,37.13-.57,39.59.61l35.32,73.65,2.71-1.56,35-72.1c1.74-1.06,37.18-1.26,40.78-.57,2.72.53,3.91,2.36,4.95,4.79l-.25,159.35c-1.09,4.53-4.28,4.75-8.28,5.11-5.42.49-37.24.54-40.01-1.18-.63-.39-2.05-2.65-2.05-3.13v-42c-7.36,7.33-18.61,45.95-24.87,50-2.64,1.7-10,1.79-12.85.5-5.4-2.43-4.77-9.99-6.11-12.76.85,1.74,5.78,10.38,6.89,10.76,3.42,1.18,9.1.92,11.37-2.24,1.49-2.07,4.96-9.85,4.87-12.17.4-.37.97-.74,1.22-1.22.68-1.32.78-2.79,1.22-3.65.26-.52,1.34-1.06,2.43-3.65,5.33-12.59,12.86-26.24,17.04-38.96h2.43c.45,18.16.63,37.45-1.24,55.37.6,1.85,2.72-.59,3.06-.59h40.79v-156.43c0-.62,1.93-2.55,1.21-4.25l-39.64-.11c-2.41-.42-1.59,2.41-1.74,2.54-.18.15-1.75-.28-2.46.83-1.26,1.99-1.64,4.31-2.41,6.47-.97,2.71-1.58,6.13-2.43,8.52-2.95-.65-2.52,1.49-3.43,3.2-2.42,4.57-4.39,9.05-6.31,13.84-1.72,4.31-3.19,9.2-4.87,13.39-2.95-.65-2.52,1.49-3.43,3.2-2.42,4.55-4.51,9-6.31,13.84-1.05,2.82-1.59,5.87-2.43,8.52l-4.85,2.43c-1.18-1.1-2.03-10.47-6.11-9.73-.85-2.54-1.44-5.75-2.43-8.52-1.47-4.08-3.04-7.59-5.09-11.41-.91-1.7-.48-3.85-3.43-3.2-.86-2.25-1.37-5.87-2.43-8.52-2.26-5.61-4.67-10.95-7.53-16.27-.91-1.7-.48-3.85-3.43-3.2-.55-1.42-.55-4.12-1.22-6.09-1.16-3.43-2.37-6.67-4.28-9.78l-1.38-1.06c-.88-.23-1.53,1.09-1.65,1.1-12.1.27-24.42.19-36.52,0-.19,0-1.23-2.03-2.45-.67l-1.26,3.66-.05,155.97c-.37,2.42,2.34,1.54,2.54,1.74.16.16-.35,1.65.23,2.15,1.49,1.29,35.46.9,39.43.39,2.83-.36,1.43-2.23,1.74-2.54.16-.16,1.65.35,2.15-.23,1.75-2.02-.74-46.61.3-53.33l3.64,2.43c.2.68-.21,1.79,0,2.43,4.76,14.74,11.53,31.19,18.26,45.04Z"/>
  <path class="cls-12" d="M1022.69,651.3v116.26c0,4.93-5.16,6.39-9.08,6.75-7.06.65-31.64,1.12-37.77-.08-2.03-.4-5.5-3.87-5.5-5.45v-117.48h-31.05c-.47,0-2.96-3.06-3.34-3.96-1.77-4.15-1.63-35.28.53-39.02,1.8-3.12,4.42-3.04,7.62-3.33,33.27-3.05,71.07,2.45,104.83-.02,3.64-.64,8.38,3.37,9.03,6.8.78,4.08.78,29.96,0,34.03-.3,1.59-3.44,5.5-4.23,5.5h-31.05ZM976.43,768.17c1.18,1.18,1.22,1.11,2.92,1.28,12.06,1.23,26.18-1.04,38.48-.07v-121.74h34.09c-.4-1.2,1.22-2.64,1.22-3.04v-34.7h-111.4l-1.83,1.83v32.87c0,.4,1.61,1.85,1.22,3.04h34.09c1.94,14.08-3.03,116.25,1.22,120.52Z"/>
  <path class="cls-11" d="M1373.06,478.77c81.17-9.88,87.62,105.38,17.77,112.73-80.1,8.43-86.59-104.35-17.77-112.73ZM1373.04,486.05c-18.65,2.53-35.14,19.41-39.32,37.38-10.17,43.65,38.33,77.91,75.56,53.64,45.42-29.6,19.71-98.61-36.24-91.02Z"/>
  <path class="cls-3" d="M911.9,113.22l-31.65,23.13c-10.09-.64-18.88-2.05-29.22,0,.62-10.64.19-15.06-2.43-25.56,20.66-2.15,42.78-.77,63.31,2.43Z"/>
  <path class="cls-3" d="M110.79,648.86c-1.58,5.12-5.63,11.16-7.3,15.83l-32.87,21.91c3.91-16.7,10.12-32.59,15.83-48.7,7.75,4.99,15.38,8.67,24.35,10.96Z"/>
  <path class="cls-1" d="M1116.44,1166.25c-.19.07-.33,2.18-3.08,2.49-9.76,1.08-5.79-7.36-7.27-7.37l-1.75,6.78c-2.84.98-6.6,1.34-8.6-1.29v-48.09c17.74-5.82,14.09,5.81,16.44,18.27l2.92-17.78c1.93-2.45,11.59-2.56,12.98-.57l.36,47.99c-1.29,3.91-6.94,1.5-9.57.78v-12.17s-2.43,10.95-2.43,10.95ZM1098.18,1119.99v46.26h4.87v-34.09c1.83-.21,1.81,3.25,2.07,4.62,1.86,9.65,2.54,19.75,4.02,29.48l4.12-.14,1.75-1.9,3.86-30.84c4.73-.58,1.21,1.98,1.21,3.04v28l6.09,1.83v-46.26l-9.21,1.14-4.79,30.53-4.8-30.52-9.2-1.14Z"/>
  <path class="cls-13" d="M840.07,1119.38c10.44-5.94,14.05.45,15.22,10.36l1.75-11.65c2.84-.98,6.61-1.34,8.6,1.29v47.48c-1.73,2.6-8.59,2.74-10.37.63l-5.46-18.28v17.65c-2.18,2.73-7.38,2.84-9.74,0v-47.48ZM842.5,1121.21v43.83h4.87v-31.65c3.77-.61,1.89,1.05,2.44,2.99,2.6,9.24,4.5,18.73,7.16,27.96l6.23.71v-43.83h-4.87v25.56c-2.25-.37-2.05-2.5-2.6-4.1-2.22-6.5-3.51-14.6-4.76-21.41l-8.47-.06Z"/>
  <path class="cls-13" d="M708.58,1122.42c.69,2.35-.17,8.31,2.42,9.73v-12.17c3.29-2.69,5.72-4.4,9.75-.61v47.48c-1.73,2.6-8.59,2.74-10.37.63l-5.46-18.28v17.65c-2.18,2.73-7.38,2.84-9.74,0v-47.48c4.96-3.46,11.51-3.41,13.39,3.04ZM697.62,1121.21v43.83h4.87v-31.65c3.71-.59,1.93.94,2.46,2.97,2.36,9.12,4.64,18.3,6.62,27.52l6.75,1.16v-43.83h-4.87v25.56c-2.25-.37-2.05-2.5-2.6-4.1-2.22-6.5-3.51-14.6-4.76-21.41l-8.47-.06Z"/>
  <path class="cls-13" d="M1008.08,1058.51c8.66-4.82,14.59-2.25,15.22,7.93l1.75-9.22c3.18-.91,7.58-1.51,9.82,1.29v48.09l-11.01-.56-4.21-14.06-.6,14.63h-10.96v-48.09ZM1010.52,1059.12v45.04h6.09v-31.65l8.64,31.53,7.19.13v-45.04h-6.09v26.78l-7.47-26.62-8.36-.16Z"/>
  <path class="cls-13" d="M887.54,1137.04v-8.52c-4.65-.98-1.64,7.06-2.44,9.74l12.87,1.13c1.05,1.51.81,17.15.25,19.89-2.7,13.33-23.02,13.19-25.21-1.02-.82-5.34-.83-26.19.2-31.3,3.42-16.89,30.57-10.45,25.11,8.08-1.13,3.4-7.93,1.63-10.79,2ZM896.07,1158.34c.9-5.11-.65-12.26,0-17.65h-9.74s.15,6.01.15,6.01l3.59.75-.25,10.73c-.86,2.61-4.71,2.32-6.98,1.83-1.9-1.18-2.23-30.49-.29-33.21l6.91.42.52,7.39h6.1c3.76-11.92-12.52-20.65-18.81-10.89-3.09,4.79-3.07,35.11.5,39.53,4.9,6.05,16.85,3.36,18.3-4.91ZM887.55,1147.98h-3.64v9.75h3.64v-9.75Z"/>
  <path class="cls-13" d="M1043.39,1118.77v18.26h3.65v-17.65c0-2.99,9.11-1.56,10.96-.61v48.09c-2.43,2.84-8.52,2.84-10.96,0v-18.87h-3.65v18.87c-2.43,2.84-8.52,2.84-10.96,0v-47.48c0-2.99,9.11-1.56,10.96-.61ZM1040.95,1119.99h-6.09v46.26h6.09v-20.7h8.52v20.7h6.09v-46.26h-6.09v19.48h-8.52v-19.48Z"/>
  <path class="cls-13" d="M665.59,1120.37c2.74,2.54,5.69,12.37,3.49,15.53l-10.43,1.14c-.66-.69,1.86-9.35-3.64-8.52v9.74s14.07,1.13,14.07,1.13c1.25,1.79.67,16.59.01,19.64-2.84,13.12-22.28,12.69-24.79,1.49-.96-4.28-.96-30.51,0-34.79,1.96-8.74,15.36-10.85,21.28-5.36ZM652.57,1158.34v-30.43l7.15-1.66,1.38,8.35h6.08c2.59-16.38-19.17-21.75-20.76-4.31-.5,5.48-.67,27.86,1.41,31.57,2.62,4.66,9.61,5.62,14.18,3.5,6.84-3.18,4.95-18.46,5.16-24.67h-9.75s.15,6.02.15,6.02l3.59.74c.16,7.28.81,17.49-8.6,10.9ZM658.66,1157.74c-.16-3.59,1.57-9.83-3.64-9.74v9.74s3.64,0,3.64,0Z"/>
  <path class="cls-13" d="M973.99,1058.51c18.25-10.96,10,15.64,12.8,16.44s1.75-2.61,1.81-4.26c.16-4.28-.6-8.67.53-12.87,1.34-1.92,10.05-2.01,11.64.69v46.26c-2.62,2.87-9.56,2.87-12.17,0v-18.87h-2.43v18.87c-2.62,2.87-9.56,2.87-12.17,0v-46.26ZM983.73,1059.12h-7.3v45.04h7.3v-19.48h7.3v19.48h7.3v-45.04h-7.3v18.26h-7.3v-18.26Z"/>
  <path class="cls-13" d="M1139.57,1060.34c.21-.19-.06-2.1,1.21-2.99,4-2.81,11.67-1.45,15.26,1.73,3.86,3.43,6.96,14.24,1.79,17.08l-7.38-.53-1.14-8h-3.64s-.03,9.05-.03,9.05l12.2.7c.65-.04,1.82-.24,2.18.19.6.71.49,16.16.15,18.57-2.22,15.64-23.18,14.62-25.4,2.48-1.03-5.64-.68-24.17-.12-30.43.68-7.61,1.68-4.91,4.93-7.86-3.15,3.15-3.1,30.37-2.46,35.94,1.44,12.5,18.69,12.29,20.61-1.36.42-2.95,1.18-15.17-1.88-16.15l-7.75-.17c-2.17,5.93,3.09,6.07,3.68,9.09.66,3.35.5,11.68-4.28,11.65-1.32-.01-4.26-2.45-4.26-3.08v-29.22c0-1.15,4.9-3.63,6.46-1.94l2.07,8.63h6.09c1.03-13.06-6.01-17.54-18.27-13.38ZM1149.31,1087.11h-3.64v9.75h3.64v-9.75Z"/>
  <path class="cls-13" d="M706.14,1095.64c5.24.96.36-8.19,3.57-10.42,1.68-1.16,8.75-1.36,9.65,1.46,2.38,12.75-3.07,22.93-17.23,19.66-10.1-2.33-8.89-27.39-8.14-35.63.95-10.51,6.56-18.34,18.31-14.69,10.9,3.39,10.71,28.41-3.55,18.15-1.09-2.58,1.94-8.72-2.6-7.75v29.22ZM703.71,1096.25v-30.43l1.96-1.71,4.22.41,1.66,8.08,5.55,1.14c1.43-8.86-2.14-17.89-12.51-15.6-1.87.41-5.58,2.97-6.34,4.65-1.33,2.95-1.12,34.4.27,37.43.91,1.98,2.76,3.19,4.83,3.68,12.32,2.91,14.91-6.53,13.75-16.78h-6.1c-.25,4.15,1.89,11.68-4.25,11.04-1.12-.12-2.75-.93-3.05-1.9Z"/>
  <path class="cls-13" d="M688.93,1072.34l-9.56,1.39c2.54,6.47,8.17,7.77,9.44,15.5,3.91,23.87-28.8,23.4-25.1,1.1l1.82-1.82c1.22-.86,9.11,1.31,7.74-1.98-3.53-3.51-8.01-7.66-9.2-12.71-5.6-23.71,28.13-25.06,24.87-1.47ZM680.59,1071.3c7.65,1.2,6.79-4.56,3.91-9.4-4.15-6.95-16.03-5.24-18,3.24-3.56,15.27,12.93,18.46,13.89,27.78.74,7.1-10.96,7.52-8.33-2.15h-6.1c-2.05,21.44,27.63,16.26,19.36-4.14-2.27-5.61-17.78-15.54-11.46-21.43,4.31-3.54,7.4,1.78,6.72,6.1ZM678.13,1073.73c.03-2.68.7-6.36-2.41-7.3-.03,2.68-.7,6.36,2.41,7.3ZM676.92,1089.56h-2.42v6.07h2.42v-6.07Z"/>
  <path class="cls-13" d="M819.37,1095.64c6.07.74,2.7-10.02,3.65-10.96l9.82.54c2.79,1.95.41,13.34-1.03,16.17-3.8,7.48-17.33,7.22-21.48.25-2.78-4.67-2.55-27.05-1.97-33.43,2.11-22.98,32.64-12.35,24.22,7.78-8.74,1.28-9.71.09-10.15-8.37-1.07-2.04-3.06.1-3.06.63v27.39ZM825.46,1073.74c7.76,1.58,6.88-5.9,4.17-10.87-4.02-7.38-16.62-6.51-18.52,2-1.01,4.5-.96,26.47-.19,31.32,1.17,7.4,7.9,9.64,14.62,7.44,5.51-1.8,6.07-11.4,6.02-16.5h-6.1s-1.39,10.78-1.39,10.78h-5.74c-1.73-1.05-2.12-27.3-1.14-30.61,2.26-7.67,11.04-.62,8.28,6.45Z"/>
  <path class="cls-13" d="M963.04,1060.34c-6.6-1.63-14.09-3.63-17.01,4.3-1.96,5.32-1.87,21.88-1.3,28.01,1.88,20.37,25.22,15.09,20.75-4.31h-6.1s-1.12,9.24-1.12,9.24l-2.1,1.48-4.08-.97v-31.04l5.36-1.73c2.93.97,1.82,6.08,1.94,8.43h6.1s-2.44-13.4-2.44-13.4c.3.27,2.07.13,3,1.22,3.12,3.65,1.53,10.08,1.88,14.62h-10.97c-1.08-1.08,2.38-9.89-2.43-8.53v29.22c5.01,1.26,1.21-9.75,2.43-10.96h10.97c3.4,12.18-6.04,28.64-19.44,20.04-8.01-5.14-7.3-29.9-5.85-38.61s9.42-13.88,17.36-10.67c3.75,1.52,2.56,3.24,3.04,3.68Z"/>
  <path class="cls-13" d="M1238.19,1122.42c.1.12,1.74-.36,2.52.76,1.46,2.1,2.06,13.1,0,14.53h-8.68c-3.09-2.15,1.5-10.26-3.57-9.2v29.22c5.25.91.36-8.19,3.57-10.43l9.82-.54c-.46,6.74,1.98,13.85-3.61,18.93-6.67,6.05-19.18,3.25-20.68-6.21-.8-5.07-.86-29.08.19-33.76,1.66-7.4,11.23-10.03,17.73-7.37,2.28.93,1.82,3.02,2.71,4.07-3.21-4.37-16.08-3.35-18.01,3.29-.94,3.23-.88,28.45-.32,32.68,1.38,10.41,16.91,10.32,19.29,2.12.97-3.33-.12-7.79.26-11.32h-6.1c.62,6.43.48,15.08-7.3,9.14v-30.43l1.96-1.71,4.22.41,1.12,9.22h6.1s-1.22-13.4-1.22-13.4Z"/>
  <path class="cls-13" d="M935.64,1056.69c5.93,10.48-.6,12.17-10.35,10.95v7.32s8.61.53,8.61.53c3.68,8.54.11,12.13-8.62,12.33l.02,7.84c9.76-1.22,16.28.47,10.35,10.95h-22.52v-48.09l1.83-1.83h20.7ZM935.03,1059.12h-19.48v45.04h19.48v-6.09s-12.18.01-12.18.01v-14.62s9.75.01,9.75.01l.02-5.39-9.77-.7-.02-11.48,12.2-.69v-6.09Z"/>
  <path class="cls-1" d="M752.41,1128.52l-12.2.69.02,7.83,8.61.53c3.67,8.82.4,11.77-8.61,10.42v9.75s12.19-.01,12.19-.01l-.54,9.82c-6.41,1.07-22.72,4.68-23.87-4.28-.57-4.43-.37-41.16.66-43.28,2.17-4.46,16.98-1.84,21.75-2.26l1.83,1.82.18,8.97ZM749.97,1119.99h-17.65c-1.74,1.07-1.68,2.43-1.89,4.2-.93,7.96-.93,29.9,0,37.86.21,1.77.15,3.13,1.89,4.2h17.65v-6.09s-11.64-1.13-11.64-1.13l-.54-13.47,9.77-.7-.02-5.39h-9.75s0-13.39,0-13.39h12.19s0-6.08,0-6.08Z"/>
  <path class="cls-13" d="M768.24,1056.69v9.75s-11.64,1.13-11.64,1.13l-.54,7.39h9.75s-.54,9.81-.54,9.81l-9.21,1.13-.02,9.05,12.2.69c-.34,3.67,1.34,8.37-1.83,10.96h-19.48l-1.83-1.83v-48.09h23.13ZM765.8,1059.12h-18.26v45.04h18.26v-6.09s-12.18.01-12.18.01v-14.62s9.75.01,9.75.01l.02-5.39-9.77-.7.54-12.26,11.65-1.15v-4.86Z"/>
  <path class="cls-1" d="M863.2,1056.69v9.75s-11.64,1.13-11.64,1.13l-.54,7.39h9.75s-.54,9.81-.54,9.81l-9.21,1.13-.02,9.05,12.2.69c-.34,3.67,1.34,8.37-1.83,10.96h-19.48l-1.83-1.83v-48.09h23.13ZM860.77,1059.12h-18.26v45.04h18.26v-6.09s-12.18.01-12.18.01v-14.62s9.75.01,9.75.01l.02-5.39-9.77-.7.54-12.26,11.65-1.15v-4.86Z"/>
  <path class="cls-1" d="M1086.61,1117.55c2.86.8,4.18,7.41,2.51,9.82l-11.65,1.13v7.83s8.6,1.22,8.6,1.22c3.92,8.11-.96,10.85-8.62,11.12l.02,9.05,11.65,1.13c1.81,2.29-.12,9.82-2.51,9.82h-19.48l-1.83-1.83v-47.48l1.83-1.83h19.48ZM1085.39,1119.99h-17.65v46.26h17.65l1.83-6.08h-12.19s0-14.62,0-14.62l7.75-.17c7.94-9.38-6.51-4.67-7.75-5.91l-.02-12.7,12.2-.71-1.83-6.08Z"/>
  <path class="cls-1" d="M580.74,1118.77c3.51-1.57,21.54-2.11,22.96.17l.18,9.57h-12.19s0,8.52,0,8.52h9.75s-.54,9.81-.54,9.81l-9.21,1.13-.02,9.05,12.2.69c-.34,3.67,1.34,8.37-1.83,10.96h-19.48l-1.83-1.83v-48.09ZM601.44,1119.99h-18.26v46.26h18.26v-6.09s-11.64-1.13-11.64-1.13l-.54-13.47,9.77-.7-.02-5.39h-9.75s0-13.39,0-13.39h12.19s0-6.08,0-6.08Z"/>
  <path class="cls-13" d="M758.5,1118.77c3.73-1.34,20.99-2.4,22.6-.08l.54,9.82h-12.19s0,8.52,0,8.52h9.75s-.54,9.81-.54,9.81l-9.21,1.13-.02,9.05,12.2.69c-.34,3.67,1.34,8.37-1.83,10.96h-19.48l-1.83-1.83v-48.09ZM779.19,1119.99h-18.26v46.26h18.26v-6.09s-10.18-.16-10.18-.16l-1.83-1.83-.18-12.62h9.75s.01-5.38.01-5.38c-10.75.11-11.79-3.69-8.62-13.56l11.04-.53v-6.09Z"/>
  <path class="cls-1" d="M799.89,1147.99v18.87l-2.02,1.63-9.06-1.51c-.67-.74-.88-1.63-1.07-2.59-.93-4.88-.93-37.65,0-42.54.24-1.28.62-2.37,1.67-3.2,17.02-3.19,24.99-.68,23.9,17.81-.51,8.6-.29,14.95-.03,24.3.06,2.31,1.87,4.61.7,6.77-1.52,2.06-8.7,1.78-10.57-.55-3.5-4.42,2.03-15.42-3.53-18.99ZM790.15,1121.82v42.61l7.3,1.83v-20.7l7.1,3.24.73,16.31,6.77,1.13c-2.57-5.91-.14-13.15-1.24-18.84-.52-2.69-3.61-4.52-3.61-4.89s3.09-2.2,3.61-4.89c.44-2.27.4-9.75-.23-11.9-2.07-7.11-19.39-7.33-20.45-3.9Z"/>
  <path class="cls-13" d="M1251.58,1122.42c.69-.81.59-2.86,2.02-3.74,2.75-1.68,9.37-1.61,12.35-.32,1.98.86,1.3,2.69,1.46,2.84.3.28,2.09.14,2.99,1.22,2.58,3.09,1.88,7.58,1.92,11.36-.72,3.01-10.02.47-8.56,3.84,12.89,9.41,12.86,34.52-7.64,30.76-7.74-1.42-9.67-9.87-8.9-16.82l10.44-1.15c-1.66-5.71-8.12-7.85-9.45-14.27-.7-3.37-.86-10.82,1.28-13.43.43-.52,1.96-.14,2.09-.3-1.68,2.3-1.59,11.73-.67,14.68,2.14,6.91,17.9,12.38,11.72,22.54-5.88,2.2-6.73-1.67-6.17-6.79h-6.09c-1.67,25.83,31.89,11.82,15.8-9.09-3.61-4.69-18.31-15.77-4.34-17.59l1.99,5.94,6.05.05-2.44-10.96c-3.67-1.6-13.42-2.07-15.83,1.22ZM1261.31,1128.52h-2.42c-.2,2.32-.23,4.62,1.83,6.07l.6-6.07ZM1261.31,1152.87h-2.42v4.86h2.42v-4.86Z"/>
  <path class="cls-13" d="M1184.62,1106.6l-11.64-1.14c.63-17.05-2.61-31.29-9.05-46.91,9.57-5.67,13.75-.38,15.22,9.11l3.21-10.81,10.28.99c.99,1.27.25,2.46,0,3.75-.93,5.04-8.02,19.45-8.02,22.49v22.52ZM1174.88,1081.64c1.05,6.66-.77,15.57,0,22.52h7.3v-20.09l8.52-24.94-6.71,1.19-4.85,14.64-4.85-14.64-6.71-1.19c-1.51,1.41,6.82,19.47,7.3,22.51Z"/>
  <path class="cls-1" d="M928.95,1119.99c15.12-8.85,15.57,4.22,16.44,15.84,1.67-.01,1.23-15.75,4.22-17.71,2.29-1.5,11.33-1.24,12.83,1.86,3.25,6.68-.99,36.21.36,45.41-2.42,6.1-7.93,2.03-10.71,2.07v-9.73s-1.21,0-1.21,0c.96,2.55-.89,4.53-1.23,6.08v-2.43l3.65-25.56v28.61l7.3,1.83v-46.26l-10.43,1.14-4.19,30.51-4.93-31.57c-3.54-1.31-7.22.81-9.67,1.14-.45.06-1.75-1-2.43-1.22Z"/>
  <path class="cls-1" d="M1150.47,1158.98l-3.57-.04c.75,8.83-6.83,14.46-12.25,6.66l8.51-47.52c3.43-.88,11.09-1.7,12.85,1.9,1.08,13.24,5.88,27.8,6.69,40.81.13,2.01.6,6.14-1.13,7.35-9.79,2.63-9.66-1-11.1-9.17ZM1160.27,1166.25l-6.33-44.21c-1.23-3.29-5.89-1.85-8.76-2.13l-8.05,46.32,6.02-.06,1.34-9.61,7.76-.14,1.98,9.75,6.03.07Z"/>
  <path class="cls-1" d="M985.11,1167.3c-.07-4,.37-10.62-5.04-7.58-.91,7.5-1.71,10.51-10.17,8.78l-2.06-2.89,7.6-46c1.29-3.44,12.09-3.04,13.76.38,1.32,13.27,5.88,27.67,6.7,40.81.58,9.47-2.59,9.24-10.79,6.5ZM993.48,1166.25l-6.32-44.21c-1.23-3.29-5.89-1.85-8.76-2.13l-8.05,46.32,5.95-.13,1.36-9.59,8.38.12,1.36,9.59,6.08.02Z"/>
  <path class="cls-1" d="M900.94,1067.64v37.13c-2.62,2.87-9.56,2.87-12.17,0v-37.13c-8.77,2.8-10.76-10.09-3.1-11.02,2.73-.33,20.24-.25,21.44.59,1.91,1.34,1.41,7.07.61,9.29l-6.77,1.14ZM905.81,1059.12h-21.91v6.09s7.3,0,7.3,0v38.96h7.3v-38.96h7.31s0-6.09,0-6.09Z"/>
  <path class="cls-1" d="M1026.34,1118.77v9.75s-7.3,0-7.3,0v38.96c-1.85.95-10.96,2.38-10.96-.61v-38.35h-7.31s0-9.74,0-9.74h25.57ZM1023.91,1119.99h-20.7v6.09s7.3,0,7.3,0v40.17h6.09v-40.17h7.31s0-6.09,0-6.09Z"/>
  <path class="cls-1" d="M1053.93,1055.89c9.55-.27,13.11,6.23,13.86,14.75,1.11,12.54,2.67,44.65-19.01,36.04-10.09-4-8.74-26.7-7.81-35.98.82-8.25,3.67-14.54,12.96-14.81ZM1050.34,1059.39c-9.16,2.08-7.92,27.93-6.84,35.54,1.89,13.35,18.44,14.05,21.28,2.02,1.28-5.43,1.22-28.58-1-33.25s-8.68-5.38-13.43-4.3Z"/>
  <path class="cls-1" d="M1114.8,1055.89c3-.09,8.17,1.53,10.2,3.8,4.58,5.12,4.38,26.98,3.62,34.13-2.03,18.96-25.01,19.46-26.84-1.17-1.05-11.83-3.3-36.29,13.02-36.76ZM1114.83,1058.3c-4.62.07-8.41,2.64-9.76,7.11-2.37,7.85-3.27,36.33,6.43,39.43,17.68,5.64,15.64-22.48,14.72-32.98-.62-7.1-3.07-13.69-11.4-13.56Z"/>
  <path class="cls-11" d="M1086,1095.64l10.42,1.14c.91,3.18,1.51,7.58-1.29,9.82h-19.48l-1.83-1.83v-46.26c2.62-2.87,9.56-2.87,12.17,0v37.13ZM1077.48,1104.16c2.11,2.11,15.14,1.92,17.04,0,.11-.37-.15-.88,0-1.22.73-1.68,2.37-1.56,0-3.65-2.8-2.48-7.34-.8-10.96-1.22v-38.96h-7.31c1.14,13.37-1.49,29.04-.06,42.13.19,1.7.1,1.73,1.28,2.92Z"/>
  <path class="cls-1" d="M1174.88,1130.34c-.83-2.6-12.91-.14-7.91-10.36,2.14-4.38,20.04-2.15,25.04-1.89l1.15,10.43h-7.31s0,38.34,0,38.34c-2.43,2.84-8.52,2.84-10.96,0v-36.52ZM1190.71,1119.99h-21.91v6.09s7.3,0,7.3,0v38.35l7.3,1.83v-38.35l7.31-1.82v-6.09Z"/>
  <path class="cls-13" d="M820.59,1119.38c.82-2.64,10.52-2.88,12.17,0v47.48c-2.62,2.87-9.56,2.87-12.17,0v-47.48ZM824.24,1166.25l6.11-.7v-45.57s-6.11,0-6.11,0c-2.02,1.26-1.21,4.62-1.24,6.68-.14,10.95-.12,21.96,0,32.9.02,2.06-.78,5.41,1.24,6.68Z"/>
  <path class="cls-13" d="M675.71,1119.38c.82-2.64,10.52-2.88,12.17,0v46.26c0,2.55-7.78,4.05-10.16,2.85l-2.02-1.63v-47.48ZM685.45,1119.99h-7.3v46.26h7.3v-46.26Z"/>
  <path class="cls-13" d="M737.8,1056.69v48.09l-2.01,1.63-8.14.24c-1.14-.24-1.15-1.45-1.45-2.4-1.55-4.99-1.29-35.62-.65-42.15.83-8.46,5.17-7.33,12.25-5.41ZM735.36,1057.9c-2.62-.05-5.63-.64-7.3,1.83v44.43h7.3v-46.26Z"/>
  <path class="cls-1" d="M1210.19,1166.86c-6.09,3.93-11.48,2.96-12.25-4.8-.57-5.82-.9-37.08.32-41.22s6.73-3.68,9.91-3.09l2.02,1.63v47.48ZM1207.75,1119.99h-7.3v46.26h7.3v-46.26Z"/>
  <path class="cls-13" d="M635.53,1118.77l1.05,47.92c-.99,3.01-8.09,2.65-10.3.9l-5.34-15.94c-.73,4.09,1.55,13.06-1.23,15.82.03-.76-1.21-1.13-1.22-1.22-.3-2.24-1.04-32.88.61-32.88,2.69,4.8,6.31,31.53,9.91,32.71,1.59.52,3.61.09,5.31.18v-46.27c.55-.05,1.09-.65,1.22-1.22Z"/>
  <path class="cls-11" d="M619.7,1167.47c-3.05,3.03-8.88,1.33-9.71-3.08-2.25-11.99,1.39-30.79.21-43.55,1.17-4.78,11.55-4.03,13.25-1.27,1.29,2.1,0,6.14,2.32,6.49-1.07-7.13,3.17-10.72,9.75-7.3-.12.57-.66,1.17-1.22,1.22-2,.19-4.09-.15-6.09,0l-.6,25.58-6.06-24.39-9.17-1.19-.02,45.56,6.11.7c.01.09,1.25.46,1.22,1.22Z"/>
  <path class="cls-11" d="M931.38,1166.25c2.08-.26,4.99.79,5.92-2l.18-28.43,4.93,30.36,5.33.15,1.91-4.94v2.43c-.23,1.04.15,2.5,0,3.65-2.47-.03-6.01,0-8.52,0l-1.83-10.97-.61,10.97c-1.71-.04-5.23,2.91-8.52,0,.12-.58.66-1.15,1.22-1.22Z"/>
  <path class="cls-13" d="M931.38,1121.21v45.04c-.56.07-1.1.64-1.22,1.22l-1.22-47.48c.69.21,1.99,1.28,2.43,1.22Z"/>
  <path class="cls-20" d="M908.24,1145.56v-6.1c18.2-2.23,18.25,8.32,0,6.1Z"/>
  <rect class="cls-20" x="868.07" y="1077.39" width="10.97" height="4.86"/>
  <polygon class="cls-25" points="1157.83 1077.38 1145.64 1076.68 1145.66 1067.64 1149.31 1067.63 1150.45 1075.63 1157.83 1076.16 1157.83 1077.38"/>
  <path class="cls-13" d="M782.85,1085.9c3.46-.66,1.97,1.3,2.43,2.43-.71,4.35,1.56,14.28-1.22,17.04.03-.76-1.21-1.13-1.22-1.22-.69-5.13-.03-12.76,0-18.26Z"/>
  <path class="cls-25" d="M711.01,1119.99v12.17c-2.61-1.42-1.75-7.38-2.43-9.73.94-.66,1.57-1.72,2.43-2.43Z"/>
  <path class="cls-5" d="M1118.87,1167.47c-.7-.19-2.18-1.32-2.43-1.22l2.42-10.95v12.17Z"/>
  <path class="cls-5" d="M941.12,1167.47c-.81,0-1.63.02-2.43,0l.61-10.97,1.83,10.97Z"/>
  <path class="cls-5" d="M952.08,1167.47c-.81.01-1.62.01-2.43,0,.15-1.15-.23-2.61,0-3.65.34-1.55,2.18-3.53,1.23-6.08h1.19s.01,9.73.01,9.73Z"/>
  <path class="cls-13" d="M662.31,809.56c.8.08,1.63-.1,2.43,0v2.43c-.52-.2-1.63.27-2.38-.04l-.05-2.39Z"/>
  <path class="cls-13" d="M725.62,844.86l-.62,1.21-1.81-1.21c.3-.07.7-1.1,1.49-.88.44.01.65.79.95.88Z"/>
  <path class="cls-14" d="M880.25,136.35c21.39,1.35,40.17,3.53,60.09,12.35,69.41,30.72,62.19,104.84,36.09,164.17-76.3-20.02-137.62,71.66-84.01,131.48-136.48,155.34-313.81,279.18-508.91,349.39-37.51-64.74-141.72-42.63-149.75,31.65-5.71,1.67-11.84,1.48-17.71,1.28-103.27-3.56-148.78-61.14-112.56-161.97,1.68-4.67,5.72-10.71,7.3-15.83,76.6,19.51,133.32-69.05,84.01-130.26l12.8-15.83c2.74-.69,14.94,18.89,16.64,22.3,6.89,13.82,11.5,34.06,10.74,49.52-1.48,29.89-20.14,62.91-46.09,78.11l-.22,1.54c16.93,35.69,39.88,68.87,67.86,96.74,8.05-3.1,15.58-9.03,23.88-12.26,32.81-12.78,68.7-7.62,96.91,13.11,2.57,1.89,13.73,12.61,15.09,12.48,50.23-18.62,98.02-42.67,145.71-66.77l-41.4-6.67c-87.62-20.14-153.16-90.66-166.78-179.58-27.16-177.34,164.45-305.95,321.42-220.35,29.77,16.24,60.72,46.75,78.43,75.58,33.2,54.06,41.6,120.28,21.44,180.69.82.76,2.71-.8,3.51-1.35,16.34-11.24,40.71-35.85,55.54-50.37,11.76-11.51,24.26-24.35,35.29-36.54,3.15-3.48,15.83-16.81,17.07-19.54.42-.91.77-1.69.4-2.71-21.03-43.19-9.53-89.68,25.72-120.83,2.26-1.99,9.84-5.48,9.57-8.28s-11.14-21.63-13.44-25.56c-10.98-18.73-25.83-39.74-39.98-56.2-1.78-2.07-12.49-14.28-13.4-14.69s-1.68-.85-2.71-.39c-23.05,17.44-55.58,23.67-83.7,16.87-26.6-6.43-52.77-27.63-64.53-52.33l15.83-6.1c35.44,72.42,149.76,51.14,154.62-32.87,10.34-2.05,19.13-.64,29.22,0ZM552.74,527.13h23.13c.83-19.8-21.44-30.86-36.92-37.95-37.11-16.99-83.55-19.24-78.78-73.48,4.43-50.39,62.82-57.44,102.33-47.45,6.71,1.7,32.71,11.3,36.47,15.88,2.16,2.62,4.48,18.16,6.76,23.68,10.38,25.15,32.59,32.08,57.79,24.97,1.19-.33,9.6-1.86,7.32-4.23l-31.08-18.29,1.77-26.25,21.39-12.26,30.47,17.81c1.97.25,2.01.16,1.77-1.76-5.37-43.75-39.47-55.95-77.07-37.46-41.98-16.99-92.24-24.96-135.17-6.85-68.62,28.94-72.63,113.13-5.25,146.12,16.22,7.94,64.27,21.07,73.34,32.6,1.72,2.19,1.55,4.75,1.75,4.92ZM538.74,418.78h-22.52c6.11,39.76,52.62,41.05,82.01,54.96,45.05,21.32,45.11,72.79,5.54,100.15-35.8,24.75-72.51,8.47-108.23-6.58l-15.92,34.48c50.52,34.15,125.59,42.99,168.72-7.68,37.2-43.71,25.08-102.7-23.38-131.25-24.42-14.39-58.38-18.2-80.12-36.76-1.9-1.62-4.88-6.96-6.09-7.3ZM493.08,507.66c-25.66-3.13-50.47,2.83-65.53,25.16-3.11,4.61-14.45,25.14-15.53,29.62-1.19,4.91,2.66,10.29-.78,17.37-2.93,6.02-9.76,7.58-13.15,11.2-1.24,1.32-6.61,12.05-6.05,12.8l28.45,12.29c8.5-8.16,2.34-27.57,12.63-32.68,9.58-4.76,19.47,8.21,25.92,3.95.83-.55.93-2.53,1.38-2.81,2.95-1.84,14.11,7.68,16.75,5.8l4.88-13.21-14.53-6.22c6.13-12.3-12.38-11.18-14.37-20.33-2.75-12.62,14.89-29.68,24.97-35.39,5.02-2.85,10.88-3.84,14.98-7.54Z"/>
  <path class="cls-4" d="M329.94,511.3c13.62,88.92,79.16,159.44,166.78,179.58l41.4,6.67c-47.69,24.1-95.48,48.15-145.71,66.77-1.36.13-12.52-10.59-15.09-12.48-28.2-20.72-64.1-25.89-96.91-13.11-8.3,3.23-15.83,9.17-23.88,12.26-27.98-27.87-50.93-61.05-67.86-96.74l.22-1.54c25.94-15.2,44.61-48.22,46.09-78.11l94.96-63.3Z"/>
  <path class="cls-13" d="M711.01,902.08c-3.97-.46-2.13,1.12-1.57,3.39,12.15,48.47-24.38,92.12-74.51,87.9-53.83-4.53-79.13-70.89-45.68-112.59,4.69-5.84,12.42-10.04,15.83-16.43,40.03-22.32,89.54-5.13,105.92,37.74ZM670.84,977.56c2.47,2.85,9.52-3.28,11.54-4.9,35.12-28.11,29.27-82.26-10.74-102.43-49.01-24.72-102.92,17.2-89.4,71.12.43,1.72,2.98,8.92,5.8,8.2,12.13,32.13,53.65,44.76,82.79,28Z"/>
  <path class="cls-1" d="M605.09,864.34c-3.41,6.39-11.14,10.59-15.83,16.43-33.45,41.7-8.15,108.06,45.68,112.59,50.13,4.22,86.66-39.43,74.51-87.9-.57-2.26-2.4-3.85,1.57-3.39,21.96,57.48-34.43,109.53-91.27,91.87-57.19-17.78-69.25-99.16-14.66-129.61Z"/>
  <path class="cls-1" d="M639.18,1010.43c-3.74.6-7.64,2.13-12.17,1.22,3.6,10.97,9.53,4.31,15.82,2.43.82,1.23-4.86,5.05-5.19,5.21-10.42,5.13-11.93-4.2-19.24-9.39-5.61-3.99-14-6.33-20.22-10.22-1.25-.78-11.12-6.72-8.92-8.72,9.49,3.29,18.33,10.18,28.02,13.97,3.29,1.29,8.54,3.37,11.83,4s7.53-.81,10.06,1.5Z"/>
  <path class="cls-1" d="M624.57,841.22c.59,3.18-.61,2.14-2.42,2.99-3.29,1.53-10.87,4.29-14.36,5.18-4.49,1.14-16.11,3-20.29,2.74s-8.51-5.19-9.2-9.15c4.48-8.97,10.19,2.42,14.56,3.77,10.76,3.33,21.19-4.76,31.71-5.54Z"/>
  <path class="cls-1" d="M566.13,889.91c.93,1.01-9.74,21.6-11.57,23.11-5.45,4.5-14.58-1.42-11.44-5.96.38-.56,9.44-2.71,12.49-5.16,1.92-1.55,8.9-13.74,10.52-11.99Z"/>
  <path class="cls-1" d="M713.44,972.69c1.36,1.66-5.2,10.76-5.79,14.29-.55,3.31.42,10.77-.83,12.56-2.04,2.93-12.99.96-9.79-6.11,1.51-3.34,10.43-15.27,13.24-18.46.45-.51,1.37-4.46,3.16-2.28Z"/>
  <path class="cls-1" d="M563.68,951.99l10.98,31.64c-13.22,1.95-8.55-8.24-9.87-16.3-.73-4.46-2.99-9.36-3.46-13.61-.27-2.4.25-1.79,2.35-1.73Z"/>
  <path class="cls-13" d="M639.18,1010.43c8.97-1.44,17.89-2.99,26.78-4.87.58,3.15-.57,2.15-2.41,3-5.79,2.64-14.23,3.58-20.71,5.52s-12.22,8.54-15.82-2.43c4.53.91,8.43-.62,12.17-1.22Z"/>
  <path class="cls-13" d="M743.84,931.36c.89,4.57-2.62,5.71-6.39,4.58-4.82-1.45-12.02-18.64-10.59-24.12l6.07,12.79,10.92,6.75Z"/>
  <path class="cls-1" d="M658.56,831.36c-6.7,4.48-12.08-13.53-.64-11.97,3.42.8,1.82,11.19.64,11.97Z"/>
  <path class="cls-13" d="M720.46,857.25c3.01-.76,5.83.69,6.28,3.87-8.82,13.07-20.09-.39-6.28-3.87Z"/>
  <path class="cls-13" d="M697.62,859.46c-5.07-.06-9.07-4.2-13.37-6.7-3.89-2.27-8.72-2.06-9.76-6.67,2.12-1.66,21.71,9.14,23.13,13.37Z"/>
  <path class="cls-14" d="M977.64,986.08v-43.83h34.7c.52,0,8.53,3.22,9.56,3.83,13.14,7.73,11.15,29.87-2.01,36.59-1.52.77-10.05,3.41-11.2,3.41h-31.05Z"/>
  <path class="cls-14" d="M977.64,913.03v-37.74h28.61c2.36,0,13.05,3.8,15.17,5.52,8.03,6.51,6.67,23.82-2.75,28.81-1.06.56-9.44,3.41-9.99,3.41h-31.05Z"/>
  <path class="cls-14" d="M840.68,875.3c8.31.88,19.99,5.03,23.11,13.41,4.19,11.25.67,24.36-10.91,29.22-2.4,1.01-11.37,3.63-13.42,3.63h-18.87v-46.26c6.47.49,13.74-.67,20.09,0Z"/>
  <path class="cls-15" d="M355.51,793.73c.17,5.5-.97,15.48-1.22,21.91-.19,5.08,1.01,8.37-2.42,12.8-4.18,5.4-8.14,3.04-13.41,5.46-2.16-.8-2.99-1.06-5.39-1.27-7.37-.64-32.6-.89-38.44,1.27-4.74-2.25-8.68-.33-12.68-4.97-3.71-4.29-2.88-8.27-3.14-13.29-.36-7.02-.48-16.17,0-23.13.89-12.81,8.99-24.05,22.52-25.57,6.47-.73,29.05-.87,34.74.58,7,1.78,15.49,10.82,17.66,17.64.26.82,1.77,8.13,1.78,8.57ZM342.92,789.27c-6.86-6.83-30.79-6.31-40.38-5.29-23.16,2.47-23.15,37.12-2.33,40.07,6.17.88,31.46.88,36.7-.83,13.08-4.28,14.91-25.07,6-33.96Z"/>
  <path class="cls-7" d="M338.46,833.91c1.71.64,7.94,5,8.52,6.09,1.28,2.39,1.77,15.35,1.22,18.26-.97,5.13-6.21,11.06-9.74,14.61-13.43-5.32-30.34-5.24-43.83,0-4.23-4.38-7.02-8.38-8.52-14.61s-2-12.6,1.22-18.26c1.67-2.94,4.14-4.91,7.3-6.09,5.83-2.16,31.07-1.91,38.44-1.27,2.41.21,3.24.47,5.39,1.27ZM310.04,845.05c-6.45,2.1,2.94,11.1,6.08,13.02,2.76.76,9.83-7.82,10.06-9.12.92-5.07-13.24-4.84-16.14-3.9Z"/>
  <path class="cls-20" d="M338.46,872.86c-3.64,3.66-4.33,5.19-9.74,7.3-8.31,3.26-16.02,3.24-24.35,0-4.36-1.69-6.7-4.15-9.74-7.3,13.49-5.24,30.4-5.32,43.83,0Z"/>
  <path class="cls-20" d="M364.03,857.04c-3.2,1.28-6.38,1.13-9.74,1.22-2.03.05-4.06-.04-6.09,0,.55-2.91.06-15.87-1.22-18.26,7.63-.33,19.17-1.45,19.57,9.16.15,4.06-2.29,5.91-2.52,7.89Z"/>
  <path class="cls-20" d="M287.33,839.99c-3.22,5.66-2.7,12.15-1.22,18.26-2.43-.07-4.88.1-7.3,0-3.75-.15-6.49-.04-9.74-2.43-.04-1.38-1.37-3.73-1.31-6.68.21-11.73,10.95-8.94,19.58-9.14Z"/>
  <path class="cls-13" d="M328.72,880.17c.11,21.56-23.41,21.24-24.35,0,8.33,3.24,16.04,3.26,24.35,0Z"/>
  <path class="cls-20" d="M364.03,874.08c.35.12,4.17,5.3,4.39,6.06,3.98,13.68-22.83,16.61-17.52-1.55.16-.54,3.13-4.41,3.39-4.51.63-.22,9.12-.22,9.74,0Z"/>
  <path class="cls-20" d="M278.81,874.08c1.37.48,4.85,6.48,4.64,8.83-1.09,12.26-21.09,11.51-17.8-3.08.53-2.36,3.1-4.29,3.42-5.75,2.6.5,7.7-.72,9.74,0Z"/>
  <path class="cls-7" d="M354.29,815.64c.24-6.43,1.38-16.41,1.22-21.91,15.16.66,13.56,22.45-1.22,21.91Z"/>
  <path class="cls-7" d="M278.81,815.64c-15.28-1.84-14.87-20.55,0-23.13-.48,6.96-.36,16.11,0,23.13Z"/>
  <path class="cls-5" d="M278.81,858.25v15.83c-2.04-.72-7.14.5-9.74,0,.82-3.64.14-13.79,0-18.26,3.25,2.39,5.99,2.28,9.74,2.43Z"/>
  <path class="cls-5" d="M364.03,857.04c-.64,5.31.45,11.59,0,17.04-.62-.22-9.11-.22-9.74,0v-15.83c3.36-.09,6.54.06,9.74-1.22Z"/>
  <path class="cls-19" d="M105.92,525.91c.03.4-.03.81,0,1.22.31,3.78.97,7.86,1.22,10.96.32,4.06.94,8.52,1.22,12.17.31,4-.3,8.17,0,12.17.37,4.88.87,9.71,1.22,14.61.27,3.8,1,7.73,1.22,10.96.3,4.43.95,9.35,1.22,13.39.21,3.22-.18,6.52,0,9.74.66,11.87,6.12,22.83-11.55,21.99-3.81-.18-5.12-2.17-7.93-3.73l3.66-.61c-.19-3.67.25-7.38.04-11.05-.09-1.57-1.26-2.79-1.27-2.95-1.3-30.27-3.27-60.45-4.86-90.71-.29-5.45.17-10.98-.01-16.42,4.65-1.69,9.13-.88,13.51,1.7,2.59,5.26,1.84,11.12,2.31,16.56Z"/>
  <path class="cls-25" d="M90.09,507.65c.18,5.45-.27,10.97.01,16.42,1.59,30.26,3.56,60.44,4.86,90.71-3.85-.73-9.58,2.55-12.69,2.46-.76-.02-.68-3.42-3.13-2.46-.83-22.84,3.41-52.57,4.92-76.04.48-7.49-1.3-22.27,1.78-28.67.95-1.97,2.67-1.84,4.26-2.42Z"/>
  <path class="cls-19" d="M180.19,522.26c-2.25,7.21-.6,14.97.15,22.37,1.96,19.37,4.48,40.37,7.33,59.63.59,3.97.77,8.58,3.48,11.74-4.14.72-27.76-4.91-30.99-7.35-.64-.48-.44-2.2-.67-2.39,1.13.07,1.7-.78,2.43-1.22s1.69-.73,2.43-1.22c2.48,2.71,5.33.02,6.09,0,.4,0,.81.03,1.22,0,.33-.02,4.36,2.39,6.13-.67.17-4.6-3.19-5.12-6.13-6.63-6.88-3.54-2.95-1.47-8.18-.31-1.43.32-2.5-.94-2.77-.9,1.62-3.02.65-6.99,1.22-9.74.21-1.02,2.26-2.65,2.43-3.65,3.08-.42,15.17-5.76,15.84-8.17,1.97-7.07-3.16-11.83-9.75-12.54l8.61-6.91-1.35-8.86c-6.51,1.62-5.73-2.25-6.04-2.49l1.09-6.52c-.83-2.53-2.98-1.68-4.74-2-2.48-8.13,4.62-14.26,12.17-12.17Z"/>
  <path class="cls-22" d="M180.19,522.26c.28.08,2.81,3.21,4.95,3.14l10.62,86.64c.35,1.92-3.06,3.69-4.61,3.96-2.71-3.16-2.89-7.77-3.48-11.74-2.85-19.25-5.37-40.26-7.33-59.63-.75-7.4-2.4-15.16-.15-22.37Z"/>
  <path class="cls-9" d="M136.36,602.6c.23.48-.16,1.71,0,2.43v1.22c-.98.61-2.15,4.12-4.52,4.72-2.62.65-4.41-1.94-5.83-1.88-1.22.05-3.36,3.14-6.2,3.29s-4.55-3.24-7.8-1.25c-.18-3.22.21-6.52,0-9.74,3.69,3.2,5.01-2.42,7.88-2.44,1.87-.01,3.59,2.06,4.88,1.99,2.93-.15,7.94-5.88,11.59,1.66ZM125.4,607.47c.31-2.27,0-4.21-2.42-4.86v4.86s2.42,0,2.42,0Z"/>
  <path class="cls-15" d="M168.01,534.43c1.76.32,3.91-.53,4.74,2l-1.09,6.52c-.2-.15-3.02,1.29-4.87,1.22-7.39-.3-14.79-1.63-20.7-4.87l2.28-1.36-1.06-3.51c.24-.12.46-1.47,1.23-1.83,2.48-1.17,15.62,1.13,19.46,1.83Z"/>
  <path class="cls-15" d="M171.67,596.52c1.77,2.29.82,4.82,0,7.3-.4.03-.81,0-1.22,0l-4.3-2.22c-1.12.2-1.35,1.94-1.79,2.22-.75.49-1.67.76-2.43,1.22l-4.26-6.1-1.83,6.1c-.35-.14-.85.13-1.22,0-2.06-.74-4.25-1.05-6.09-2.43.44-1.13.52-2.51,1.22-3.64h-2.43c2.46-2.16,9.27-3.18,13.39-3.66.28-.03,1.34,1.22,2.77.9,5.23-1.15,1.31-3.23,8.18.31Z"/>
  <path class="cls-12" d="M79.14,614.78c2.45-.96,2.37,2.44,3.13,2.46,3.11.09,8.84-3.19,12.69-2.46,0,.16,1.18,1.38,1.27,2.95.2,3.66-.23,7.38-.04,11.05l-3.66.61c-1.81-1-11.74-7.09-12.27-7.82-1.66-2.25-1.03-4.34-1.12-6.79Z"/>
  <path class="cls-9" d="M115.66,529.56h7.31s1.21,8.52,1.21,8.52c-2.53-.02-2.19,2.26-7.3,0-.91-2.42-1.38-6.41-2.43-8.52h1.22Z"/>
  <path class="cls-9" d="M126.62,530.78h7.31c.38,2.97-1.93,5.95,0,8.52-.32.07-.94,1.26-2.98,1.31s-3.19-1.12-4.32-1.31c1.09-1.27-.55-7.05-1.22-8.52h1.22Z"/>
  <path class="cls-24" d="M125.4,530.78c.67,1.47,2.31,7.25,1.22,8.52-.7-.12-1.8-1.21-2.43-1.22l-1.21-8.53h-7.31c2.18-4.33,7.79-3.07,9.74,1.23Z"/>
  <path class="cls-25" d="M147.32,534.43l1.06,3.51-2.28,1.36c-2.59-1.42-6.92-1.7-9.74-1.22-.15-1.15.23-2.61,0-3.65,4.39-.46,6.79,2.04,10.96,0Z"/>
  <path class="cls-24" d="M114.44,529.56c1.06,2.12,1.53,6.1,2.43,8.52-.86-.38-3.33-2.52-3.65-2.43-2.46-1.36-.42-5.52-1.38-7.14l-5.93-1.38c-.03-.4.03-.81,0-1.22,4.04-.37,6.58-.23,8.52,3.65Z"/>
  <path class="cls-7" d="M161.93,605.04c-.74.44-1.31,1.29-2.43,1.22-.15-.12-2.72-.84-3.65-1.22l1.83-6.1,4.26,6.1Z"/>
  <path class="cls-20" d="M154.62,605.04c-2.6,5.52-5.84.35-7.3,0v-1.22c.27-.46,1.08-.86,1.22-1.22,1.84,1.38,4.03,1.69,6.09,2.43Z"/>
  <path class="cls-24" d="M136.36,534.43c.23,1.04-.15,2.5,0,3.65-.77.13-1.69,1.05-2.43,1.22-1.93-2.58.39-5.55,0-8.52h-7.31c3.08-5.4,8.64-1.4,9.74,3.65Z"/>
  <path class="cls-13" d="M147.32,603.82v1.22c-2.06-.49-9.21.13-10.96,1.22v-1.22l10.96-1.22Z"/>
  <path class="cls-13" d="M988.6,410.26c.09,2.43-.07,4.89,0,7.31h7.31c.09,2.42-.07,4.88,0,7.3h7.31c1.97,5.21,2.47,16.93-.61,21.91h-96.18l-1.83-1.83v-19.48c0-1.29,7.13-9.09,8.52-9.13.34-.01,4.18,2.39,6.09,1.22.12.87-.25,1.89.2,2.86.59,1.26,2.03,1.67,3,2.5.68.58.35,1.95.45,1.95h51.13l1.22-4.86h-4.88s.01-2.44.01-2.44c3.5-.26,7.64.47,10.96,0l6.08,6.08-3.65-7.3c2.65-1.53,2.46-2,2.43-4.87,0-.81,0-1.62,0-2.43.27.17.85-.15,1.22,0s.75.94,1.22,1.22ZM998.34,428.52h-37.74v14.61h37.74v-14.61ZM922.57,441.61c5.16-5.17-.79-16.55-8.93-10.75-8.66,6.17,2.32,17.38,8.93,10.75ZM927.73,438.25c.79.79,6.75-.03,6.08-3.02-1.06-4.67-8.86.24-6.08,3.02Z"/>
  <path class="cls-16" d="M988.6,342.08c2.71,5.06.56,12.47,1.21,18.27h7.31c3.56,11.71,3.57,16.1,0,27.99h-1.22c-2.4-.01-6.21-.77-7.14,2s-.32,15.84-.17,19.92c-.47-.27-.86-1.06-1.22-1.22-.89-8.17,2.32-17.57-2.43-24.35,2.05-5.74,2.04-15.04,0-20.7,4.29-7.31,1.66-11.61,2.43-19.48.06-.65.98-1.66,1.22-2.43Z"/>
  <path class="cls-18" d="M956.95,331.13c-.41,5.68-2.15,4.67-3.65,7.3-6.15.96-29.06-1.92-32.6,1.51-.98.95-1.12,3.2-1.49,4.57-1.44,5.32-1.52,9.42-1.2,15.12l-6.11.7c1.02-3.38-.51-11.36.29-16.14,3.3-19.71,30.71-11.34,44.75-13.08Z"/>
  <path class="cls-16" d="M920.42,346.95c-.55,3.43-.51,10.74,1.22,13.39.39.6,2.06.77,2.42,2.15.4,1.53-.1,3.51.01,5.16.03.4-.02.81,0,1.22.03.81-.02,1.62,0,2.43-.81.04-1.63-.07-2.43,0-.64.86.5,11.25-.02,14.04-.46,2.47-2.36,2.83-2.42,3.01h-6.09c-.14-.21-1.88-.03-2.42-.63-1.7-1.91-1.87-20.88-1.22-24.36.46-2.47,2.36-2.83,2.42-3.01l6.11-.7c-.32-5.7-.25-9.81,1.2-15.12l1.22,2.43Z"/>
  <path class="cls-18" d="M997.12,360.34h-7.31c-.65-5.79,1.5-13.2-1.21-18.26-3.97-7.4-16.51-4.24-23.65-4.85l-.7-6.11c12.67,0,29.8-3.52,32.58,13.08.8,4.77-.72,12.8.29,16.14Z"/>
  <path class="cls-25" d="M961.82,331.13c-.36,2.42-3.49,6.75-3.65,9.74-.4.03-.82-.05-1.22,0-1.19.14-1.91,1.07-2.43,1.22-.66.18-1.67-.12-2.43,0,.16-.35-.17-.93,0-1.22.46-.78.77-1.65,1.22-2.43,1.5-2.63,3.24-1.62,3.65-7.3.18-2.45-.04-7.77-1.22-9.74-2.39-4.01-26.49,3.38-31.65,2.43l2.02-3.45c12.74,1.04,39.38-13.63,35.72,10.76Z"/>
  <path class="cls-18" d="M919.21,388.34c-.86,2.87-.1,16.44,0,20.7.02.81-.03,1.63,0,2.43.06,1.61-.13,3.27,0,4.87.03.4-.05.82,0,1.22-1.91,1.17-5.75-1.23-6.09-1.22-.82-4.18,1.1-26.41,0-28h6.09Z"/>
  <path class="cls-9" d="M964.25,331.13l.7,6.11c7.13.61,19.67-2.55,23.65,4.85-.23.77-1.15,1.79-1.22,2.43-2-1.11-3.04-3.16-5.5-3.63-4.78-.91-18.27-.39-23.72-.02.16-2.99,3.29-7.32,3.65-9.74h2.43Z"/>
  <path class="cls-5" d="M1003.21,424.87h-7.31c-.07-2.42.1-4.88,0-7.3-.35-9.7.26-19.51,0-29.22h1.22c-.51,1.7-.44,24.94.02,27.37.57,2.95,4.61,5.3,6.06,9.15Z"/>
  <path class="cls-24" d="M955.73,321.39c-7.96-.4-15.99,3.12-23.76,3.63-1.84.12-7.54.84-7.9-1.2,5.16.94,29.27-6.44,31.65-2.43Z"/>
  <path class="cls-2" d="M796.24,81.56c19.83-.87,38.32,4.55,35.2,28.51-.51,3.93-5,14.4-7.2,17.75-.6.92-4.69,5.56-6.09,7.3-2.18,2.72-6.33,4.59-8.52,8.52-2.5-3.36-1.95-4.51-6.09-6.09.88-1.05,1.53-2.74,2.43-3.65,2.18-2.2,3.84-3.41,6.09-6.09s4.06-3.77,6.09-7.3c11.6-20.23,3.48-30.24-18.26-30.43-2.71-.02-5.93-.28-8.52,0-2.37.26-7.49,1.57-9.74,2.43-.93.36-3.51,1.09-3.65,1.22.44-3.3-.18-6.08-2.43-8.52,3.26.1,7.96-1.96,12.17-2.43,2.9-.33,5.15-1.07,8.52-1.22Z"/>
  <path class="cls-2" d="M764.58,99.83c-6.62.13-16.98,9.69-21.91,13.39-2.54,1.9-5.66,3.44-8.52,6.09-3.91,3.61-4.37,4.88-7.3,8.52-1.9,2.36-2.87,2.75-4.87,6.09-5.21,8.69-8.66,15.51-3.65,25.56-1.35.32-4.55,3.52-4.87,4.87-11.35-8.52-4.07-28.01,2.43-37.74.53-.79,3.99-5.06,4.87-6.09,3.11-3.65,10.67-10.27,14.61-13.39,2.71-2.14,6.99-5.44,9.74-7.3,3.94-2.66,9.07-4.04,13.39-7.3.66-.5,2.09-.81,2.43-1.22-.34,3.46,1.85,5.86,3.65,8.52Z"/>
  <path class="cls-7" d="M796.24,174.09c-2-.12-6.33-.84-8.52-1.22-5.4-.94-12.64-2.82-17.04-6.09,3.18-1.22,8.25-2.33,10.96-3.65,3.17.89,6.65.77,9.74,1.22s4.54,1.18,8.52,1.22c21.59.2,29.99-10.89,18.26-30.43,1.4-1.75,5.49-6.39,6.09-7.3,16.68,27.97,4.35,48.24-28,46.26Z"/>
  <path class="cls-15" d="M742.67,81.56c3.36.15,5.64.9,8.52,1.22,4.14.46,8.35,2.42,12.17,2.43-.4,1.86-1.26,4.68-2.43,6.09-.34.41-1.77.72-2.43,1.22-3.66-.89-7.19-1.97-10.96-2.43-2.56-.31-5.81.02-8.52,0-.16,0-.81-1.07-1.77-1.04-20.61.73-26.76,14.02-16.49,31.47-.88,1.03-4.34,5.3-4.87,6.09-18.9-26.86-4.65-46.47,26.78-45.04Z"/>
  <path class="cls-2" d="M796.24,153.39c-1.53.37-2.11,2.28-2.43,2.43-4.57,2.15-8.92,5.72-12.17,7.3-2.71,1.32-7.78,2.43-10.96,3.65-5.79,2.21-12.13,4.97-18.26,6.09-3.04.55-6.64,1.01-9.74,1.22-4.58.31-10.45.59-14.61-1.22,2.29-2.96,2.22-4.16,1.22-7.3,3.24-.06,6.5.09,9.74,0,3.86-.1,5.65-.82,8.52-1.22,5.33-.73,6.23-1.11,10.96-2.43,4.47-1.25,6.58-1.84,10.96-3.65,3.32-1.37,20.82-9.23,21.91-10.96l4.87,6.09Z"/>
  <path class="cls-15" d="M796.24,174.09c-3.79,9.95-15.88,22.67-27.27,21.9-1.01-.07-1.67-1.15-1.95-1.2h2.43s0-7.3,0-7.3c7.03,0,15.38-8.59,18.26-14.61,2.19.38,6.52,1.09,8.52,1.22Z"/>
  <path class="cls-15" d="M796.24,81.56c-3.38.15-5.62.89-8.52,1.22-3.79-7.68-8.99-14.61-18.26-14.61v-8.52c12.98-.28,22.55,10.7,26.78,21.91Z"/>
  <path class="cls-23" d="M769.45,59.65v8.52c-9.44,0-13.83,7.42-18.26,14.61-2.88-.32-5.16-1.06-8.52-1.22,5.83-10.78,13.24-21.62,26.78-21.91Z"/>
  <path class="cls-23" d="M752.41,172.87c1.82,6.52,10.06,14.61,17.04,14.61v7.31s-2.43-.01-2.43-.01c-13.29-2.33-17.54-10.08-24.35-20.7,3.09-.21,6.7-.66,9.74-1.22Z"/>
  <path class="cls-20" d="M729.28,165.56c1.01,3.14,1.08,4.34-1.22,7.3-5.76,7.43-16.92,1.12-14.61-8.52.32-1.35,3.52-4.55,4.87-4.87,5.61-1.35,9.24.73,10.96,6.09Z"/>
  <path class="cls-23" d="M1066.52,658.6h103.49v34.09h-65.74v28h60.87v32.87h-60.87v29.22h69.4c-.85,10.05,1.17,21.85,0,31.65h-107.15s0-155.82,0-155.82ZM1159.89,667.5c-1.67-1.48-5.25-2.59-7.51-2.85-11.31-1.27-39.82-1.23-51.16.03-14.66,1.63-9.07,11.71-1.81,18.85,7.99,7.86,16.23,2.19,26.11,1.79,8.9-.36,19.57,1.07,28.08.08,9.43-1.1,13.5-11.5,6.29-17.91ZM1079.91,802.25c2.8-.65,14.01-11.03,14.58-14.03l.09-101.08c-.77-5.75-15.03-16.53-19.53-21.24v141.21c3.4.61,3.55-3.17,4.86-4.86ZM1155.02,744.65c4.08-3.74,3.84-11.69-.3-15.36-4.83-4.28-26.5-2.33-34.07-2.46-4.88-.09-11.49-3.34-16.03.32s-4.19,17.22,1.41,20.38c5.02,2.84,8.48,0,13.41-.1,8.07-.18,30.37,1.99,35.58-2.77ZM1105.19,786.7c-5.65,1.43-20.36,18.51-7.36,21.38,6.77,1.5,51.8,1.38,59.33.19,11.29-1.78,11.87-16.72,1.03-19.15-8.47-1.9-24.25.24-33.88-.21-5.34-.25-14.47-3.39-19.11-2.22Z"/>
  <path class="cls-7" d="M1173.66,815.64c.04-.4-.05-.82,0-1.22,1.17-9.8-.85-21.6,0-31.65l1.2-1.22c-.98,5.95,1.88,31-1.2,34.09Z"/>
  <path class="cls-7" d="M1066.52,658.6v155.83s105.92,0,105.92,0l1.22,1.22c-1.62,1.62-2.17,1.13-4.15,1.29l-103.59-.07.02-2.06-1.84.84-.03-156.31,2.46-.73Z"/>
  <path class="cls-24" d="M865.64,781.56c.39.48.75.82,1.22,1.22,1.74,6.13,11.43,7.37,16.92,8.64l.13,15.72c-2.92.25-5.71-.07-8.59-.55-2.12-.35-15.75-4.73-16.98-5.54-.11-.07.28-1.87-.82-2.51-1.3-.75-3.4-.7-4.05-1.14-.4-.27-.75-.86-1.22-1.22s-.78-.86-1.22-1.22-.83-.82-1.22-1.22c-1.47-2.35-8.41-18.5-7.3-19.47l16.24.19c3,.98,2.48,7.46,6.89,7.11ZM858.07,778.18c-2.16-1.24-8.95.31-11.91-.26,3.82,15.09,18.77,25.7,34.09,25.56l-.17-9.58c-5.33-1.9-11.19-3.11-15.59-6.94-2.13-1.86-5.86-8.47-6.42-8.79Z"/>
  <path class="cls-24" d="M916.77,668.34c.37.36.96.91,1.22,1.22.29.65-.34,2.3.62,3.64.88,1.23,2.74.97,3.04,1.23.99,2.37,5.82,16.08,4.87,17.04l-15.02.06c-1.06-5.17-5.38-5.81-6.9-7.36-.39-.47-.73-.85-1.22-1.22-.23-.2,0-1.77-.66-2.39-3.42-3.27-10.48-5.18-15.17-4.91v-17.04c10.89.65,17.66,3.79,26.47,9.44.8.51,2.24.06,2.75.3ZM924.07,689.03c-4.4-14.8-17.78-27.93-34.09-26.78l.13,10.85c9.71.95,18.63,6.42,21.98,15.75l11.99.18Z"/>
  <path class="cls-24" d="M938.69,699.99h-36.52c-2.94-35.17-53.93-4.57-24.41,11.63,22.14,12.15,51.86,7.77,59.41,41.64,16.36,73.38-103.93,88.27-105.61,12.47h37.74c-1.27,16.77,25.13,23.71,31.39,7.66,7.21-18.49-23.52-22.91-35.02-27.76-15.31-6.46-28.96-15.94-32.6-33.14-7.91-37.3,23.56-65.86,59.83-62.26,28.35,2.82,42.8,22.78,45.8,49.77ZM916.77,668.34c-9.74-9.6-18.29-10.7-31.65-12.17v21.91c5.52-.67,13.89,1.53,18.26,4.87.37.32.85.84,1.22,1.22,2.03,2.45,2.66,7.43,5.48,9.74h18.87c.5-6.76-2.37-15.03-7.3-19.48-1.61-3.86-1.93-2.79-3.65-4.87-.11-.24-.97-1.1-1.22-1.22ZM871.32,659c-4.86.1-13.99,5.63-17.76,8.84-15.76,13.42-20.45,40.39-7.41,57.11,13.5,17.3,46.94,18.88,55.8,33.08,12.72,20.4-17.6,28.56-11.04,43.91,5.95,13.95,26.36-2.94,31.92-10.06,13.58-17.38,11.69-44.45-6.16-58.3-14.35-11.13-48.57-12.41-50.93-31.87-1.95-16.12,13.67-18.62,14.53-30.35.46-6.32-1.65-12.5-8.95-12.36ZM849.81,793.73c.28.45.91.78,1.22,1.22s.86.79,1.22,1.22.82.81,1.22,1.22c2.59,2.6,2.5,2.03,4.87,3.65,8.42,5.75,15.91,9.07,26.78,8.52v-20.7c-4.93.33-14.63-2.99-18.26-6.09l-1.22-1.22c-1.02-1.27-3.1-6.57-3.65-8.52h-21.91c1.3,8.96,3.4,14.32,9.74,20.7Z"/>
  <path class="cls-24" d="M1232.1,611.12c2.36,2.85,3.77,10.03,7.3,9.74.66,1.96.67,4.66,1.22,6.09,2.18,5.64,4.69,10.94,7.53,16.27.91,1.71.48,3.85,3.43,3.2,1.07,2.65,1.58,6.27,2.43,8.52,1.52,4,3.08,7.63,5.09,11.41.91,1.71.48,3.85,3.43,3.2,1,2.78,1.58,5.98,2.43,8.52,1.94,5.77,4.02,9.24,6.1,14.61,4.63.19,4.03-4.69,4.86-7.31s1.39-5.7,2.43-8.52c2.95.65,2.52-1.5,3.43-3.2,2.75-5.12,4.25-8.7,6.31-13.84,1.68-4.19,3.15-9.08,4.87-13.39,2.69.31,5.38-5.8,6.3-7.71,1.8-3.72,2.2-5.85,3.44-9.34.85-2.4,1.47-5.81,2.43-8.52,3.25.48,4.78-4.56,4.87-7.3.15-.13-.66-2.96,1.74-2.54l39.64.11c.72,1.7-1.21,3.64-1.21,4.25v156.43h-40.79c-.34,0-2.47,2.44-3.06.59,1.86-17.93,1.69-37.22,1.24-55.37-.04-1.41.52-6.07-.61-6.1-1.78,1.3-1.28,4.43-1.83,6.1-4.18,12.72-11.72,26.36-17.04,38.96h-2.42s-.01,3.65-.01,3.65c-.44.86-.54,2.33-1.22,3.65l-2.44.02,1.22,1.2c.09,2.33-3.38,10.11-4.87,12.17l-10.82-.14c-6.88-14.92-12.68-30.55-19.77-45.36-1.43-3-2.71-6.51-5.93-8.07-.21-.65.2-1.76,0-2.43-1.19-3.98-2.6-9.48-6.08-12.17v63.3h-41.41c-.03-.81.04-1.63,0-2.43h1.22c12.43,2.75,26.17.49,38.97,1.22v-69.4c1.13.48,6.48,12.95,8.52,15.83l25.44,57.68c6.27,3.18,7.48-1.72,9.69-6.12,8.04-16.04,26.7-51.69,30.62-67.39.45.37.86.77,1.22,1.22v68.17h37.74v-157.04h-34.7l-40.79,84c-.81-1.53-2.75-3.36-3.65-4.87l-36.47-78.57-36.58-.56h-1.22l1.22-2.43c12.11.19,24.42.27,36.52,0Z"/>
  <path class="cls-16" d="M1195.58,611.12l-1.22,2.43c2,51.34-2.68,104.72,0,155.82.04.81-.03,1.63,0,2.43h41.39v-63.3c3.49,2.69,4.9,8.2,6.09,12.17l-3.64-2.43c-1.04,6.72,1.45,51.31-.3,53.33-.5.58-1.99.07-2.15.23-.31.31,1.09,2.17-1.74,2.54-3.96.51-37.93.9-39.43-.39-.58-.5-.07-1.99-.23-2.15-.2-.2-2.91.68-2.54-1.74l.05-155.97,1.26-3.66c1.22-1.36,2.27.67,2.45.67Z"/>
  <path class="cls-16" d="M1241.84,723.12c3.22,1.55,4.5,5.07,5.93,8.07,7.08,14.81,12.89,30.44,19.77,45.36l10.82.14c-2.28,3.16-7.96,3.42-11.37,2.24-1.11-.38-6.04-9.02-6.89-10.76-6.73-13.85-13.5-30.3-18.26-45.04Z"/>
  <path class="cls-16" d="M1264.97,678.08c4.08-.74,4.93,8.63,6.11,9.73l4.85-2.43c-.83,2.62-.23,7.5-4.86,7.31-2.08-5.37-4.16-8.84-6.1-14.61Z"/>
  <path class="cls-16" d="M1240.62,626.95c2.95-.65,2.52,1.5,3.43,3.2,2.86,5.33,5.27,10.67,7.53,16.27-2.95.65-2.52-1.49-3.43-3.2-2.84-5.33-5.35-10.64-7.53-16.27Z"/>
  <path class="cls-16" d="M1302.71,629.39c-1.24,3.49-1.65,5.62-3.44,9.34-.92,1.91-3.61,8.01-6.3,7.71,1.92-4.79,3.89-9.27,6.31-13.84.91-1.71.48-3.85,3.43-3.2Z"/>
  <path class="cls-16" d="M1288.11,659.82c-2.06,5.14-3.56,8.72-6.31,13.84-.91,1.7-.49,3.85-3.43,3.2,1.8-4.84,3.89-9.29,6.31-13.84.91-1.71.48-3.85,3.43-3.2Z"/>
  <path class="cls-16" d="M1254.02,654.95c2.95-.65,2.52,1.5,3.43,3.2,2.05,3.82,3.62,7.32,5.09,11.41-2.95.65-2.52-1.5-3.43-3.2-2.01-3.78-3.57-7.41-5.09-11.41Z"/>
  <path class="cls-16" d="M1239.41,620.86c-3.53.29-4.95-6.89-7.3-9.74.12,0,.77-1.33,1.65-1.1l1.38,1.06c1.91,3.11,3.12,6.35,4.28,9.78Z"/>
  <path class="cls-16" d="M1310.02,613.56c-.09,2.75-1.62,7.78-4.87,7.3.77-2.16,1.15-4.48,2.41-6.47.71-1.12,2.28-.68,2.46-.83Z"/>
  <path class="cls-16" d="M1307.58,717.04h-2.43c.55-1.67.04-4.8,1.83-6.1,1.13.03.57,4.69.61,6.1Z"/>
  <path class="cls-16" d="M1288.11,755.99c-1.1,2.59-2.17,3.14-2.43,3.65v-3.64s2.43,0,2.43,0Z"/>
  <path class="cls-16" d="M1284.45,763.3c-.24.48-.82.85-1.22,1.22l-1.22-1.2,2.44-.02Z"/>
  <path class="cls-22" d="M976.43,768.17c-4.25-4.27.72-106.44-1.22-120.52h-34.09c.4-1.2-1.22-2.64-1.22-3.04v-32.87l1.83-1.83h111.4v34.7c0,.4-1.61,1.85-1.22,3.04h-34.09v121.74c-12.29-.98-26.42,1.29-38.48.07-1.7-.17-1.74-.1-2.92-1.28h38.97s1.21-122.96,1.21-122.96c1.63.49,32.47.54,34.09,0,1.68-.13,1.12-1.79,1.27-2.98.7-5.65.68-21.22,0-26.91-.21-1.77-.15-3.13-1.89-4.2h-108.97l-.03,32.32,1.25,1.76h34.09v122.96Z"/>
  <path class="cls-14" d="M1373.04,486.05c55.95-7.59,81.66,61.42,36.24,91.02-37.23,24.26-85.73-9.99-75.56-53.64,4.19-17.97,20.67-34.85,39.32-37.38ZM1386.11,508.86c-6.57-1.09-15.63.8-22.52,0v52.35h8.52v-20.7l7.12.2c5.36,8.86,7.7,23.9,20.88,20.49l-12.16-21.3c17.25-4.7,15.62-28.14-1.83-31.04Z"/>
  <path class="cls-2" d="M1098.18,1119.99l9.2,1.14,4.8,30.52,4.79-30.53,9.21-1.14v46.26l-6.09-1.83v-28c0-1.07,3.52-3.62-1.21-3.04l-3.86,30.84-1.75,1.9-4.12.14c-1.48-9.72-2.16-19.82-4.02-29.48-.26-1.37-.24-4.83-2.07-4.62v34.09h-4.87v-46.26Z"/>
  <path class="cls-23" d="M842.5,1121.21l8.47.06c1.25,6.81,2.54,14.91,4.76,21.41.55,1.6.35,3.72,2.6,4.1v-25.56h4.87v43.83l-6.23-.71c-2.66-9.23-4.56-18.71-7.16-27.96-.55-1.94,1.33-3.6-2.44-2.99v31.65h-4.87v-43.83Z"/>
  <path class="cls-23" d="M697.62,1121.21l8.47.06c1.25,6.81,2.54,14.91,4.76,21.41.55,1.6.35,3.72,2.6,4.1v-25.56h4.87v43.83l-6.75-1.16c-1.98-9.22-4.25-18.4-6.62-27.52-.52-2.02,1.25-3.55-2.46-2.97v31.65h-4.87v-43.83Z"/>
  <polygon class="cls-21" points="1010.52 1059.12 1018.88 1059.28 1026.34 1085.9 1026.34 1059.12 1032.43 1059.12 1032.43 1104.16 1025.25 1104.04 1016.6 1072.51 1016.6 1104.16 1010.52 1104.16 1010.52 1059.12"/>
  <path class="cls-23" d="M896.07,1158.34c-1.45,8.26-13.4,10.96-18.3,4.91-3.58-4.42-3.59-34.74-.5-39.53,6.28-9.76,22.56-1.03,18.81,10.89h-6.1s-.52-7.39-.52-7.39l-6.91-.42c-1.94,2.72-1.61,32.03.29,33.21,2.27.49,6.11.78,6.98-1.83l.25-10.73-3.59-.75-.15-6.01h9.74c-.65,5.4.9,12.55,0,17.66Z"/>
  <rect class="cls-25" x="883.9" y="1147.98" width="3.64" height="9.75"/>
  <polygon class="cls-2" points="1040.95 1119.99 1040.95 1139.47 1049.48 1139.47 1049.48 1119.99 1055.56 1119.99 1055.56 1166.25 1049.48 1166.25 1049.48 1145.55 1040.95 1145.55 1040.95 1166.25 1034.87 1166.25 1034.87 1119.99 1040.95 1119.99"/>
  <path class="cls-23" d="M652.57,1158.34c9.41,6.59,8.76-3.62,8.6-10.9l-3.59-.74-.15-6.01h9.75c-.22,6.2,1.68,21.48-5.16,24.67-4.57,2.13-11.56,1.16-14.18-3.5-2.09-3.71-1.91-26.09-1.41-31.57,1.59-17.44,23.35-12.07,20.76,4.32h-6.08s-1.38-8.36-1.38-8.36l-7.15,1.66v30.43Z"/>
  <path class="cls-25" d="M658.66,1157.74h-3.64s0-9.74,0-9.74c5.21-.09,3.48,6.15,3.64,9.74Z"/>
  <polygon class="cls-4" points="983.73 1059.12 983.73 1077.38 991.04 1077.38 991.04 1059.12 998.34 1059.12 998.34 1104.16 991.04 1104.16 991.04 1084.69 983.73 1084.69 983.73 1104.16 976.43 1104.16 976.43 1059.12 983.73 1059.12"/>
  <path class="cls-21" d="M1139.57,1060.34c12.26-4.16,19.3.33,18.27,13.4h-6.09s-2.07-8.64-2.07-8.64c-1.56-1.7-6.46.79-6.46,1.94v29.22c0,.63,2.94,3.07,4.26,3.08,4.78.04,4.94-8.3,4.28-11.65-.59-3.01-5.85-3.15-3.68-9.09l7.75.17c3.06.99,2.3,13.2,1.88,16.15-1.92,13.65-19.18,13.85-20.61,1.36-.64-5.57-.69-32.79,2.46-35.94Z"/>
  <rect class="cls-25" x="1145.66" y="1087.11" width="3.64" height="9.75"/>
  <path class="cls-24" d="M703.71,1096.25c.29.97,1.93,1.79,3.05,1.9,6.14.64,4-6.89,4.25-11.04h6.1c1.16,10.26-1.43,19.69-13.75,16.78-2.08-.49-3.93-1.69-4.83-3.68-1.39-3.03-1.6-34.48-.27-37.43.76-1.68,4.47-4.24,6.34-4.65,10.37-2.29,13.94,6.73,12.51,15.6l-5.55-1.14-1.66-8.08-4.22-.41-1.96,1.71v30.43Z"/>
  <path class="cls-24" d="M680.59,1071.3c.68-4.32-2.41-9.64-6.72-6.1-6.33,5.89,9.18,15.83,11.46,21.43,8.27,20.4-21.41,25.58-19.36,4.14h6.1c-2.64,9.67,9.06,9.25,8.33,2.15-.97-9.32-17.46-12.51-13.89-27.78,1.98-8.47,13.85-10.19,18-3.24,2.89,4.84,3.74,10.6-3.91,9.4Z"/>
  <path class="cls-14" d="M678.13,1073.73c-3.11-.94-2.44-4.63-2.41-7.3,3.11.94,2.44,4.63,2.41,7.3Z"/>
  <rect class="cls-14" x="674.5" y="1089.56" width="2.42" height="6.07"/>
  <path class="cls-24" d="M825.46,1073.74c2.76-7.08-6.01-14.12-8.28-6.45-.98,3.32-.58,29.56,1.14,30.61h5.74s1.39-10.79,1.39-10.79h6.1c.05,5.1-.51,14.7-6.02,16.51-6.71,2.2-13.44-.04-14.62-7.44-.77-4.86-.82-26.82.19-31.32,1.9-8.5,14.5-9.38,18.52-2,2.71,4.98,3.59,12.45-4.17,10.87Z"/>
  <path class="cls-4" d="M963.04,1060.34l2.44,13.4h-6.1c-.12-2.35.99-7.46-1.94-8.43l-5.36,1.73v31.04l4.08.97,2.1-1.48,1.12-9.24h6.1c4.47,19.41-18.87,24.68-20.75,4.31-.57-6.13-.66-22.69,1.3-28.01,2.92-7.93,10.41-5.93,17.01-4.3Z"/>
  <path class="cls-2" d="M1238.19,1122.42l1.22,13.4h-6.1s-1.12-9.22-1.12-9.22l-4.22-.41-1.96,1.71v30.43c7.78,5.94,7.92-2.71,7.3-9.14h6.1c-.37,3.53.71,7.99-.26,11.32-2.38,8.2-17.91,8.29-19.29-2.12-.56-4.23-.62-29.46.32-32.68,1.94-6.64,14.8-7.66,18.01-3.29Z"/>
  <polygon class="cls-4" points="935.03 1059.12 935.04 1065.21 922.84 1065.91 922.85 1077.39 932.62 1078.08 932.6 1083.47 922.85 1083.46 922.85 1098.08 935.04 1098.07 935.03 1104.16 915.55 1104.16 915.55 1059.12 935.03 1059.12"/>
  <path class="cls-23" d="M749.97,1119.99v6.09s-12.18-.01-12.18-.01v13.4s9.75-.01,9.75-.01l.02,5.39-9.77.7.54,13.47,11.65,1.13v6.09h-17.66c-1.74-1.07-1.68-2.43-1.89-4.2-.93-7.96-.93-29.9,0-37.86.21-1.77.15-3.13,1.89-4.2h17.65Z"/>
  <polygon class="cls-24" points="765.8 1059.12 765.81 1063.98 754.16 1065.13 753.62 1077.39 763.39 1078.08 763.37 1083.47 753.62 1083.46 753.62 1098.08 765.81 1098.07 765.8 1104.16 747.54 1104.16 747.54 1059.12 765.8 1059.12"/>
  <polygon class="cls-24" points="860.77 1059.12 860.77 1063.98 849.12 1065.13 848.58 1077.39 858.35 1078.08 858.34 1083.47 848.58 1083.46 848.58 1098.08 860.77 1098.07 860.77 1104.16 842.5 1104.16 842.5 1059.12 860.77 1059.12"/>
  <path class="cls-6" d="M1085.39,1119.99l1.83,6.08-12.2.71.02,12.7c1.24,1.24,15.69-3.48,7.75,5.91l-7.75.17v14.62s12.19,0,12.19,0l-1.83,6.08h-17.65v-46.26h17.65Z"/>
  <polygon class="cls-23" points="601.44 1119.99 601.45 1126.08 589.26 1126.07 589.26 1139.47 599.01 1139.46 599.03 1144.85 589.26 1145.55 589.8 1159.02 601.45 1160.16 601.44 1166.25 583.18 1166.25 583.18 1119.99 601.44 1119.99"/>
  <path class="cls-23" d="M779.19,1119.99v6.09s-11.04.53-11.04.53c-3.17,9.87-2.13,13.66,8.62,13.56v5.4s-9.77-.01-9.77-.01l.18,12.62,1.83,1.83,10.19.16v6.09h-18.27v-46.26h18.26Z"/>
  <path class="cls-23" d="M790.15,1121.82c1.06-3.42,18.38-3.21,20.45,3.9.62,2.15.66,9.63.23,11.9-.52,2.69-3.61,4.52-3.61,4.89s3.09,2.21,3.61,4.89c1.1,5.69-1.33,12.93,1.24,18.84l-6.77-1.13-.73-16.31-7.1-3.24v20.7l-7.3-1.83v-42.61ZM797.46,1139.47c2.37-.04,6.2.81,7.13-2,.96-6.28.67-12.35-7.12-11.4v13.4Z"/>
  <path class="cls-2" d="M1267.41,1121.21l2.44,10.96-6.05-.05-1.99-5.94c-13.97,1.82.74,12.91,4.34,17.59,16.09,20.91-17.47,34.92-15.8,9.09h6.09c-.56,5.11.29,8.98,6.17,6.79,6.18-10.16-9.57-15.63-11.72-22.54-.92-2.95-1-12.38.67-14.68,2.4-3.29,12.16-2.82,15.83-1.22Z"/>
  <path class="cls-14" d="M1261.31,1128.52l-.6,6.07c-2.06-1.45-2.02-3.75-1.83-6.07h2.42Z"/>
  <rect class="cls-14" x="1258.89" y="1152.87" width="2.42" height="4.86"/>
  <path class="cls-24" d="M782.85,1104.16c-3.08.14-5.4.56-6.09-3.04-2.22-11.53,1.66-29.71,0-42.01l9.69.06,5.23,23.38.91.3v-23.74l6.09-1.22v46.26l-6.73-1.19c-2.63-8.8-4.16-18.01-6.67-26.81-.43-1.51-.53-3.93-1.83-4.88-1.14.03-.56,3.6-.61,4.88-.11,3.23.02,6.5,0,9.74-.03,5.5-.69,13.13,0,18.26Z"/>
  <path class="cls-13" d="M785.28,1076.16h-2.43c.05-1.28-.53-4.85.61-4.88,1.3.95,1.4,3.37,1.83,4.88Z"/>
  <path class="cls-4" d="M1174.88,1081.64c-.48-3.05-8.81-21.1-7.3-22.51l6.71,1.19,4.85,14.64,4.85-14.64,6.71-1.19-8.52,24.94v20.09h-7.3c-.77-6.95,1.05-15.86,0-22.52Z"/>
  <path class="cls-6" d="M931.38,1121.21c2.46-.33,6.14-2.45,9.67-1.14l4.93,31.57,4.19-30.51,10.43-1.14v46.26l-7.3-1.83v-28.61l-3.65,25.56-1.91,4.94-5.33-.15-4.93-30.36-.18,28.43c-.93,2.78-3.84,1.74-5.92,2v-45.04Z"/>
  <path class="cls-6" d="M1160.27,1166.25l-6.03-.07-1.98-9.75-7.76.14-1.34,9.61-6.02.06,8.05-46.32c2.87.28,7.53-1.16,8.76,2.13l6.33,44.21ZM1151.75,1150.43c.58-.58-1.11-11.86-1.42-13.81s-.45-7.33-2.23-8.1l-2.45,21.91h6.1Z"/>
  <path class="cls-6" d="M993.48,1166.25l-6.08-.02-1.36-9.59-8.38-.12-1.36,9.59-5.95.13,8.05-46.32c2.87.28,7.53-1.16,8.76,2.13l6.32,44.21ZM984.96,1150.43c.54-.53-1.06-12.94-1.39-15.05-.26-1.62-.43-6.61-2.25-6.86l-2.45,21.91h6.1Z"/>
  <polygon class="cls-4" points="905.81 1059.12 905.82 1065.21 898.51 1065.21 898.51 1104.16 891.2 1104.16 891.2 1065.21 883.89 1065.21 883.9 1059.12 905.81 1059.12"/>
  <polygon class="cls-2" points="1023.91 1119.99 1023.92 1126.08 1016.6 1126.08 1016.6 1166.25 1010.52 1166.25 1010.52 1126.08 1003.21 1126.08 1003.21 1119.99 1023.91 1119.99"/>
  <path class="cls-4" d="M1050.34,1059.39c4.76-1.08,11.12-.57,13.43,4.3s2.28,27.82,1,33.25c-2.84,12.03-19.39,11.33-21.28-2.02-1.08-7.6-2.32-33.45,6.84-35.54ZM1050.69,1067.03v30.43l3.05,1.87c1.25.08,4.26-2.54,4.26-3.09v-29.22c0-1.99-6.42-2.95-7.3,0Z"/>
  <path class="cls-4" d="M1114.83,1058.3c8.33-.13,10.78,6.46,11.4,13.56.92,10.5,2.96,38.63-14.72,32.98-9.71-3.1-8.81-31.58-6.43-39.43,1.35-4.47,5.14-7.04,9.76-7.11ZM1112.79,1096.86c2.46,4.12,5.31,2.01,6.05-1.86.67-3.51.68-23.19.03-26.75-.69-3.76-5.15-4.23-6.75-1.89-1.36,1.99-.95,27.78.67,30.49Z"/>
  <path class="cls-4" d="M1077.48,1104.16c-1.19-1.19-1.1-1.22-1.28-2.92-1.43-13.09,1.2-28.75.06-42.13h7.31v38.96c3.62.42,8.16-1.26,10.96,1.22v3.65c-.15.33.11.85,0,1.22h-17.04Z"/>
  <path class="cls-13" d="M1094.52,1104.16c-1.91,1.92-14.94,2.11-17.04,0h17.04Z"/>
  <path class="cls-13" d="M1094.52,1102.95v-3.65c2.37,2.1.73,1.97,0,3.65Z"/>
  <polygon class="cls-6" points="1190.71 1119.99 1190.71 1126.08 1183.4 1127.9 1183.4 1166.25 1176.1 1164.42 1176.1 1126.08 1168.78 1126.08 1168.79 1119.99 1190.71 1119.99"/>
  <polygon class="cls-23" points="824.24 1119.99 830.34 1119.98 830.35 1165.55 824.24 1166.25 824.24 1119.99"/>
  <path class="cls-15" d="M824.24,1166.25c-2.02-1.26-1.22-4.62-1.24-6.68-.12-10.95-.14-21.96,0-32.9.03-2.06-.78-5.41,1.24-6.68v46.26Z"/>
  <rect class="cls-23" x="678.14" y="1119.99" width="7.3" height="46.26"/>
  <path class="cls-24" d="M735.36,1057.9v46.26h-7.3v-44.43c1.68-2.46,4.69-1.87,7.3-1.83Z"/>
  <rect class="cls-6" x="1200.45" y="1119.99" width="7.3" height="46.26"/>
  <path class="cls-23" d="M618.49,1166.25l-6.11-.7.02-45.56,9.17,1.19,6.06,24.39.6-25.58c2.01-.14,4.1.19,6.09,0v46.27c-1.7-.09-3.71.34-5.31-.18-3.6-1.18-7.22-27.91-9.91-32.71-1.64,0-.91,30.64-.61,32.88Z"/>
  <path class="cls-8" d="M552.74,527.13c-.19-.17-.03-2.74-1.75-4.92-9.07-11.54-57.12-24.66-73.34-32.6-67.38-33-63.37-117.18,5.25-146.12,42.93-18.11,93.2-10.13,135.17,6.85,37.6-18.49,71.7-6.29,77.07,37.46.24,1.92.2,2.01-1.77,1.76l-30.47-17.81-21.39,12.26-1.77,26.25,31.08,18.29c2.28,2.37-6.13,3.9-7.32,4.23-25.2,7.11-47.41.19-57.79-24.97-2.28-5.52-4.6-21.06-6.76-23.68-3.77-4.57-29.77-14.18-36.47-15.88-39.5-10-97.89-2.95-102.33,47.45-4.77,54.25,41.67,56.49,78.78,73.48,15.48,7.09,37.75,18.15,36.92,37.95h-23.13Z"/>
  <path class="cls-10" d="M538.74,418.78c1.21.34,4.19,5.68,6.09,7.3,21.73,18.56,55.69,22.37,80.12,36.76,48.46,28.55,60.58,87.54,23.38,131.25-43.12,50.67-118.19,41.83-168.72,7.68l15.92-34.48c35.72,15.06,72.43,31.34,108.23,6.58,39.57-27.36,39.51-78.83-5.54-100.15-29.38-13.91-75.9-15.2-82.01-54.96h22.52Z"/>
  <path class="cls-10" d="M493.08,507.66c-4.1,3.69-9.95,4.69-14.98,7.54-10.08,5.71-27.72,22.78-24.97,35.39,1.99,9.14,20.5,8.03,14.37,20.33l14.53,6.22-4.88,13.21c-2.63,1.87-13.8-7.64-16.75-5.8-.46.29-.56,2.27-1.38,2.81-6.45,4.26-16.34-8.71-25.92-3.95-10.29,5.11-4.14,24.53-12.63,32.68l-28.45-12.29c-.56-.75,4.82-11.48,6.05-12.8,3.39-3.62,10.22-5.18,13.15-11.2,3.44-7.08-.41-12.45.78-17.37,1.09-4.48,12.42-25.01,15.53-29.62,15.07-22.32,39.87-28.29,65.53-25.16Z"/>
  <path class="cls-4" d="M651.36,290.95l93.75-63.3c28.11,6.8,60.64.57,83.7-16.87,1.03-.46,1.79-.02,2.71.39s11.62,12.62,13.4,14.69c14.14,16.46,29,37.47,39.98,56.2,2.3,3.93,13.17,22.8,13.44,25.56s-7.31,6.29-9.57,8.28c-35.25,31.15-46.75,77.64-25.72,120.83.37,1.02.02,1.79-.4,2.71-1.24,2.73-13.92,16.06-17.07,19.54-11.03,12.19-23.53,25.02-35.29,36.54-14.84,14.52-39.2,39.13-55.54,50.37-.8.55-2.68,2.11-3.51,1.35,20.16-60.41,11.76-126.64-21.44-180.69-17.71-28.84-48.65-59.34-78.43-75.58Z"/>
  <path class="cls-11" d="M670.84,977.56c-29.14,16.76-70.66,4.13-82.79-28-20.2-53.52,37.01-104.63,86.81-72.81,37.18,23.76,33.05,79.48-4.03,100.81ZM631.27,885.04c6.69-.38,13.93,0,20.7,0,2.62,0,13.66,6,16.33,8.02,4.86,3.67,7.99,9.14,12.88,12.69,1.66-2.67-1.49-6.98-3.04-9.14-11.56-16.05-34.73-21.55-52.34-12.77-.72,5.06,4.01,1.28,5.47,1.2ZM616.81,940.25c20.82,33.94,65.65,6.22,50.59-25.61-8.83-18.66-36.18-20.63-48.2-3.94-5.24,7.27-6.68,15.98-5.48,24.79.58,4.26,2.34,3.54,3.09,4.76ZM656.22,962.95c-11.07,2.02-21.8.94-32.05-3.87l-16.64-11.96c6.62,14.56,22.74,21.8,38.2,20.53,2.28-.19,11.46-1.06,10.49-4.71Z"/>
  <path class="cls-1" d="M670.84,977.56c37.08-21.32,41.2-77.05,4.03-100.81-49.8-31.82-107.02,19.28-86.81,72.81-2.82.72-5.37-6.48-5.8-8.2-13.52-53.92,40.38-95.84,89.4-71.12,40,20.17,45.86,74.32,10.74,102.43-2.02,1.62-9.06,7.75-11.54,4.9Z"/>
  <path class="cls-14" d="M342.92,789.27c8.91,8.88,7.08,29.68-6,33.96-5.24,1.71-30.53,1.71-36.7.83-20.82-2.95-20.84-37.6,2.33-40.07,9.59-1.02,33.52-1.55,40.38,5.29ZM299.15,789.12c-11.16,2.52-12.88,22.93-3.75,28.8,6.34,4.08,35.79,3.9,42.27-.02,9.01-5.46,7.79-24.18-1.96-28.11-3.64-1.47-32.15-1.66-36.57-.66Z"/>
  <path class="cls-17" d="M310.04,845.05c2.9-.95,17.06-1.17,16.14,3.9-.23,1.3-7.3,9.87-10.06,9.12-3.14-1.92-12.52-10.91-6.08-13.02Z"/>
  <path class="cls-2" d="M116.88,538.08c5.12,2.26,4.77-.02,7.3,0,.64,0,1.74,1.1,2.43,1.22,1.13.19,2.31,1.36,4.32,1.31s2.67-1.24,2.98-1.31c.74-.17,1.66-1.08,2.43-1.22,2.82-.48,7.15-.21,9.74,1.22,5.9,3.24,13.31,4.57,20.7,4.87-1.24,4.15-.84,8.46-1.31,12.68-.11,1-1.1,1.69-1.13,1.93.03-2.2-.85-2.66-2.43-3.65-4.38-2.72-4.93.03-6.09,0s-4.89-1.62-10.14-1.66c-3-.02-7.83-2.8-9.34,1.66-3.6-2.14-4.35-4.59-8.52-2.43-.81.42-1.62.82-2.43,1.22-.09-.17-1.86-.95-2.43-1.22-2.77-1.27-7.27-2.63-7.91,1.21l-6.7-3.65c-.28-3.65-.9-8.11-1.22-12.17,3.47,1.62,5.75-2.34,6.09-2.43.32-.09,2.79,2.05,3.65,2.43Z"/>
  <path class="cls-2" d="M143.66,562.43c1.46-.26,8.18-.02,10.96,0,2.16.02,6.52,3.67,8.52-1.22h1.22c-.52,5.18-1.03,10.63-1.22,15.83-4.19-4.68-5.65-.72-8.11-.35-4.51.67-17.92-3.91-18.68,2.79-2.34-6.98-9.99-1.29-11.36-1.42-1.45-.13-3.02-2.18-5.08-2.18-2.58,0-6.15,3.64-10.35,1.17-.35-4.9-.85-9.73-1.22-14.61,4.76-2.81,8.79,1.17,11.57,1.16,2.05,0,3.62-2.04,5.08-2.18,3.91-.38,2.95,5.14,8.92-.2.56-.51,1.73-.74,2.43-1.22.45,1.48,1.88,2.88,3.32,3.5,2.83.88,3.49-.97,3.99-1.06Z"/>
  <path class="cls-2" d="M144.88,585.56c.4.01.82.02,1.22,0,1.38-.05,3.26,1.52,5.27,1.03,1.43-.35,1.82-2.15,2.04-2.25.5-.23,1.7.15,2.43,0l4.87,1.22h1.22c-.57,2.75.41,6.72-1.22,9.74-4.12.48-10.93,1.51-13.39,3.65-3.67,3.19-5.5,4.08-10.96,3.65-3.65-7.54-8.66-1.81-11.59-1.66-1.29.07-3.01-2.01-4.88-1.99-2.87.02-4.19,5.64-7.88,2.44-.27-4.04-.91-8.96-1.22-13.39,3.54-2.25,7.27.46,10.26.03,1.83-.26,3.26-2.5,4.71-2.26,1.25.21,2.43,2.52,5.05,2.31s4.14-3.78,5.54-3.73c.75.03,2.38,2.19,4.34,2.44s3.65-1.24,4.18-1.22Z"/>
  <path class="cls-9" d="M109.57,577.04c4.2,2.47,7.77-1.17,10.35-1.17,2.05,0,3.63,2.05,5.08,2.18,1.37.13,9.01-5.56,11.36,1.42.17.5,0,1.69,0,2.43v2.43c-1.4-.05-2.94,3.52-5.54,3.73s-3.79-2.1-5.05-2.31c-1.45-.24-2.88,2-4.71,2.26-3,.43-6.73-2.28-10.26-.03-.22-3.23-.95-7.16-1.22-10.96Z"/>
  <path class="cls-9" d="M108.36,550.26l6.7,3.65c.64-3.84,5.14-2.48,7.91-1.21v7.3c3.77.95,3.57-4.1,2.43-6.08.82-.39,1.63-.8,2.43-1.22l5.92,1.39.17,7.13c-5.97,5.34-5.01-.18-8.92.2-1.46.14-3.03,2.18-5.08,2.18-2.78,0-6.81-3.98-11.57-1.16-.3-4.01.31-8.17,0-12.17Z"/>
  <path class="cls-9" d="M105.92,527.13l5.93,1.38c.96,1.62-1.09,5.79,1.38,7.14-.34.09-2.61,4.05-6.09,2.43-.25-3.1-.91-7.18-1.22-10.96Z"/>
  <path class="cls-12" d="M171.67,542.95c.32.23-.47,4.11,6.04,2.49l1.35,8.86-8.61,6.91c6.59.71,11.72,5.48,9.75,12.54-.67,2.41-12.77,7.75-15.84,8.17.36-2.1-1.24-4.14-1.22-4.87.18-5.2.69-10.65,1.22-15.83.08-.8-.09-1.64,0-2.43.03-.24,1.02-.93,1.13-1.93.47-4.22.06-8.53,1.31-12.68,1.85.08,4.67-1.37,4.87-1.22Z"/>
  <path class="cls-15" d="M163.14,577.04c-.03.73,1.58,2.77,1.22,4.87-.17,1-2.22,2.63-2.43,3.65h-1.22l-3.67-7.29h-1.19s-.01,6.08-.01,6.08c-.73.15-1.93-.23-2.43,0l-6.07-4.86-1.23,6.08c-.4.02-.82.01-1.22,0-1.99-1.88-4.71-2.97-4.89-6.08-2.64-.65-2.33.67-3.63,2.43,0-.74.17-1.93,0-2.43.76-6.7,14.17-2.11,18.68-2.79,2.45-.37,3.92-4.33,8.11.35Z"/>
  <path class="cls-20" d="M171.67,596.52c2.94,1.51,6.29,2.03,6.13,6.63-1.76,3.07-5.79.65-6.13.67.82-2.48,1.77-5.01,0-7.3Z"/>
  <path class="cls-20" d="M170.45,603.82c-.76.02-3.61,2.71-6.09,0,.43-.28.67-2.02,1.79-2.22l4.3,2.22Z"/>
  <path class="cls-25" d="M147.32,598.95h2.43c-.69,1.15-.77,2.52-1.22,3.65-.14.36-.95.76-1.22,1.22l-10.96,1.22c-.16-.73.23-1.95,0-2.43,5.46.43,7.29-.46,10.96-3.65Z"/>
  <path class="cls-24" d="M125.4,607.47h-2.42s0-4.86,0-4.86c2.42.65,2.73,2.59,2.42,4.86Z"/>
  <path class="cls-9" d="M924.08,371.3c.09,4.42.15,8.97,0,13.39-.26,7.89-.9,16.28-1.22,24.35,2.04-.67,2.23-3.08,3.74-4.17,4.45-3.23,20.37-1.82,26.7-1.91,2.54-.04,4.62-1.22,4.87-1.22.41,0,.81,0,1.22,0l-2.43,3.64,3.64,1.22-6.08,1.23c-3.67-.22-8.06-.22-11.61-1.15-2.71-.71-1.46-2.81-2.39-2.5-2.17.72-1.96,2.28.12,3.52,3.28,1.95,19.14,1.89,23.61,1.34,2.44-.3,5.67-.8,4.87-3.65.71,2.21,2.17,2.74,0,6.08h17.04c.02,2.88.21,3.35-2.43,4.88-.85.49-.9,1-2.43,1.22-3.32.47-7.45-.26-10.96,0-12.91.95-12.62,1.63-26.23.06-5.37-.62-15.72.04-20.46-1.45-4.16-1.3-.85-5.61-.79-7.13-.87.29-2.56-.2-3.65,0-.1-4.26-.86-17.83,0-20.7.06-.18,1.96-.54,2.42-3.01.52-2.79-.62-13.19.02-14.04.81-.06,1.62.05,2.43,0Z"/>
  <path class="cls-23" d="M984.95,384.69c4.75,6.78,1.55,16.18,2.43,24.35-.37-.15-.95.17-1.22,0-2.02-1.32-4.05-4.09-5.74-4.62-2.31-.73-8.24-1.05-11.31-1.47s-6.69-1.2-9.74-1.22c-.41,0-.81,0-1.22,0-2.12-1.03-2.87-2.48-2.43-4.87,1.98-.67,2.03-3.37,3.3-3.67,1.91-.45,4.52.66,6.52-.51.97-.66,2.17-6.37,2.35-7.99h17.04Z"/>
  <path class="cls-16" d="M998.34,428.52v14.61h-37.74v-14.61h37.74ZM968.68,432.49c-2.56.84-2.86,3.55-.76,5.2,10.39,2.69,8.82-7.86.76-5.2ZM981.3,438.25c3.62-2.08,13.82,2.07,12.16-4.24-.78-2.95-9.58.53-12.15-1.83v6.08Z"/>
  <path class="cls-11" d="M922.86,409.04c-.06,1.52-3.37,5.82.79,7.13,4.75,1.49,15.09.83,20.46,1.45,13.62,1.57,13.32.89,26.23-.06v2.43s4.87,0,4.87,0l-1.22,4.86h-51.13c-.1,0,.23-1.37-.45-1.95-.97-.83-2.41-1.24-3-2.5-.45-.96-.08-1.99-.2-2.86-.05-.4.03-.82,0-1.22,1.9-.5,1.82-4.48,0-4.87-.03-.81.02-1.62,0-2.43,1.09-.2,2.78.29,3.65,0Z"/>
  <path class="cls-18" d="M995.91,388.34c.26,9.7-.35,19.52,0,29.22h-7.31c-.07-2.42.1-4.88,0-7.3-.15-4.08-.78-17.09.17-19.92s4.74-2.01,7.14-2Z"/>
  <path class="cls-25" d="M922.57,441.61c-6.61,6.64-17.6-4.57-8.93-10.75,8.14-5.8,14.09,5.57,8.93,10.75ZM920.42,434.61c-3.91-3.44-5.5,6.54-1.21,3.04.92-.75,1.82-2.5,1.21-3.04Z"/>
  <path class="cls-25" d="M986.17,409.04c0,.81,0,1.62,0,2.43h-17.04c2.16-3.35.71-3.87,0-6.09-.2-.62.13-1.68,0-2.43,3.06.42,9,.75,11.31,1.47,1.69.53,3.72,3.29,5.74,4.62Z"/>
  <path class="cls-5" d="M983.73,416.34l3.65,7.3-6.08-6.08c1.53-.22,1.58-.72,2.43-1.22Z"/>
  <path class="cls-25" d="M927.73,438.25c-2.78-2.78,5.02-7.69,6.08-3.02.67,2.98-5.29,3.81-6.08,3.02Z"/>
  <path class="cls-23" d="M987.38,344.52c-.78,7.87,1.85,12.17-2.43,19.48-1.13,1.93-3.76,2.71-2.44,7.31h-14.61c-.68-4.78-1.9-6.7-6.09-8.52-2.38-1.04-2.08-1.02-4.87-1.22-.38-3.67,1.62-9.29-2.43-10.96,0-.41,0-.81,0-1.22.05-3.83,1.15-5.24,2.43-8.52.4-.05.81.03,1.22,0,5.44-.37,18.94-.89,23.72.02,2.46.47,3.5,2.52,5.5,3.63Z"/>
  <path class="cls-25" d="M984.95,384.69h-17.04c.37-3.2.44-10.29,0-13.39h14.61c-1.33-4.59,1.3-5.37,2.44-7.3,2.04,5.65,2.05,14.96,0,20.7Z"/>
  <path class="cls-9" d="M953.3,338.43c-.45.78-.76,1.66-1.22,2.43-8.16,1.09-24.7-2.94-30.44,3.65-.91,1.05-.96.85-1.22,2.43l-1.22-2.43c.37-1.37.51-3.63,1.49-4.57,3.54-3.43,26.45-.55,32.6-1.51Z"/>
  <path class="cls-23" d="M952.08,340.87c-.17.29.16.87,0,1.22-.11.25-1.56.52-1.82,1.25-1.09,3.12-1.1,6.29,1.82,8.49-.05,1,1.05,2.69.97,4.22-.41,8.39-3.51,4.23-5.57,5.81-.63.48-.15,2.05-.27,2.14-.23.17-2.73.96-4.87,2.43-1.14.78-3.5-1.27-2.43,4.87-5.25.19-10.59-.26-15.83,0-.02-.81.03-1.63,0-2.43v-1.22c-.11-1.64.39-3.63-.01-5.16-.36-1.38-2.03-1.54-2.42-2.15v-15.83c5.74-6.59,22.28-2.56,30.44-3.65Z"/>
  <path class="cls-14" d="M921.64,360.34c-1.72-2.65-1.77-9.96-1.22-13.39.25-1.59.3-1.39,1.22-2.43v15.83Z"/>
  <path class="cls-25" d="M924.08,368.87c-.02-.4.03-.81,0-1.22v1.22Z"/>
  <path class="cls-5" d="M954.51,342.08c-3.08,2.98-1.12,5.52-1.22,7.3-.01.24-1.16,1.32-1.22,2.43-2.92-2.19-2.91-5.36-1.82-8.49.26-.74,1.7-1.01,1.82-1.25.77-.12,1.78.18,2.43,0Z"/>
  <path class="cls-9" d="M956.95,340.87c-1.28,3.29-2.39,4.7-2.43,8.52h-1.22c.1-1.78-1.87-4.33,1.22-7.3.53-.15,1.24-1.07,2.43-1.22Z"/>
  <path class="cls-9" d="M919.21,416.34c-.13-1.6.06-3.26,0-4.87,1.82.39,1.9,4.37,0,4.87Z"/>
  <path class="cls-21" d="M818.15,120.52c-5.26-4.08-9.44-9.19-14.61-13.39-.1-5.8-1.32-11.77-3.65-17.04,21.75.19,29.86,10.21,18.26,30.43Z"/>
  <path class="cls-21" d="M769.45,68.17c9.27,0,14.48,6.93,18.26,14.61-4.22.48-8.91,2.53-12.17,2.43-4.57-.14-7.93.02-12.17,0-3.82-.01-8.03-1.98-12.17-2.43,4.44-7.19,8.82-14.61,18.26-14.61Z"/>
  <path class="cls-21" d="M799.89,165.56c2-3.38,1.6-9.14,3.65-12.17,3.01-4.45,3.37-4.86,6.09-9.74,2.19-3.93,6.34-5.8,8.52-8.52,11.73,19.55,3.33,30.63-18.26,30.43Z"/>
  <path class="cls-7" d="M793.8,99.83c3.17,2.05,6.78,4.9,9.74,7.3,5.17,4.2,9.35,9.31,14.61,13.39-2.03,3.53-3.91,4.71-6.09,7.3-.14-3.72-3.85-5.16-6.09-7.3-3.31-3.17-4.89-4.52-8.52-7.3-3.33-2.56-19.25-14.27-21.91-14.61,1.35-.8,2.07-4.53,2.43-4.87.14-.13,2.72-.86,3.65-1.22,3.38,3.25,8.4,4.86,12.17,7.3Z"/>
  <path class="cls-20" d="M803.54,137.56c4.14,1.58,3.59,2.72,6.09,6.09-2.72,4.88-3.07,5.29-6.09,9.74-2.2.33-5.35-.47-7.3,0l-4.87-6.09c1.15-1.82,1.39-9.71,6.09-10.96,2.11-.56,4.19.49,6.09,1.22Z"/>
  <path class="cls-20" d="M775.54,85.22c2.26,2.44,2.87,5.22,2.43,8.52-.36.34-1.09,4.07-2.43,4.87-.66-.08-3.44,2.23-5.56,2.4-1.99.16-3.95-1.21-5.4-1.18-1.81-2.66-4-5.07-3.65-8.52,1.17-1.4,2.04-4.23,2.43-6.09,4.25.02,7.6-.14,12.17,0Z"/>
  <path class="cls-15" d="M805.98,120.52v13.39c-.91.91-1.55,2.6-2.43,3.65-1.89-.72-3.98-1.78-6.09-1.22v-23.13c3.63,2.79,5.21,4.14,8.52,7.3Z"/>
  <path class="cls-15" d="M799.89,90.09c2.33,5.28,3.55,11.24,3.65,17.04-2.96-2.41-6.57-5.25-9.74-7.3l-2.43-9.74c2.59-.28,5.81-.02,8.52,0Z"/>
  <path class="cls-4" d="M791.37,90.09l2.43,9.74c-3.77-2.44-8.8-4.05-12.17-7.3,2.25-.87,7.37-2.18,9.74-2.43Z"/>
  <path class="cls-4" d="M812.07,127.82c-2.25,2.68-3.91,3.89-6.09,6.09v-13.39c2.24,2.14,5.95,3.58,6.09,7.3Z"/>
  <path class="cls-21" d="M797.46,113.22v23.13c-4.7,1.25-4.94,9.14-6.09,10.96-1.09,1.72-18.6,9.58-21.91,10.96-10.21-3.03-18.54-9.46-26.78-15.83-1.86-9.59-1.85-19.68,0-29.22,4.94-3.7,15.29-13.26,21.91-13.39,1.44-.03,3.41,1.34,5.4,1.18,2.12-.17,4.9-2.48,5.56-2.4,2.67.34,18.58,12.05,21.91,14.61ZM770.28,114.82c-5.62.09-12.02,4.27-12.93,10.03-2.49,15.76,16.59,20.97,23.62,9,4.82-8.2-1.15-19.19-10.69-19.03Z"/>
  <path class="cls-21" d="M739.02,90.09l-3.65,17.04c-3.94,3.12-11.5,9.74-14.61,13.39-10.27-17.45-4.12-30.74,16.49-31.47.96-.03,1.61,1.03,1.77,1.04Z"/>
  <path class="cls-21" d="M735.36,148.52l3.65,17.04c-3.24.09-6.5-.06-9.74,0-1.71-5.36-5.35-7.43-10.96-6.09-5.01-10.05-1.55-16.87,3.65-25.56,1.53,2.26,2.86,4.8,4.82,6.75s6.54,6.25,8.57,7.86Z"/>
  <path class="cls-15" d="M734.15,135.13c3.45,3.27,4.76,4.4,8.52,7.3,8.24,6.37,16.58,12.8,26.78,15.83-4.38,1.81-6.49,2.4-10.96,3.65-4.8-1.31-9.25-4.64-13.39-7.3-2.85-1.83-7.37-4.21-9.74-6.09-2.03-1.61-6.6-5.89-8.57-7.86s-3.28-4.5-4.82-6.75c2-3.34,2.97-3.73,4.87-6.09,1.6,3.26,4.86,4.99,7.3,7.3Z"/>
  <path class="cls-23" d="M742.67,113.22c-1.85,9.54-1.86,19.63,0,29.22-3.76-2.91-5.07-4.04-8.52-7.3v-15.83c2.87-2.64,5.98-4.18,8.52-6.09Z"/>
  <path class="cls-23" d="M747.54,90.09l-2.43,9.74c-2.75,1.86-7.03,5.16-9.74,7.3l3.65-17.04c2.71.02,5.96-.31,8.52,0Z"/>
  <path class="cls-4" d="M734.15,135.13c-2.45-2.32-5.7-4.05-7.3-7.3,2.94-3.64,3.39-4.91,7.3-8.52v15.83Z"/>
  <path class="cls-4" d="M758.5,92.52c-4.32,3.26-9.45,4.65-13.39,7.3l2.43-9.74c3.77.46,7.3,1.55,10.96,2.43Z"/>
  <path class="cls-21" d="M787.72,172.87c-2.88,6.01-11.23,14.61-18.26,14.61s-15.23-8.09-17.04-14.61c6.13-1.11,12.47-3.87,18.26-6.09,4.4,3.26,11.65,5.15,17.04,6.09Z"/>
  <path class="cls-15" d="M803.54,153.39c-2.06,3.03-1.65,8.79-3.65,12.17-3.99-.04-5.56-.78-8.52-1.22l2.43-8.52c.32-.15.91-2.07,2.43-2.43,1.96-.47,5.11.33,7.3,0Z"/>
  <path class="cls-4" d="M793.8,155.82l-2.43,8.52c-3.09-.45-6.57-.33-9.74-1.22,3.25-1.58,7.6-5.15,12.17-7.3Z"/>
  <path class="cls-23" d="M745.1,154.61l2.43,9.74c-2.87.39-4.66,1.11-8.52,1.22l-3.65-17.04c2.37,1.87,6.89,4.25,9.74,6.09Z"/>
  <path class="cls-4" d="M758.5,161.91c-4.73,1.33-5.62,1.7-10.96,2.43l-2.43-9.74c4.15,2.66,8.59,6,13.39,7.3Z"/>
  <path class="cls-3" d="M1159.89,667.5c7.2,6.41,3.14,16.81-6.29,17.91-8.51,1-19.18-.44-28.08-.08-9.88.4-18.12,6.07-26.11-1.79-7.25-7.14-12.84-17.23,1.81-18.85,11.34-1.26,39.85-1.3,51.16-.03,2.27.25,5.85,1.36,7.51,2.85Z"/>
  <path class="cls-3" d="M1105.19,786.7c4.64-1.18,13.78,1.97,19.11,2.22,9.63.44,25.42-1.69,33.88.21,10.84,2.43,10.26,17.37-1.03,19.15-7.53,1.19-52.56,1.31-59.33-.19-12.99-2.88,1.71-19.95,7.36-21.38Z"/>
  <path class="cls-3" d="M1155.02,744.65c-5.21,4.77-27.52,2.59-35.58,2.77-4.93.11-8.38,2.94-13.41.1-5.6-3.16-6.01-16.68-1.41-20.38s11.15-.4,16.03-.32c7.57.14,29.24-1.82,34.07,2.46,4.14,3.67,4.38,11.62.3,15.36Z"/>
  <path class="cls-7" d="M1079.91,802.25c.51-.66.71-1.89,1.22-2.43,1.48-1.61,5.19-3.31,7.4-5.42,1.82-1.74,1.74-3.53,2.34-4.32.11-.15,2.98.68,2.53-1.74-2.37-31.87,2.79-67.42-.01-98.83-.22-2.41-.64-2.48-1.3-4.12-1.88-4.62-3.14-3-3.65-3.65-4.28-5.38-3.59-4.36-8.52-8.52-.2-.17.17-1.75,0-2.43h-2.43c-.08,1.2.08,2.44,0,3.65-3.04,40.45,2.27,84.56,0,125.39v2.43c.78-.07,1.76.16,2.43,0-1.3,1.69-1.46,5.48-4.86,4.86v-141.21c4.51,4.71,18.77,15.49,19.54,21.24l-.09,101.08c-.57,3-11.78,13.37-14.58,14.03Z"/>
  <path class="cls-8" d="M871.32,659c7.3-.14,9.41,6.05,8.95,12.36-.86,11.73-16.48,14.23-14.53,30.35,2.36,19.46,36.58,20.74,50.93,31.87,17.86,13.85,19.75,40.92,6.16,58.3-5.56,7.11-25.97,24.01-31.92,10.06-6.55-15.35,23.77-23.51,11.04-43.91-8.85-14.2-42.3-15.78-55.8-33.08-13.04-16.72-8.35-43.69,7.41-57.11,3.77-3.21,12.9-8.75,17.76-8.84Z"/>
  <path class="cls-1" d="M904.6,684.17c-.37-.38-.85-.9-1.22-1.22.49.37.83.75,1.22,1.22Z"/>
  <path class="cls-1" d="M921.64,674.43c4.94,4.45,7.81,12.72,7.3,19.48h-18.87c-2.82-2.31-3.45-7.29-5.48-9.74,1.51,1.54,5.84,2.18,6.9,7.36l15.02-.06c.95-.96-3.89-14.67-4.87-17.04Z"/>
  <path class="cls-1" d="M917.99,669.56c-.26-.31-.85-.86-1.22-1.22.25.12,1.11.98,1.22,1.22Z"/>
  <path class="cls-1" d="M921.64,674.43c-.29-.26-2.15,0-3.04-1.23-.96-1.34-.33-2.99-.62-3.64,1.72,2.08,2.04,1,3.65,4.87Z"/>
  <path class="cls-1" d="M916.77,668.34c-.51-.25-1.95.21-2.75-.3-8.81-5.65-15.58-8.78-26.47-9.44v17.04c4.69-.27,11.75,1.64,15.17,4.91.65.62.42,2.19.66,2.39-4.37-3.34-12.74-5.54-18.26-4.87v-21.91c13.37,1.47,21.91,2.57,31.65,12.17Z"/>
  <path class="cls-1" d="M851.03,794.95c-.31-.44-.93-.77-1.22-1.22.39.39.8.87,1.22,1.22Z"/>
  <path class="cls-1" d="M849.81,793.73c-6.34-6.37-8.44-11.73-9.74-20.7h21.91c.55,1.95,2.63,7.25,3.65,8.52-4.41.35-3.89-6.13-6.89-7.11l-16.24-.19c-1.11.97,5.83,17.12,7.3,19.47Z"/>
  <path class="cls-1" d="M866.85,782.78c-.46-.4-.83-.74-1.22-1.22l1.22,1.22Z"/>
  <path class="cls-1" d="M866.85,782.78c3.64,3.1,13.33,6.41,18.26,6.09v20.7c-10.88.55-18.36-2.77-26.78-8.52,1.23.81,14.86,5.19,16.98,5.54,2.88.48,5.67.8,8.59.55l-.13-15.72c-5.49-1.27-15.18-2.51-16.92-8.64Z"/>
  <path class="cls-1" d="M852.24,796.17c-.36-.43-.9-.77-1.22-1.22.44.36.78.87,1.22,1.22Z"/>
  <path class="cls-1" d="M853.46,797.38c.66.45,2.75.39,4.05,1.14,1.09.64.71,2.44.82,2.51-2.37-1.62-2.28-1.05-4.87-3.65Z"/>
  <path class="cls-1" d="M853.46,797.38c-.4-.4-.86-.78-1.22-1.22.46.36.82.95,1.22,1.22Z"/>
  <path class="cls-6" d="M1310.02,702.43c-.36-.45-.77-.85-1.22-1.22,1.28-5.14,4.83-25.36,4.99-29.86.13-3.62-2.16-5.17-2.62-8.42-1.22-8.65-.53-14.7-2.33-24.49-3.01-16.29,25.43-28.96,33.5-11.55v129.17c-4.92,11.19-20.44,12.64-26.08,1.6-2.51-4.91-1.93-22.12-2.65-29-.18-1.73-2.06-3.39-2.44-6.08-.74-5.24,1.73-16.55-1.15-20.15Z"/>
  <path class="cls-2" d="M1272.28,697.56l40.79-84h34.7v157.04h-37.74v-68.17c2.88,3.6.42,14.91,1.15,20.15.38,2.69,2.26,4.35,2.44,6.08.72,6.88.14,24.09,2.65,29,5.64,11.04,21.17,9.59,26.09-1.6v-129.17c-8.08-17.41-36.51-4.74-33.51,11.55,1.81,9.79,1.12,15.84,2.33,24.49.46,3.25,2.75,4.8,2.62,8.42-.16,4.51-3.71,24.72-4.99,29.86-3.92,15.7-22.57,51.35-30.62,67.39-2.21,4.4-3.41,9.29-9.69,6.12l-25.44-57.68c2.4,3.39,6.1,6,8.32,9.33,5.23,7.82,8.3,19.2,13.06,27.11,8.8,14.62,16.13.46,19.83-9.23,2.69-7.06,3.42-8.58,1.4-16.26,6.38-8.25,11.34-19.28,14.61-29.22.27-.42.93-.75,1.22-1.22,1.25-2.05,8.52-16.67,8.52-17.65v-38.35l-30.71,62.45c-.9,1.81-1.12,3.73-.95,5.72l-2.35-.06c-.09-4.25-1.78-8.41-3.74-12.11Z"/>
  <path class="cls-8" d="M1195.58,769.38h-1.22c-2.68-51.1,2-104.48,0-155.82h1.22v155.82Z"/>
  <path class="cls-2" d="M1268.63,692.69c-3.86-6.5-8.89-12.36-12.38-18.66-8.35-15.07-18.14-52.37-36.25-56.27-11.73-2.53-22.98,6.75-18.32,18.94l3.64-1.22v126.61c.14,1.54,1.36,1.12,2.43,1.22,5.06.47,10.68-.34,15.83,0l1.22-1.22.09-82.32c.71-1.76-1.12-3.36-1.31-4.12-1.34-5.43-4.96-14.2-7.3-19.48l8.01,10.86,6.21,32.72c.38,2.53,3.05,1.04,4.05,1.46v69.4c-12.79-.73-26.53,1.52-38.96-1.22v-155.82l36.58.56,36.47,78.57Z"/>
  <path class="cls-6" d="M1205.32,635.47l-3.64,1.22c-4.66-12.19,6.59-21.47,18.32-18.94,18.11,3.9,27.89,41.2,36.25,56.27,3.49,6.31,8.52,12.17,12.38,18.66.9,1.51,2.84,3.34,3.65,4.87,1.96,3.7,3.65,7.86,3.74,12.11l2.35.06c.44,5.14,5.85,12.76,7.3,18.26,2.02,7.68,1.3,9.19-1.4,16.26-3.7,9.69-11.03,23.85-19.83,9.23-4.76-7.91-7.83-19.29-13.06-27.11-2.23-3.33-5.92-5.94-8.32-9.33-2.03-2.87-7.39-15.35-8.52-15.83-.99-.42-3.66,1.07-4.05-1.46l-6.21-32.72-8.01-10.86c-2.73-6.16-7.72-12.39-9.18-19.47l-1.78-1.22Z"/>
  <path class="cls-21" d="M1050.69,645.21l-32.87-1.22c-.6-3.4.73-2.04,2.67-2.74,7.53-2.73,20.73-.47,23.57-9.37,3.68-11.56-6.93-14.06-15.84-14.72-17.35-1.28-47.4-1.45-64.62,0-6.34.54-12.82,1.56-14.62,8.54-1.37,5.32.8,10.26,6.05,12.29,3.17,1.22,22.01,4.76,25.65,4.86,7.39.19,15.91-2.59,23.74-1.29,2.01,1.53-.12,2.22-1.8,2.43-5.17.66-11.75-1.52-16.46,1.22v115.65h20.7v-115.65c.4-.27-1.63-2.29,2.95-2.55,5.74-.33,5.92,2.29,6.79,2.55l-1.21,122.96h-38.97v-122.96c-.13-1.68-1.79-1.12-2.98-1.27-6.75-.84-17.21-.04-24.43.03-2.06.02-5.42-.78-6.68,1.24l-1.25-1.76.03-32.32h108.97c1.74,1.07,1.68,2.43,1.89,4.2.67,5.69.69,21.26,0,26.91-.15,1.19.41,2.84-1.27,2.98Z"/>
  <path class="cls-4" d="M986.17,645.21c4.71-2.74,11.29-.55,16.46-1.22,1.68-.22,3.81-.9,1.8-2.43-7.83-1.3-16.35,1.48-23.74,1.29-3.64-.1-22.48-3.63-25.65-4.86-5.24-2.02-7.42-6.97-6.05-12.29,1.8-6.99,8.28-8.01,14.62-8.54,17.22-1.46,47.28-1.29,64.62,0,8.91.66,19.52,3.17,15.84,14.72-2.83,8.9-16.03,6.64-23.57,9.37-1.94.7-3.27-.66-2.67,2.74l32.87,1.22c-1.62.54-32.46.49-34.09,0-.87-.26-1.05-2.88-6.79-2.55-4.58.26-2.55,2.28-2.95,2.55-1.44.95-19.87-.83-20.7,0Z"/>
  <path class="cls-4" d="M976.43,645.21h-34.09c1.26-2.02,4.62-1.22,6.68-1.24,7.23-.08,17.68-.87,24.43-.03,1.19.15,2.85-.41,2.98,1.27Z"/>
  <path class="cls-11" d="M1386.11,508.86c17.45,2.9,19.08,26.34,1.83,31.04l12.16,21.3c-13.18,3.41-15.52-11.63-20.88-20.49l-7.12-.2v20.7h-8.52v-52.35c6.9.8,15.95-1.09,22.52,0ZM1372.11,533.21c8.34-.13,18.86,2.32,18.38-9.15-.43-10.26-10.79-7.65-18.38-7.89v17.04Z"/>
  <path class="cls-13" d="M797.46,1139.47v-13.4c7.8-.94,8.09,5.12,7.13,11.4-.93,2.81-4.76,1.95-7.13,2ZM802.32,1128.52c-4.66-.97-1.63,7.07-2.42,9.73,3.79-1.53,2.17-6.59,2.42-9.73Z"/>
  <path class="cls-1" d="M784.06,1105.38c-2.13,2.12-7.44,2.01-8.35-.78l-.18-47.92,12.02.16,3.2,10.81.6-10.98h9.75v48.09c-13.13,7.91-12.28-7.82-15.83-16.43-.47-1.14,1.02-3.1-2.43-2.43.02-3.23-.11-6.51,0-9.74h2.43c2.5,8.8,4.04,18.01,6.67,26.81l6.73,1.19v-46.26l-6.09,1.22v23.74l-.91-.3-5.23-23.38-9.69-.06c1.66,12.3-2.22,30.48,0,42.01.69,3.6,3.01,3.18,6.09,3.04.01.09,1.25.46,1.22,1.22Z"/>
  <path class="cls-1" d="M1151.75,1150.43h-6.1s2.45-21.91,2.45-21.91c1.78.77,1.91,6.11,2.23,8.1s2,13.23,1.42,13.81ZM1149.3,1149.2v-7.29h-1.19v7.29h1.19Z"/>
  <path class="cls-1" d="M984.96,1150.43h-6.1s2.45-21.91,2.45-21.91c1.82.25,2,5.24,2.25,6.86.33,2.11,1.93,14.52,1.39,15.05ZM982.5,1149.2v-7.29h-1.19v7.29h1.19Z"/>
  <path class="cls-13" d="M1050.69,1067.03c.89-2.95,7.3-1.99,7.3,0v29.22c0,.55-3.01,3.17-4.26,3.09l-3.05-1.87v-30.43ZM1055.56,1067.64h-2.43v29.22h2.43v-29.22Z"/>
  <path class="cls-13" d="M1112.79,1096.86h3.65s0-30.43,0-30.43c-2.89-.89-3.26,2.17-3.52,4.35-.97,8.29.45,17.66-.13,26.08-1.62-2.71-2.03-28.51-.67-30.49,1.61-2.34,6.07-1.87,6.75,1.89.65,3.56.64,23.24-.03,26.75-.74,3.86-3.59,5.98-6.05,1.86Z"/>
  <path class="cls-14" d="M616.81,940.25c-.75-1.22-2.51-.5-3.09-4.76-1.2-8.81.24-17.52,5.48-24.79,12.02-16.69,39.38-14.72,48.2,3.94,15.05,31.83-29.77,59.55-50.59,25.61Z"/>
  <path class="cls-1" d="M631.27,885.04c-1.46.08-6.19,3.86-5.47-1.2,17.62-8.78,40.78-3.28,52.34,12.77,1.55,2.15,4.7,6.47,3.04,9.14-4.89-3.55-8.02-9.02-12.88-12.69-2.67-2.02-13.71-8.02-16.33-8.02-6.77,0-14.01-.38-20.7,0Z"/>
  <path class="cls-13" d="M656.22,962.95c.97,3.65-8.21,4.52-10.49,4.71-15.45,1.27-31.58-5.98-38.2-20.53l16.64,11.96c10.24,4.81,20.98,5.89,32.05,3.87Z"/>
  <path class="cls-17" d="M299.15,789.12c4.41-1,32.93-.8,36.57.66,9.75,3.94,10.96,22.66,1.96,28.11-6.48,3.92-35.93,4.1-42.27.02-9.13-5.87-7.42-26.28,3.75-28.8ZM310.07,800.2c-6.1-6.61-17.29-.61-15.43,8.14,6.18,1.17,3.08-6.28,9.18-6.05,4.57.17,2.5,7.84,7.24,6.04,3.21-1.22.48-6.55-.98-8.13ZM334.82,808.34c.77.69,4.44-.23,4.79-1.92-1.75-13.43-19.46-11.14-18.19,1.91,5.25,1.27,4.73-5.5,9.12-6.13,4.32,0,3.98,5.86,4.28,6.13Z"/>
  <path class="cls-15" d="M155.84,555.13l-1.22,7.3c-2.77-.02-9.5-.26-10.96,0-1.83-2.85-4.61-3.67-2.44-7.29l-4.87,1.21c.05-.4-.04-.82,0-1.22,1.51-4.46,6.33-1.68,9.34-1.66,5.25.04,9,1.63,10.14,1.66Z"/>
  <path class="cls-7" d="M161.93,555.13c-1.98.99-1.12,4.15-1.21,6.09h2.43c-2,4.88-6.37,1.23-8.52,1.21l1.22-7.3c1.15.03,1.71-2.72,6.09,0Z"/>
  <path class="cls-15" d="M164.36,558.78c-.09.79.08,1.64,0,2.43h-3.65c.09-1.94-.77-5.1,1.21-6.09,1.59.99,2.46,1.45,2.43,3.65Z"/>
  <path class="cls-24" d="M125.4,553.91c1.13,1.98,1.33,7.03-2.43,6.08v-7.3c.57.26,2.33,1.05,2.43,1.22Z"/>
  <path class="cls-24" d="M136.36,555.13c-.04.4.05.82,0,1.22-.11.83-.19,3.04,0,3.65-.7.48-1.87.71-2.43,1.22l-.17-7.13-5.92-1.39c4.17-2.16,4.92.29,8.52,2.43Z"/>
  <path class="cls-7" d="M136.36,556.34l4.87-1.21c-2.18,3.62.61,4.44,2.44,7.29-.5.09-1.16,1.94-3.99,1.06-1.44-.61-2.87-2.02-3.32-3.5-.19-.61-.11-2.82,0-3.65Z"/>
  <path class="cls-7" d="M136.36,581.91c1.3-1.75.99-3.07,3.63-2.43.18,3.11,2.91,4.2,4.89,6.08-.53-.02-2.22,1.47-4.18,1.22s-3.58-2.42-4.34-2.44v-2.43Z"/>
  <path class="cls-7" d="M146.1,585.56l1.23-6.08,6.07,4.86c-.21.1-.61,1.9-2.04,2.25-2.01.49-3.89-1.08-5.27-1.03Z"/>
  <polygon class="cls-7" points="160.71 585.56 155.84 584.34 155.85 578.26 157.04 578.26 160.71 585.56"/>
  <path class="cls-23" d="M924.08,384.69h15.83c-1.32,6.08,1.98,4.43,2.43,4.87.72.69,1.01,2.44,2.4,3.04,2.34,1.01,7.36.21,8.55,4.26.44,1.5-.31,4.31,0,6.09-6.32.09-22.24-1.31-26.7,1.91-1.51,1.09-1.71,3.5-3.74,4.17.32-8.07.95-16.46,1.22-24.35Z"/>
  <path class="cls-5" d="M969.12,402.95c.13.76-.2,1.82,0,2.43.8,2.85-2.43,3.35-4.87,3.65-2.08-2.29-6.65-1.04-9.74-1.22l6.08-1.23-3.64-1.22,2.43-3.64c3.05.02,6.59.79,9.74,1.22Z"/>
  <path class="cls-25" d="M964.25,409.04c-4.47.55-20.34.61-23.61-1.34-2.08-1.24-2.29-2.8-.12-3.52.93-.31-.32,1.79,2.39,2.5,3.55.93,7.94.93,11.61,1.15,3.09.18,7.66-1.07,9.74,1.22Z"/>
  <path class="cls-5" d="M955.73,396.87c-.44,2.39.32,3.84,2.43,4.87-.25,0-2.33,1.18-4.87,1.22-.31-1.78.44-4.59,0-6.09.75-.14,1.83.2,2.43,0Z"/>
  <path class="cls-13" d="M967.91,371.3c.44,3.1.37,10.2,0,13.39-.19,1.62-1.39,7.34-2.35,7.99-2,1.16-4.61.06-6.52.51-1.27.3-1.32,3-3.3,3.67-.6.2-1.68-.14-2.43,0-1.19-4.05-6.22-3.25-8.55-4.26-1.39-.6-1.69-2.35-2.4-3.04v-23.13c2.14-1.47,4.64-2.26,4.87-2.43,4.83-.34,10.18,1.07,14.61-1.22,4.19,1.83,5.41,3.75,6.09,8.52ZM947.21,381.04c.22.45.95.79,1.22,1.22.3.49.95.81,1.22,1.22.25.38-.72,2.22.75,2.49,3.11.77,4.44-.66,6.56-1.28,1.06-.31,1.57-.69,2.43-1.22.42-.25,1.53.7,2.43-.85,9.24-15.87-22.64-18.25-14.61-1.59Z"/>
  <path class="cls-13" d="M960.6,377.39c.14,1-.76,5.47-1.22,6.09-.08.11-2.3,1.19-2.43,1.22-1.8.3-5.62-.46-7.3-1.22-.36-.16-.73-.96-1.22-1.22l-1.22-1.22c-.42-2.23.98-2.79,1.22-3.65h12.17Z"/>
  <path class="cls-25" d="M981.3,438.25v-6.08c2.57,2.37,11.38-1.12,12.16,1.83,1.67,6.31-8.54,2.16-12.16,4.24Z"/>
  <path class="cls-25" d="M968.68,432.49c8.07-2.66,9.64,7.89-.76,5.2-2.1-1.65-1.8-4.36.76-5.2Z"/>
  <path class="cls-13" d="M920.42,434.61c.61.54-.28,2.29-1.21,3.04-4.29,3.49-2.7-6.49,1.21-3.04Z"/>
  <path class="cls-25" d="M954.51,349.39c0,.41,0,.81,0,1.22.03,3.17,1.96,6.78,0,10.95.8.06,1.62-.05,2.43,0,2.79.19,2.49.18,4.87,1.22-4.43,2.28-9.78.88-14.61,1.22.12-.09-.36-1.66.27-2.14,2.07-1.59,5.16,2.58,5.57-5.81.07-1.53-1.03-3.21-.97-4.22.06-1.12,1.2-2.2,1.22-2.43h1.22Z"/>
  <path class="cls-5" d="M956.95,361.56c-.8-.06-1.63.05-2.43,0,1.96-4.17.02-7.78,0-10.95,4.06,1.66,2.05,7.29,2.43,10.96Z"/>
  <path class="cls-25" d="M942.34,366.43v23.13c-.45-.44-3.75,1.21-2.43-4.87h-15.83c.15-4.42.09-8.96,0-13.39,5.24-.26,10.58.19,15.83,0-1.07-6.15,1.3-4.09,2.43-4.87Z"/>
  <path class="cls-20" d="M770.28,114.82c9.54-.16,15.51,10.84,10.69,19.03-7.03,11.96-26.11,6.76-23.62-9,.91-5.77,7.31-9.94,12.93-10.03Z"/>
  <path class="cls-5" d="M1088.44,681.73c.52.65,1.77-.97,3.65,3.65l-2.43,1.22c-.05-.17-1.66-1.48-2.43-2.43l1.21-.62v-1.81s-1.8.01-1.8.01l-.62,1.21c-1.47-1.11-2.89-2.71-4.86-2.43v112.6s7.3-4.26,7.3-4.26l2.43,1.22c-.61.79-.52,2.58-2.34,4.32-2.21,2.11-5.92,3.82-7.4,5.42h-3.65c2.27-40.83-3.04-84.94,0-125.39l2.43-1.22c4.93,4.16,4.24,3.14,8.52,8.52Z"/>
  <path class="cls-15" d="M1077.48,674.43c.09-1.2-.07-2.44,0-3.64h2.43c.17.68-.19,2.26,0,2.43l-2.43,1.22Z"/>
  <path class="cls-15" d="M1081.13,799.82c-.5.55-.71,1.78-1.22,2.43-.68.16-1.65-.07-2.43,0v-2.43s3.65,0,3.65,0Z"/>
  <path class="cls-15" d="M1092.09,685.38c.67,1.64,1.09,1.71,1.3,4.12,2.8,31.41-2.35,66.96.01,98.83.45,2.42-2.42,1.59-2.53,1.74l-2.43-1.22,1.27-5.4-.06-96.86,2.43-1.22Z"/>
  <path class="cls-24" d="M1301.5,697.56c-.94-.58-.96-1.5-1.22-2.43,2.93-.73,1.94-3.1,2.43-4.87,1.64-5.88,4.72-7.55,4.89-8.17,1.04-3.79.12-20.57-.02-25.92-.04-1.39.52-6.09-.61-6.1-1.28,1.49-1.12,4.18-1.83,6.1-4.15,11.34-10.28,22.24-15.83,32.87-1.02,1.96-1.33,2.27-2.43,4.87-.89,2.11-3.69,12.26-4.87,13.39-.45.43-3.45-1.2-2.43,2.43h2.43c.22,4.23,2.49,7.17,3.65,10.96.28.91-.22,2.54,0,3.65h2.42c.25-1.49-.33-3.57,0-4.87,2.56-9.75,7.59-13.47,12.17-20.7-3.27,9.94-8.23,20.96-14.61,29.22-1.45-5.5-6.87-13.12-7.3-18.26-.17-1.99.05-3.91.95-5.72l30.71-62.45v38.35c0,.98-7.27,15.6-8.52,17.65Z"/>
  <path class="cls-18" d="M1307.58,656.17c.14,5.34,1.06,22.12.02,25.92-.17.62-3.25,2.29-4.89,8.17-4.02-.3-3.11,2.45-2.43,4.87.26.93.28,1.85,1.22,2.43-.28.47-.95.8-1.22,1.22-4.59,7.23-9.61,10.95-12.17,20.7l-2.43,1.22c-1.17-3.79-3.43-6.73-3.65-10.96-.04-.81.03-1.63,0-2.43,1.18-1.13,3.98-11.28,4.87-13.39,2.78.7,3.16-1.87,3.45-4.13l-1.02-.74c5.55-10.63,11.67-21.53,15.83-32.87h2.43ZM1288.09,713.38c4.09-15.46,17.57-28.4,15.83-45.03l-18.95,38.98c-.66,2.29-.31,6.97,3.11,6.06Z"/>
  <path class="cls-24" d="M1216.27,656.17c2.34,5.28,5.97,14.05,7.3,19.48l-2.43-1.22c-.28-1.71-2.68-5.91-3.65-8.52-1.07-2.85-1.57-9.83-6.09-9.74-.38-1.68-.81-3.23-1.22-4.87-.56-2.24-.33-5.45-1.83-7.32-1.12,0-.58,5.78-.61,7.32-.73,36.47.55,73.09,0,109.57,4.28-.39,9.25.52,13.4,0,.88-.11,2.6.6,2.46-.73l-.02-84.49c.19.76,2.01,2.36,1.31,4.12l-.09,82.32-1.22,1.22c-5.14-.34-10.77.47-15.83,0l-2.43-1.22v-126.61l1.78,1.22c1.47,7.08,6.45,13.32,9.18,19.47Z"/>
  <path class="cls-16" d="M1207.75,763.3c-1.08-.1-2.29.32-2.43-1.22l2.43,1.22Z"/>
  <path class="cls-16" d="M1223.58,763.3l1.22-1.22-1.22,1.22Z"/>
  <path class="cls-22" d="M1006.86,645.21v115.65h-20.7v-115.65c.83-.83,19.26.95,20.7,0ZM1004.43,647.65h-17.04v110.78h17.04v-110.78Z"/>
  <path class="cls-14" d="M1372.11,533.21v-17.04c7.58.24,17.94-2.38,18.38,7.89.48,11.47-10.03,9.03-18.38,9.15Z"/>
  <path class="cls-14" d="M802.32,1128.52c-.24,3.14,1.38,8.2-2.42,9.73.79-2.66-2.25-10.7,2.42-9.73Z"/>
  <rect class="cls-25" x="1148.11" y="1141.91" width="1.19" height="7.29"/>
  <rect class="cls-25" x="981.31" y="1141.91" width="1.19" height="7.29"/>
  <rect class="cls-14" x="1053.13" y="1067.64" width="2.43" height="29.22"/>
  <path class="cls-25" d="M1112.79,1096.86c.58-8.42-.85-17.79.13-26.08.26-2.18.63-5.24,3.52-4.35v30.43s-3.65,0-3.65,0Z"/>
  <path class="cls-13" d="M334.82,808.34c-.3-.27.04-6.14-4.28-6.13-4.39.63-3.87,7.39-9.12,6.13-1.27-13.05,16.44-15.34,18.19-1.91-.35,1.68-4.02,2.61-4.79,1.92Z"/>
  <path class="cls-13" d="M310.07,800.2c1.46,1.58,4.19,6.91.98,8.13-4.74,1.8-2.66-5.87-7.24-6.04-6.1-.23-3,7.22-9.18,6.05-1.86-8.74,9.33-14.74,15.43-8.14Z"/>
  <path class="cls-5" d="M947.21,381.04c-8.03-16.66,23.85-14.28,14.61,1.59-.9,1.55-2.02.59-2.43.85.46-.62,1.36-5.09,1.22-6.09l-1.22-1.22v-1.22c-1.62-6.03-8.15-4.61-10.96,1.22-.14.3.11.81,0,1.22-.24.86-1.64,1.42-1.22,3.65Z"/>
  <path class="cls-5" d="M949.64,383.47c-.27-.4-.91-.73-1.22-1.22.49.26.86,1.06,1.22,1.22Z"/>
  <path class="cls-5" d="M956.95,384.69c-2.11.62-3.45,2.05-6.56,1.28-1.46-.27-.5-2.12-.75-2.49,1.68.76,5.51,1.52,7.3,1.22Z"/>
  <path class="cls-5" d="M948.43,382.26c-.26-.43-1-.77-1.22-1.22l1.22,1.22Z"/>
  <path class="cls-5" d="M959.38,383.47c-.86.52-1.38.91-2.43,1.22.13-.02,2.35-1.11,2.43-1.22Z"/>
  <path class="cls-14" d="M1086,682.95c.39.29.9.83,1.22,1.22.78.95,2.39,2.27,2.43,2.43l.06,96.86-1.27,5.4-7.31,4.26v-112.6c1.98-.28,3.4,1.32,4.88,2.43Z"/>
  <path class="cls-15" d="M1088.44,681.73v1.81s-1.22.62-1.22.62c-.31-.38-.83-.93-1.22-1.22l.62-1.21h1.81Z"/>
  <path class="cls-14" d="M924.07,689.03l-11.99-.18c-3.35-9.33-12.27-14.8-21.98-15.75l-.13-10.85c16.31-1.16,29.7,11.97,34.09,26.78Z"/>
  <path class="cls-14" d="M858.07,778.18c.55.32,4.28,6.93,6.42,8.79,4.39,3.83,10.25,5.04,15.59,6.94l.17,9.58c-15.32.14-30.27-10.48-34.09-25.56,2.96.57,9.76-.98,11.91.26Z"/>
  <path class="cls-16" d="M1289.32,689.04l1.02.74c-.29,2.26-.67,4.83-3.45,4.13,1.1-2.6,1.41-2.91,2.43-4.87Z"/>
  <path class="cls-16" d="M1307.58,656.17h-2.43c.7-1.92.55-4.61,1.83-6.1,1.13.01.57,4.71.61,6.1Z"/>
  <path class="cls-16" d="M1288.11,719.47c-.34,1.3.25,3.38,0,4.87h-2.42c-.22-1.11.27-2.74,0-3.65l2.43-1.22Z"/>
  <path class="cls-16" d="M1282.02,707.3c.03.81-.04,1.63,0,2.43h-2.43c-1.02-3.63,1.98-2,2.43-2.43Z"/>
  <path class="cls-14" d="M1288.09,713.38c-3.42.91-3.77-3.76-3.11-6.06l18.95-38.98c1.74,16.64-11.74,29.57-15.83,45.03Z"/>
  <path class="cls-16" d="M1302.71,690.25c-.49,1.77.5,4.14-2.43,4.87-.67-2.42-1.59-5.17,2.43-4.87Z"/>
  <path class="cls-18" d="M1210.19,651.3c.41,1.64.83,3.19,1.22,4.87.54,2.38.71,5.48,1.22,7.3l-1.22,90.7c.37,3.94,4.27,3.08,7.31,3.04v-79.74c0-.71-5.33-10.21-6.09-12.78l4.87,1.22c.98,2.61,3.37,6.81,3.65,8.52.06.35-.03,4.81.06,6.64,1.17,26.26-.99,53.44-.06,79.79-4.15.53-9.12-.38-13.4,0,.56-36.48-.73-73.1,0-109.57h2.43Z"/>
  <path class="cls-16" d="M1223.58,675.65l.02,84.49c.14,1.33-1.57.61-2.46.73-.93-26.35,1.23-53.53.06-79.79-.08-1.83,0-6.29-.06-6.64l2.43,1.22Z"/>
  <path class="cls-16" d="M1210.19,651.3h-2.43c.03-1.54-.51-7.31.61-7.32,1.49,1.87,1.27,5.08,1.83,7.32Z"/>
  <path class="cls-16" d="M1211.4,656.17c4.52-.09,5.02,6.89,6.09,9.74l-4.87-1.22c-.11-.37.1-.84,0-1.22-.51-1.83-.67-4.93-1.22-7.3Z"/>
  <path class="cls-12" d="M1004.43,647.65v110.78h-17.04v-110.78h17.04ZM1000.78,651.3h-8.52v103.48h8.52v-103.48Z"/>
  <path class="cls-1" d="M948.43,376.17c2.81-5.82,9.33-7.25,10.96-1.22-3.05.39-7.64-1.22-9.74,1.22h-1.22Z"/>
  <path class="cls-11" d="M959.38,376.17l1.22,1.22h-12.17c.11-.41-.14-.92,0-1.22h10.96Z"/>
  <path class="cls-13" d="M959.38,374.95v1.22h-9.74c2.1-2.43,6.69-.83,9.74-1.22Z"/>
  <path class="cls-14" d="M1212.62,664.69c.75,2.57,6.09,12.07,6.09,12.78v79.74c-3.04.04-6.94.9-7.31-3.04l1.22-90.7c.1.38-.11.84,0,1.22Z"/>
  <rect class="cls-14" x="992.25" y="651.3" width="8.52" height="103.48"/>
</svg>