<?xml version="1.0" encoding="utf-8"?>
<!-- Generator: Adobe Illustrator 22.1.0, SVG Export Plug-In . SVG Version: 6.00 Build 0)  -->
<svg version="1.1" id="Layer_1" xmlns="http://www.w3.org/2000/svg" xmlns:xlink="http://www.w3.org/1999/xlink" x="0px" y="0px"
	 viewBox="0 0 256 256" style="enable-background:new 0 0 256 256;" xml:space="preserve">
<style type="text/css">
	.st0{fill:#D73735;}
	.st1{fill:#F85252;}
	.st2{fill:#EDAF85;}
	.st3{fill:#F7C09A;}
	.st4{fill:#D8D6D7;}
	.st5{fill:#FFFFFF;}
	.st6{fill:#1C868E;}
	.st7{fill:#40C4DF;}
	.st8{fill:#491352;}
	.st9{fill:#56C1B3;}
	.st10{fill:#7BEFE4;}
</style>
<g>
	<path class="st10" d="M218.5,203h-181c-2.761,0-5-2.239-5-5V58c0-2.761,2.239-5,5-5h181c2.761,0,5,2.239,5,5v140
		C223.5,200.761,221.261,203,218.5,203z"/>
	<path class="st6" d="M201.5,80v96c0,2.76-2.24,5-5,5h-137c-2.76,0-5-2.24-5-5V80c0-2.76,2.24-5,5-5h137
		C199.26,75,201.5,77.24,201.5,80z"/>
	<path class="st7" d="M201.5,80v96c0,2.76-2.24,5-5,5H73c-2.76,0-5-2.24-5-5V80c0-2.76,2.24-5,5-5h123.5
		C199.26,75,201.5,77.24,201.5,80z"/>
	<g>
		<circle class="st6" cx="46" cy="67" r="5.75"/>
		<circle class="st6" cx="210" cy="67" r="5.75"/>
		<circle class="st6" cx="46" cy="189" r="5.75"/>
		<circle class="st6" cx="210" cy="189" r="5.75"/>
	</g>
	<g>
		<path class="st8" d="M97.549,133.205h-4.244c-0.195,0-0.373,0.114-0.455,0.292c-1.429,3.121-4.154,4.771-7.879,4.771
			c-5.64,0-9.43-4.118-9.43-10.247c0-6.153,3.79-10.287,9.43-10.287c3.731,0,6.455,1.662,7.878,4.808
			c0.081,0.179,0.259,0.294,0.456,0.294h4.244c0.165,0,0.319-0.081,0.412-0.217s0.114-0.31,0.055-0.463
			c-2.089-5.426-6.844-8.537-13.045-8.537c-8.01,0-14.051,6.191-14.051,14.402c0,8.166,6.041,14.323,14.051,14.323
			c6.205,0,10.959-3.083,13.044-8.458c0.06-0.153,0.04-0.327-0.054-0.463C97.868,133.286,97.714,133.205,97.549,133.205z"/>
		<path class="st8" d="M130.336,114.163h-3.777c-0.197,0-0.376,0.116-0.457,0.296l-9.512,21.255l-9.512-21.255
			c-0.081-0.18-0.259-0.296-0.457-0.296h-3.815c-0.276,0-0.5,0.224-0.5,0.5v26.947c0,0.276,0.224,0.5,0.5,0.5h3.543
			c0.276,0,0.5-0.224,0.5-0.5v-17.787l8.039,17.991c0.081,0.18,0.259,0.296,0.457,0.296h2.492c0.197,0,0.376-0.116,0.457-0.297
			l8-17.947v17.744c0,0.276,0.224,0.5,0.5,0.5h3.543c0.276,0,0.5-0.224,0.5-0.5v-26.947
			C130.836,114.386,130.612,114.163,130.336,114.163z"/>
		<path class="st8" d="M148.639,113.657c-8.055,0-14.13,6.175-14.13,14.363c0,8.188,6.075,14.362,14.13,14.362
			c8.055,0,14.129-6.175,14.129-14.362C162.768,119.832,156.693,113.657,148.639,113.657z M148.639,138.306
			c-5.687,0-9.508-4.134-9.508-10.286c0-6.153,3.821-10.287,9.508-10.287s9.508,4.134,9.508,10.287
			C158.146,134.172,154.326,138.306,148.639,138.306z"/>
		<path class="st8" d="M176.409,125.969c-3.204-0.882-5.971-1.644-5.971-4.453c0-1.097,0.349-1.992,1.037-2.662
			c0.835-0.813,2.134-1.257,3.675-1.199c2.973,0.035,4.555,1.837,4.767,3.497c0.032,0.249,0.245,0.437,0.496,0.437h3.895
			c0.142,0,0.276-0.06,0.372-0.165c0.095-0.105,0.14-0.246,0.126-0.387c-0.468-4.507-4.194-7.419-9.493-7.419
			c-5.679,0-9.495,3.222-9.495,8.016c0,5.83,4.563,7.049,8.59,8.124c3.268,0.872,6.091,1.626,6.091,4.609
			c0,2.44-1.944,4.018-4.952,4.018c-4.352,0-5.011-3.114-5.11-4.069c-0.026-0.255-0.241-0.448-0.498-0.448h-3.777
			c-0.134,0-0.263,0.054-0.356,0.149c-0.094,0.096-0.146,0.226-0.144,0.359c0.083,4.714,4.147,8.007,9.885,8.007
			c6.259,0,9.534-4.11,9.534-8.171C185.08,128.356,180.474,127.088,176.409,125.969z"/>
		<path class="st8" d="M203.5,80c0-3.859-3.14-7-7-7h-137c-3.86,0-7,3.141-7,7v96c0,3.859,3.14,7,7,7h137c3.86,0,7-3.141,7-7V80z
			 M199.5,176c0,1.654-1.346,3-3,3h-137c-1.654,0-3-1.346-3-3V80c0-1.654,1.346-3,3-3h137c1.654,0,3,1.346,3,3V176z"/>
		<path class="st8" d="M248.333,166c1.104,0,2-0.896,2-2s-0.896-2-2-2H225.5v-14h22.833c2.642,0,2.646-4,0-4H225.5v-14h22.833
			c2.642,0,2.646-4,0-4H225.5v-14h22.833c2.642,0,2.646-4,0-4H225.5V94h22.833c1.104,0,2-0.896,2-2s-0.896-2-2-2H225.5V76h22.833
			c2.642,0,2.646-4,0-4H225.5V58c0-3.859-3.14-7-7-7h-181c-3.86,0-7,3.141-7,7v14H7.667c-2.642,0-2.646,4,0,4H30.5v14H7.667
			c-1.104,0-2,0.896-2,2s0.896,2,2,2H30.5v14H7.667c-2.642,0-2.646,4,0,4H30.5v14H7.667c-1.104,0-2,0.896-2,2s0.896,2,2,2H30.5v14
			H7.667c-2.642,0-2.646,4,0,4H30.5v14H7.667c-2.642,0-2.646,4,0,4H30.5v14H7.667c-2.642,0-2.646,4,0,4H30.5v14c0,3.859,3.14,7,7,7
			h181c3.86,0,7-3.141,7-7v-14h22.833c2.642,0,2.646-4,0-4H225.5v-14H248.333z M221.5,198c0,1.654-1.346,3-3,3h-181
			c-1.654,0-3-1.346-3-3V58c0-1.654,1.346-3,3-3h181c1.654,0,3,1.346,3,3V198z"/>
		<path class="st8" d="M46,74.75c4.273,0,7.75-3.477,7.75-7.75s-3.477-7.75-7.75-7.75s-7.75,3.477-7.75,7.75S41.727,74.75,46,74.75z
			 M46,63.25c2.068,0,3.75,1.683,3.75,3.75s-1.682,3.75-3.75,3.75s-3.75-1.683-3.75-3.75S43.932,63.25,46,63.25z"/>
		<path class="st8" d="M210,59.25c-4.273,0-7.75,3.477-7.75,7.75s3.477,7.75,7.75,7.75s7.75-3.477,7.75-7.75
			S214.273,59.25,210,59.25z M210,70.75c-2.068,0-3.75-1.683-3.75-3.75s1.682-3.75,3.75-3.75s3.75,1.683,3.75,3.75
			S212.068,70.75,210,70.75z"/>
		<path class="st8" d="M46,181.25c-4.273,0-7.75,3.477-7.75,7.75s3.477,7.75,7.75,7.75s7.75-3.477,7.75-7.75
			S50.273,181.25,46,181.25z M46,192.75c-2.068,0-3.75-1.683-3.75-3.75s1.682-3.75,3.75-3.75s3.75,1.683,3.75,3.75
			S48.068,192.75,46,192.75z"/>
		<path class="st8" d="M210,181.25c-4.273,0-7.75,3.477-7.75,7.75s3.477,7.75,7.75,7.75s7.75-3.477,7.75-7.75
			S214.273,181.25,210,181.25z M210,192.75c-2.068,0-3.75-1.683-3.75-3.75s1.682-3.75,3.75-3.75s3.75,1.683,3.75,3.75
			S212.068,192.75,210,192.75z"/>
	</g>
</g>
</svg>
