<svg xmlns="http://www.w3.org/2000/svg" xmlns:xlink="http://www.w3.org/1999/xlink" width="1080" zoomAndPan="magnify" viewBox="0 0 810 143.999998" height="192" preserveAspectRatio="xMidYMid meet" version="1.2"><defs><clipPath id="eab0b3a239"><path d="M 72 21 L 706.792969 21 L 706.792969 136 L 72 136 Z M 72 21 "/></clipPath></defs><g id="51dbe082a3"><g clip-rule="nonzero" clip-path="url(#eab0b3a239)"><path style=" stroke:none;fill-rule:evenodd;fill:#ffffff;fill-opacity:1;" d="M 659.984375 42.496094 L 610.566406 39.375 C 566.171875 36.824219 521.722656 35.855469 477.320312 36.8125 C 432.886719 37.78125 388.503906 40.683594 344.273438 45.898438 C 313.277344 49.558594 282.496094 54.386719 251.898438 60.210938 C 221.320312 66.039062 190.929688 72.84375 160.703125 80.464844 C 151.5625 82.757812 142.429688 85.109375 133.316406 87.515625 C 127.753906 88.699219 122.199219 89.9375 116.65625 91.234375 L 94.65625 96.789062 C 85.5 99.292969 80.421875 100.859375 78.070312 101.757812 C 71.582031 104.238281 72.839844 109.632812 73.175781 110.417969 C 73.746094 111.742188 74.898438 113.394531 77.550781 113.9375 C 78.179688 114.0625 79.570312 114.148438 81.453125 113.792969 C 86.058594 112.910156 97.675781 109.265625 97.84375 109.222656 C 108.757812 106.160156 119.6875 103.152344 130.636719 100.21875 L 130.984375 100.132812 C 153.292969 95.277344 175.785156 91.277344 198.382812 87.984375 C 224.949219 84.113281 251.660156 81.25 278.410156 79.183594 C 327.101562 75.4375 376.035156 73.699219 424.960938 73.957031 L 428.820312 73.984375 C 392.582031 76.019531 356.457031 79.511719 320.5625 84.566406 C 263.390625 92.65625 206.824219 104.761719 151.398438 121.484375 C 147.660156 122.625 145.546875 126.570312 146.679688 130.300781 C 147.816406 134.03125 151.769531 136.140625 155.503906 135 C 210.210938 118.367188 266.058594 106.289062 322.507812 98.183594 C 379.003906 90.078125 436.105469 85.964844 493.273438 85.222656 C 512.367188 84.980469 531.464844 85.121094 550.554688 85.636719 C 569.65625 86.132812 588.746094 86.988281 607.820312 88.140625 L 642.941406 90.5625 L 656.304688 91.574219 C 657.429688 91.660156 659.757812 92.214844 660.839844 92.1875 C 662.824219 92.117188 664.21875 91.359375 665.089844 90.675781 C 666.429688 89.609375 667.246094 88.242188 667.53125 86.589844 C 667.742188 85.394531 667.785156 83.699219 666.53125 81.703125 C 665.703125 80.378906 663.078125 78.257812 658.84375 77.390625 C 653.582031 76.304688 644.4375 75.894531 643.167969 75.722656 C 631.429688 74.140625 619.671875 72.71875 607.894531 71.433594 C 596.121094 70.152344 584.335938 69.015625 572.542969 68.003906 C 523.542969 63.800781 474.28125 61.621094 425.015625 61.480469 C 375.75 61.324219 326.480469 63.175781 277.460938 67.0625 L 277.144531 67.089844 C 299.847656 63.105469 322.660156 59.699219 345.589844 56.9375 C 389.460938 51.667969 433.488281 48.691406 477.570312 47.636719 C 521.6875 46.582031 565.855469 47.464844 609.976562 49.886719 L 679.652344 54.144531 C 682.320312 54.273438 689.550781 55.414062 695.15625 55.171875 C 699.277344 54.972656 702.6875 53.847656 704.511719 52.191406 C 706.453125 50.441406 706.824219 48.417969 705.882812 46.140625 C 705.554688 45.355469 704.167969 43.460938 701.132812 42.195312 C 695.171875 39.714844 678.367188 35.457031 677.984375 35.386719 C 671.222656 34.035156 664.433594 32.824219 657.617188 31.726562 C 650.8125 30.628906 643.996094 29.648438 637.179688 28.75 C 612.242188 25.515625 587.144531 23.335938 561.992188 22.15625 C 536.855469 20.972656 511.667969 20.800781 486.546875 21.542969 C 446.710938 22.738281 407.074219 26.199219 367.609375 31.183594 C 308.535156 38.632812 249.859375 49.488281 191.492188 61.210938 C 175.089844 64.511719 158.644531 67.746094 142.289062 71.363281 C 131.339844 73.785156 120.433594 76.378906 109.605469 79.28125 C 104.109375 80.75 95.324219 82.144531 88.394531 85.050781 C 84.644531 86.617188 81.402344 88.65625 79.160156 91.175781 C 77.515625 93.027344 77.683594 95.863281 79.539062 97.5 C 81.390625 99.152344 84.226562 98.980469 85.871094 97.128906 C 87.816406 94.949219 91.007812 93.539062 94.445312 92.371094 C 100.507812 90.308594 107.398438 89.210938 111.941406 88 C 122.640625 85.164062 133.425781 82.617188 144.253906 80.25 C 160.554688 76.675781 176.949219 73.488281 193.300781 70.238281 C 251.464844 58.6875 309.941406 48.007812 368.804688 40.699219 C 407.96875 35.84375 447.304688 32.496094 486.832031 31.398438 C 511.699219 30.714844 536.628906 30.941406 561.511719 32.167969 C 586.378906 33.394531 611.199219 35.601562 635.851562 38.863281 C 642.570312 39.746094 649.289062 40.726562 655.976562 41.824219 C 657.316406 42.039062 658.65625 42.265625 659.984375 42.496094 Z M 659.984375 42.496094 "/></g><g style="fill:#ffffff;fill-opacity:1;"><g transform="translate(440.407633, 79.21931)"><path style="stroke:none" d="M 1.90625 3.65625 C 1.539062 3.65625 1.207031 3.625 0.90625 3.5625 C 0.601562 3.507812 0.359375 3.4375 0.171875 3.34375 L 0.515625 1.59375 L 0.65625 1.546875 C 0.789062 1.617188 0.953125 1.675781 1.140625 1.71875 C 1.335938 1.757812 1.535156 1.78125 1.734375 1.78125 C 2.085938 1.78125 2.378906 1.734375 2.609375 1.640625 C 2.835938 1.546875 3.03125 1.394531 3.1875 1.1875 C 3.351562 0.976562 3.5 0.6875 3.625 0.3125 L 0.1875 -8.625 L 2.453125 -8.625 L 4.59375 -2.625 L 4.78125 -2.625 L 6.875 -8.625 L 9.078125 -8.625 L 5.609375 0.546875 C 5.335938 1.285156 5.035156 1.878906 4.703125 2.328125 C 4.367188 2.773438 3.976562 3.109375 3.53125 3.328125 C 3.082031 3.546875 2.539062 3.65625 1.90625 3.65625 Z M 1.90625 3.65625 "/></g></g></g></svg>